<?xml version="1.0" encoding="UTF-8"?><svg xmlns="http://www.w3.org/2000/svg" viewBox="0 0 1798.33 3764.39"><g id="plan_racines"><path d="m1797.52,2718.81c-2.66-12.31-6.21-24.41-7.03-37.13-.75-11.53-3.86-22.72-8.84-33.13-2.59-5.42-4.75-10.9-6.83-16.5-6.6-17.72-13.44-35.36-20.54-52.88-4.88-12.05-10.92-23.67-20.68-32.47-9.17-8.26-17.08-17.69-25.76-26.39-8.38-8.4-16.02-17.9-22.24-27.98-7.22-11.71-15.49-22.38-25.1-32-6.97-6.98-8.93-15.6-11.32-25.94,10.73,7.04,19.05,14.83,29.1,19.98,7.69,3.95,16.5,6.39,23.1,11.64,14.8,11.76,32.65,15.54,49.69,21.56.91.32,2.52.66,2.86.24,4.44-5.48,9.2-1.59,13.35-.11,9.48,3.39,19.56,3.31,29.15,5.85.8.21,2.03-.21,1.77-1.96-3.29-3.6-7.52-6.07-12.48-7.15-10.69-2.33-20.19-6.43-29.79-12.34-21.14-13.01-42.38-26.03-64.49-37.47-18.88-9.75-34.04-24.31-48.56-39.52-8.53-8.93-13.99-19.98-20.87-31,11.55,2.98,21.85-1.26,32.45-3.43,2.22-.45,4.63-.06,6.95.07,8.06.46,16.1-.57,24.25-.43-13.16-4.07-25.73-10.94-40.2-5.59-7.46,2.76-15.2,1.03-22.61-.63-13.88-3.11-27.24-8.47-41.58-9.66-5.21-.42-9.48-3.15-13.3-6.29-4.69-3.86-9.89-7.02-15.34-9.18-12.79-5.05-23.02-13.71-31.96-23.4-13.06-14.16-26.81-27.68-39.25-42.5-12.39-14.76-19.74-31.17-23.72-49.62-1.32-6.1-3.13-12.12-5.01-18.08-.66-2.11-3.15-4.04-1.12-6.25,1.87-2.05,4.39-.43,6.59,0,16.61,3.3,33.05,7.36,50.14,7.85,13.99.41,27.43-2.03,39.48-8.62,9.52-5.21,17.79-12.68,26.63-19.12,9.44-6.87,19.84-11.19,31.66-9.74,10.65,1.31,21.3-.01,31.92.92,1.79.15,4.07.68,5.27-2.37-1.75-.69-3.48-1.48-5.27-2.06-9.8-3.14-20.33-3.47-29.83-7.71-7.56-3.37-14.9-2.29-22.2.67-10.77,4.36-21.51,8.55-30.95,15.85-11.51,8.89-23.76,14.58-39.42,8.95-15.3-5.49-31.88-6.05-47.82-9.22-3.28-.65-7.07-.83-8.81-3.98-5.41-9.81-14.9-14.92-23.47-21.11-1.89-1.36-4.19-2.44-5.03-4.7-3.61-9.7-10.39-17.9-13.18-27.95-2.33-8.41-6.3-16.11-9.94-23.96-5.33-11.46-11.28-22.59-14.94-34.83-2.47-8.25-5.42-16.62-9.76-24-8.6-14.61-9-31.57-15.3-46.93,15.66,11.31,33.36,15.41,51.73,16.78,9.74.72,19.15,2.46,28.31,5.55,8.98,3.04,18.16,4.1,27.54,3.6,8.02-.43,15.91.73,23.85,1.48,1.9.19,3.95,2.15,5.97-.74-4.26-2.17-8.85-2.83-13.3-4-8.03-2.12-16.42-2.32-24.25-5.57-20.71-8.57-42.38-13.52-64.58-16.32-1.95-.24-4.16-.4-5.73-1.4-11.14-7.16-22.74-13.65-29.83-25.75-4.48-7.65-9.03-15.54-15.82-21.47-12.77-11.16-21.78-24.83-27.2-40.71-4.18-12.26-8.4-24.68-10.68-37.38-2.65-14.79-.48-29.24,12.01-39.83,11.71-9.92,22.63-20.45,31.52-33.12,5.44-7.75,12.58-13.43,23.01-13.7,5.25-.14,10.53-1.47,15.67-2.77,8.45-2.14,16.13-.87,24.19,2.53,12.2,5.15,24.33,10.65,37.9,11.98,17.48,1.72,33.73,7.98,48.5,17.15,10.94,6.8,22.63,11.92,33.94,17.86,8.42,4.42,17.73,5.75,27.32,6.93-.25-3.95-2.58-5.1-4.68-5.55-19.22-4.16-33.85-16.29-49.18-27.46-15.99-11.66-33.32-20.46-53.67-21.89-5.87-.41-12.21-.6-17.14-4.54-9.18-7.33-19.02-13.22-31.19-16.23,10.24-5.17,18.31-13.25,28.79-17.63,2.85-1.2,5.78-1.78,8.76-1.62,16.91.97,34.01-.87,50.72,3.42,3.26.83,6.74,1.7,11.32-.41-10.13-7.36-20.71-9.97-31.26-12.02-7.6-1.48-15.19-1.95-19.96-9.28-.59-.91-2.28-1.27-3.54-1.56-15.53-3.57-30.38-3.06-43.72,7.13-7.73,5.9-16.23,10.64-25.48,13.5-7.21,2.24-14.53,3.9-20.12,9.58-1.46-2.48-.54-4.09-.03-5.54,7.1-20.26,7.7-40.68,4.12-61.87-3.86-22.89-7.31-45.86-5.47-69.45.91-11.65-.8-23.61-7.05-34.71-7.08-12.56-11.15-26.48-9.42-41.23,1.01-8.6,1.32-17.25,2.22-25.81.86-8.15,2.82-16.23,9.4-22.42,15.27-14.38,32.83-23.35,54.01-24.95,13.59-1.04,27.18-2.43,40.36-6.25,2.58-.75,5.13-1.38,7.83-1.28,15.05.56,29.76-2.21,44.5-4.59,2.77-.45,5.95-.92,7.22-4.24-1.88-1.86-3.8-.8-5.71-.56-9.86,1.24-19.83,4.02-29.65,2.28-9.39-1.67-18.43-1.45-27.64.11-3.93.67-7.9,1.18-11.81,1.95-10.79,2.12-21.61,2.34-32.49.76-11.34-1.65-22.57-1.14-33.6,2.15-1.84.55-3.6,1.97-5.45.48-1.02-1.49-.12-2.61.29-3.82,5.83-17.48,6.67-35.79,7.73-53.86,1-17.12-4.52-33.33-11.76-48.82-5.26-11.26-7.68-23.2-9.26-35.5-2.36-18.38-.28-37.41-7.88-55.05-.48-1.13-.54-2.71-.19-3.89,3.42-11.32,1.74-23.14,3.46-34.7,1.57-10.56,1.66-9.67,10.41-10.5,12.97-1.24,25.83-2.57,37.45-9.32,3.14-1.82,6.87-2.39,10.6-2.52,13.64-.48,27.29-1.67,40.92-1.41,8.22.16,16.59.08,24.79,2.21,9.11,2.37,15.95,8.15,22.73,14.01,9.53,8.25,20.41,13.64,32.57,16.65,20.69,5.11,41.54,9.42,62.66,12.27,7.35,1,14.82,2.16,24.56,1.16-10.61-4.59-19.99-5.2-28.8-7.83-13.34-3.97-27.16-6.33-40.65-9.85-11.89-3.1-24.18-5.8-34.1-13.55-7.51-5.88-14.18-12.82-21.62-19.64,8.08-3.01,17.12-2.14,23.29-8.84,5.26-5.7,13.67-9.06,14.61-18.79-11.94.33-19.86,7.79-29.27,11.57-5.72,2.3-11.12,3.94-17.32,1.84-6.78-2.29-13.78-2.15-20.64-.04-7.57,2.33-16.17,2.09-22.6-.04-10.39-3.45-19.54-1.49-29.26.22-2.93.51-6.06,1.78-8.8,1.23-10.08-2.01-20.41-3.01-29.96-7.37-7.36-3.35-10.02-8.18-5.54-14.84,11.42-16.95,13.35-38.32,25.98-54.61.58-.75.66-1.87,1-2.81,4.67-12.9,10.54-24.98,20.03-35.3,4.63-5.05,9.6-10.63,12.32-16.69,5.3-11.8,12.49-22.76,16.05-35.39,2.15-7.62,3.92-15.56,9.7-21.62,6.71-7.05,11.72-15.4,16.49-23.71,8.08-14.1,14.45-29.08,20.27-44.27,2.03-5.29,4.43-10.34,8.18-14.76,7.47-8.82,11.98-19.81,20.44-27.97,1.53-1.47,2.07-4.13,2.66-6.35,1.7-6.41,3.09-12.89,4.79-19.3,5.02-18.95,13.61-36.5,23.03-53.44,3.66-6.59,5.46-14.37,11.04-19.89,6.62-6.55,9.32-15.25,12.93-23.45.7-1.58,1.2-3.31-.6-4.37-1.31-.78-2.67.1-3.52,1.11-10.5,12.45-22.76,23.59-31.01,37.73-13.09,22.43-24.47,45.77-33.74,70.09-2.14,5.59-4.39,11.2-7.26,16.44-3.44,6.28-7.03,12.68-15.13,16.82-.9-9.68-4.8-18.07-2.29-27.13,1.02-3.7.8-7.04-.04-10.73-3.71-16.14-6.9-32.35-2.31-48.94.41-1.49.19-3.43-.39-4.9-4.09-10.36-2.39-21-1.85-31.62.35-6.93,2.28-14.39-.25-20.69-4.47-11.17-4.15-22.52-5.03-34.06-.73-9.51,0-19.31-2.48-28.55-3.15-11.76-.68-22.39,4.23-32.9.7-1.5,1.96-2.83,2.31-4.39,4.11-18.26,11.36-35.43,19.07-52.3,4.62-10.08,7.43-20.81,9.2-31.21,2-11.77,8.67-23.32,4.54-36.02-.51-1.58,1.21-3.77,1.42-5.72.7-6.58,3.66-13.11,1.84-19.72-4.93-17.99-1.4-35.67,1.51-53.33.86-5.19,1.79-10.42,3.46-15.55,5.76-17.58,14.67-33.52,24.48-49.02,4.98-7.87,9.34-16.22,15.68-23.11,6.19-6.73,9.98-14.92,14.82-22.47.84-1.32,2.05-2.92.49-4.46-1.35-1.32-3.12-1.13-4.63-.28-1.43.81-2.82,1.81-3.97,2.97-24.37,24.6-44.8,51.82-56.23,84.98-2.6,7.54-4.24,15.61-8.01,22.51-5.76,10.56-8.1,21.75-9.53,33.37-1.64,13.22-3.79,26.33-6.7,39.36-4.42,19.8-10.53,39.29-11.94,59.69-.7,10.01-2.31,19.84-5.37,29.4-2.59,8.09-5.18,16.17-7.99,24.95-2.28-3.57-.54-5.92.05-8.38,2.94-12.27,3.02-24.6-1.83-36.28-3.48-8.36-5.78-16.98-8.33-25.58-4.08-13.81-6.68-27.75-5.74-42.26.33-5.02-.26-10.1-.43-15.15-6.78,11.53-8.05,24.12-5.57,35.87,3.28,15.57,5.73,31.38,10.24,46.7,3.26,11.07,3.67,22.17.89,33.51-2.94,11.96-4.46,24.12-4.92,36.51-.37,9.96.33,19.91-.69,29.91-2.08,20.19-4.04,40.38-3.7,60.79.38,22.49-4.64,44.27-11.38,66.77-1.17-2.19-1.96-3.26-2.37-4.46-11.18-32.75-22.25-65.54-33.52-98.25-4.44-12.89-9.32-25.58-11.45-39.18-1.29-8.2-2.97-16.5-5.84-24.24-4.85-13.09-10.77-25.77-16.29-38.6-1.19-2.75-2.66-5.37-2.59-8.51.36-15.79-4.37-30.77-7.14-46.08-1.76-9.79-5.11-19.31-5.03-29.44.16-19.25-2.59-38.53.5-57.76.32-1.96.41-4.01.23-5.99-1.56-16.85,1.8-33.03,5.72-49.31,3.12-12.97,8.46-25.23,11.01-38.36,1.01-5.2.11-9.92-1.05-14.75-.58-2.37-2.15-4.42-4.87-4.23-3.27.23-2.89,3.14-3.06,5.35-.79,10.37-3.82,20.23-6.74,30.12-7.19,24.34-12.84,48.93-13.22,74.49-.29,19.31-5.62,37.87-8.91,57-6.32-15.04-12.93-29.76-16.92-45.4-2.56-10.02-5.35-19.93-9.64-29.31-2.3-5.01-3.14-10.01-3.23-15.44-.22-12.6.48-25.37-6.09-37-1.1-1.94-1.55-4.48-1.62-6.76-.57-19.66-4.46-39.05-4.53-58.75-.02-7.63.92-15.26-.27-22.93-1.68-10.83-3.67-21.64-2.74-32.74.47-5.64,0-11.33-1.23-16.9-2.69-12.15-2.47-24.39-1.65-36.74,1.12-16.98,1.02-33.66-6.53-49.87-6.99-15-12.94-30.68-13.28-47.72-.01-.47-.79-.92-1.22-1.39-1.46,1.24-1.01,2.97-1.18,4.54-1.97,17.52,2.7,34.42,5.16,51.47,2.1,14.51,5.01,28.81,3.41,43.59-1.94,17.9-3.5,35.81-.29,53.76.52,2.91.48,6.02.16,8.97-1.3,11.99-.49,23.95-.18,35.94.29,11.43-.28,22.88-.47,34.32-6.03-8.1-11.71-15.3-18.75-21.46-2.61-2.28-3.5-5.63-3.63-9.05-.13-3.37-1.39-6.54-1.77-9.77-1.07-9.37-5.57-17.91-6.71-27.05-1.6-12.84-5.61-25.16-7.01-37.98-.97-8.99-2.71-17.83-6.71-25.97-4.16-8.45-5.92-17.63-8.79-26.47-1.44-4.42-1.15-9.21-2.99-13.61-5.87-14-5.31-29.37-9.01-43.86-1.21-4.72-.89-9.96.81-14.83.91-2.62,1.02-5.26-.28-7.76-5.08-9.8-4.27-20.71-5.92-31.15-.75-4.69.22-9.16,1.34-13.77,2.93-11.94,5.5-23.99,7.86-36.06,1.33-6.78.41-15.83-1.43-20.86-.68,1.34-1.7,2.47-1.81,3.68-1.55,17.04-9.62,31.74-17.09,46.55-2.32,4.59-3.81,8.93-4.17,14-.49,6.96.2,14.86-2.89,20.57-4.05,7.48-4.12,15.11-5.67,22.79-5.9,29.34-1.38,58.66,2.32,87.49,3.38,26.34,14.37,51.18,25.27,75.56,1.89,4.24,5.11,7.88,6.11,12.53,2.96,13.77,8.39,26.66,14,39.46,7.17,16.39,11.13,34.29,23.09,48.45,6.4,7.59,9.55,16.85,10.98,26.47,4.67,31.23,13.53,61.64,17.87,92.96,2.1,15.21,4.39,30.27,3.48,45.67-.54,9.33-.33,18.68,1.03,27.93,2.3,15.75,5.36,31.29,6.26,47.35,1.05,18.83.46,37.47-3.86,55.51-6.07,25.34-16.56,49.16-31.96,70.5-13.41,18.6-22.61,39.13-28.56,61.21-.57,2.15-.28,4.8-3.71,5.99-3.04-6-6.64-11.68-5.35-19.11.79-4.55,1.84-9.52-1.68-13.4-3.99-4.4-4.03-9.54-4.09-14.91-.15-12.31-.03-24.65-.87-36.92-1.55-22.36-7.93-43.6-16.62-64.15-1.56-3.71-3-7.42-3.81-11.32-3.47-16.87-12.96-32.17-12.92-49.96.01-1.56-1.07-3.12-1.61-4.7-4.86-14.43-8.63-29.19-11.45-44.1-1.84-9.75-1.71-19.87-2.49-29.82-.37-4.62-.16-9.35-2.03-13.75-1-2.34-2.47-3.73-5.72-2.63.77,4.48,1.86,8.62,1.84,12.94-.14,26.05,2.93,51.76,8.65,77.16,2.28,10.11,4.12,20.37,3.65,30.67-.8,17.44,3.16,33.63,10.41,49.26,1.02,2.19,2.46,4.6.51,7.46-7.79-3.09-12.54-9.03-16.82-15.36-1.89-2.79-3.74-5.34-6.8-7.09-5.76-3.29-11.09-7.4-16.99-10.39-5.72-2.91-11.65-6.21-18.57-4.52-.28,2.42,1.04,3.53,2.32,4.55,7.78,6.24,15.26,12.96,23.54,18.46,5.65,3.76,10.62,7.81,14.78,13.12,4.97,6.33,10.54,12.41,18.39,14.88,6.01,1.88,7.66,5.45,7.67,11.08.01,3.32.05,6.61-.15,9.94-.87,14.36-.3,28.66,3.76,42.58,2.07,7.1,2.78,14.3,3.19,21.65.93,16.94,2.27,33.85,3.54,50.77,1.41,18.86,0,38.05-7.06,55.07-12.66,30.53-36.05,49.78-70.01,53.67-15.11,1.73-29.19,6.09-42.47,13.55-12.52,7.03-23.13,16.65-34.85,24.74-14.8,10.22-29.63,20.29-45.01,29.65-20.81,12.66-43.58,21.63-64.03,34.87-7.98,5.16-16.86,5.89-25.92,4.77-6.35-.79-12.64-.62-18.91.15-10.02,1.23-19.76,1.07-29.46-2.45-5.86-2.12-12.11-3.29-18.27-4.45-4.44-.83-8.42-2.55-11.44-5.68-4.49-4.67-9.83-7.88-15.55-10.66-3.94-1.91-7.49-4.56-10.15-7.97-3.34-4.3-7.23-7.71-12-10.27-3.3-1.76-5.7-4.45-7.47-7.82-1.39-2.63-3.07-5.15-4.93-7.48-8.77-10.97-14.34-23.78-20.41-36.23-7.47-15.32-9.63-32.43-15.35-48.37-6.46-18-8.82-36.71-10.13-55.74-1.16-16.87-1.7-34.12-7.33-50.19-5.74-16.41-5.84-33.32-7.22-50.15-1.42-17.35,2.86-34.35,4.36-51.52.91-10.39.97-20.59-1.85-30.7-3.84-13.76-7.7-27.51-5.09-42.09.36-2.06.67-4.68-2.85-6.12-3.29,8.51-5.28,17.18-4.78,26,1.44,25.73.75,51.13-6.19,76.21-3.3,11.96-3.85,24.43-1.04,36.64,1.72,7.51,2.46,15.1,3.59,22.67,2.89,19.42,5.67,38.86,3.69,58.6-.23,2.35-.05,4.85-1.8,7.23-11.04-26.15-18.85-52.54-24.63-79.55-1.06-4.96-2.6-9.78-6.03-13.54-11-12.08-13.24-27.04-14.75-42.42-1.39-14.24-1.7-28.85-5.35-42.53-4.21-15.74-8.31-31.4-11.35-47.42-1.7-8.9-3.01-17.98-9.45-25.73-4.45-5.36-7.32-12.64-9.09-19.52-3.06-11.94-7.61-23.34-11.47-34.96-5.21-15.7-10.97-31.24-16.18-46.96-4.42-13.32-5.46-27.41-9.13-40.82-4.53-16.62-10.29-32.93-15.65-49.33-4.8-14.72-8.29-30.01-7.91-45.8.04-1.58-.05-3.68-2.25-3.76-2.2-.09-2.38,1.97-2.47,3.57-.61,10.02-.12,19.97,1.73,29.86,3.8,20.27,7.52,40.57,9.21,61.16,1.56,18.94,4.22,37.73,7.75,56.39.95,5,1,9.9.14,14.88-3.35,19.37-2.3,38.27,3.82,57.18,3.21,9.9,6.93,19.72,7.48,30.62.78,15.26,3.86,30.31,10.15,44.52,2.29,5.17,3.09,10.86,3.83,16.5,1.63,12.52,2.78,25.16,8.47,36.76.86,1.76,1.44,3.84,1.46,5.79.19,17.7,7.05,34.57,6.4,52.39-.16,4.36,1.86,8.38,3.71,12.34,3.54,7.55,7.02,15.34,7.47,23.67.9,16.44,10.44,30.04,14.05,45.54.36,1.51,1.47,3.13,2.7,4.1,3.39,2.63,4.68,6.4,6.05,10.13,3.33,9.01,8.55,17.26,10.66,26.78.41,1.86,1.45,4.09,2.92,5.1,7.77,5.39,8.89,13.68,10,21.95.44,3.35.99,6.6,2.65,9.54,6.57,11.72,7.61,25.37,13.1,37.47.53,1.17,1.01,2.51-.51,4.25-8.01-3.2-16.63-5.91-22.85-12.54-7.04-7.5-14.69-14.43-21.05-22.6-6.4-8.23-13.9-15.32-24.03-18.86-6.06-2.12-12.23-3.64-19.25-1.68,1.07,1.17,1.44,1.96,1.89,2.01,13.28,1.39,22.82,8.35,29.62,19.58,2.07,3.42,4.47,6.63,6.74,9.92,7.47,10.8,16.2,20.35,27.94,26.59,8.48,4.5,15.28,10.76,20.11,18.9,8.01,13.49,17.38,25.99,27.26,38.08,3.7,4.52,6.35,9.35,8.12,14.7,1.16,3.5,2.63,6.76,4.28,10.04,6.85,13.69,11.05,28.42,16.36,42.7,5.62,15.13,5.5,31.38,7.76,47.17.57,3.93.36,7.98.56,11.97.16,3.06-1.55,4.93-3.88,6.48-2.9,1.94-5.25.34-7.11-1.52-2.68-2.68-5.61-5.15-9.32-5.38-7.12-.42-13.48-3.73-20.35-4.79-12.75-1.98-25.28-4.7-38.52-4.09-14.3.66-28.51,3.16-42.84,2.43-8.08-.41-15.93.22-23.74,2.31-7.22,1.94-14.47,2.11-21.6-.63-2.51-.96-5.04-1.67-7.79-1.43-11.6,1-23.23,1.87-34.63,4.42-6.18,1.38-12.38,2.21-18.68,2.92-14.85,1.69-29.8,3.08-44.2,7.56-5.71,1.78-11.42,3.83-17.29,4.74-17.04,2.65-34.33,2.96-51.48,4.98-16.8,1.98-33.78,2.81-50.56,5.45-2.26.36-4.8,1.88-6.79.39-6.04-4.53-14.05-4.07-20.15-8.36-3.67-2.59-7.88-3.07-12.34-3.23-11.96-.41-23.93-1.03-35.86-1.98-6.87-.55-13.02-2.65-15.05-10.62-.55-2.16-2.12-4.15-3.56-5.96-9.53-12-17.08-25.15-22.61-39.41-5.26-13.54-12.38-25.37-23.85-34.99-5.24-4.39-11.68-8.69-14.29-16.03-2-5.62-5.11-10.86-6.94-16.52-5.67-17.59-15.23-33.18-25.05-48.53-4.45-6.95-10.98-12.47-17.4-17.8-1.08-.9-2.34-1.39-3.57-.43-1.28.99-1.05,2.34-.33,3.57,3.18,5.46,6.4,10.91,9.61,16.35,11.53,19.51,21.46,39.79,27.76,61.59,3.61,12.5,9.41,23.65,18.64,32.48,6.5,6.22,11.19,12.86,13.48,21.51,1.64,6.19,4,12.2,6.31,19.07-15.67-.81-27.15-7.45-36.43-17.09-6.3-6.53-13.2-11.01-21.61-13.44-3.54-1.03-6.59-2.24-9.68-4.53-5.33-3.96-10.49-7.61-13.66-13.82-1.59-3.13-4.81-5.37-8.44-6.7-4.96-1.81-9.12-4.51-13.1-8.41-5.05-4.94-11.58-8.73-18.07-11.76-8.96-4.18-18.5-7.09-27.72-10.73-4.26-1.68-8.46-2.14-12.56-.04-5.63,2.89-10.65,1.67-16.16-.79-10.45-4.66-27.1-2.63-37.77,4.79,20.13-.07,35.2,10.36,51.46,17.56,2.77,1.22,5.55,2.36,8.58,2.48,7.09.29,12.74,3.59,17.68,8.31,6.01,5.75,12.24,11.33,17.78,17.51,13.35,14.92,29.09,26.11,47.71,33.6,8.88,3.57,18.06,7.33,24.37,15.05,8.21,10.05,16.69,19.98,23.75,30.81,8.08,12.42,16.69,24.59,20.36,39.61,3.55,14.53,9.19,28.52,18.33,40.71,4,5.33,8.27,10.46,12.09,15.9,4.21,5.97,10.41,11.04,12.05,18.2,2.33,10.13,6.33,19.59,9.64,29.32,2.51,7.37,3.08,14.84,3.49,22.56,1.13,21.96-.09,43.9.31,65.86.25,13.24-1.07,26.62-5.5,39.27-8.42,24.02-10.13,48.71-8.15,73.81.43,5.44,1.85,10.76,4.73,15.68,1.71-1.2,1.67-2.18,1.57-3.15-2.38-21.93,2.42-42.8,8.65-63.62,4.94-16.52,13.63-31.82,15.4-49.41.34-3.33-1.15-6.44.06-9.71,2.97-7.98,2.43-16.26,2.15-24.6-.22-6.96-1.14-14.12,1.18-21.64,3.55,2,4.85,4.73,6.26,7.29,4.18,7.57,8.17,15.25,12.41,22.79,6.04,10.73,11.26,22.03,18.87,31.74,10.96,13.98,19.85,29.26,27.76,44.96,10.78,21.39,19.38,43.8,25.78,66.97.79,2.86,1.69,5.77,3.05,8.4,9.33,18.07,17.33,36.69,22.57,56.37,2.7,10.13,7.3,19.58,10.72,29.22-2.64,1.83-4.62.92-6.41.3-6.28-2.18-12.52-4.46-18.71-6.88-10.14-3.97-21.11-6.64-27.17-17.16-.62-1.07-2.1-1.61-3.04-2.54-9.31-9.07-21.37-9.58-33.26-11.21-12.41-1.7-25.26.59-37.33-4.79-2.92-1.3-7.89-2.55-10.53.1-4.19,4.21-8.4,2.38-12.92,2.12-6-.35-11.63-3.8-18-2.01,6.83,3.5,13.69,6.95,20.96,8.74,14.51,3.57,29.2,6.44,43.9,9.16,5.96,1.11,10.54,3.84,14.19,8.44,5.54,6.98,12.74,11.61,20.87,14.99,4.6,1.92,9.28,3.74,13.7,6.04,13.5,7.04,28.44,11.26,40.07,21.98,6.16,5.68,11.6,11.96,17.16,18.09,10.68,11.77,18,25.45,18.3,41.85.14,8.08.58,16.15,3.75,23.54,5.29,12.35,7.27,25.55,10.76,38.35,1.7,6.25,4.93,12.29,3.29,20.18-11.44-5.05-21.24-11.59-27.1-22.35-2.74-5.02-5.96-8.6-10.94-10.92-16.15-7.52-31.33-16.86-48.14-23.33-10.21-3.93-19.89-6.99-30.68-6.52-7.17.31-13.87-1.27-20.27-4.42-4.67-2.3-9.32-4.71-16.26-5.96,9.06,11.22,19.25,16.36,31.77,17.14,4.63.29,9.29-.11,13.84,1.46,14.55,5.03,27.83,12.53,40.59,20.95,5.85,3.86,10.71,8.81,14.37,15.03,5.26,8.93,11.79,16.9,20.22,23.13,1.5,1.11,3.86,1.67,3.02,4.81-4.79,1.49-9.9.76-14.41-.71-12.24-4-25.01-3.39-37.47-5.34-4.94-.77-9.89.29-14.74,1.67-10.24,2.91-20.46,5.77-31.03,7.42-7.84,1.22-15.47,3.73-23.19,5.67,9.38,2.34,18.26.26,26.9-1.57,20.85-4.43,41.3-5.54,61.67,2.16,3.33,1.26,7.18,1.33,10.81,1.56,16.56,1.03,32.16,5.37,46.3,14.03,7.36,4.5,14.05,10.1,21.18,15.01,6.67,4.61,11.72,10.53,16.41,17.16,7.42,10.52,11.64,22.21,15.77,34.2,4.58,13.26,6.23,26.51,3.23,40.19-1.68,7.63-1.61,15.12-.1,22.77,2.24,11.38.71,22.28-3.68,33.19-5.75,14.27-13.33,27.48-20.59,40.94-8.98,16.64-18.1,33.12-24,51.39-4.99,15.47-15.87,28.07-29.57,36.71-12.67,7.99-24.86,16.65-37.42,24.79-15.62,10.13-30.52,21.39-47.07,30.1-5.26,2.78-10.29,6.02-14.66,10.29-4.8,4.7-10.68,8.54-17.1,9.97-9.8,2.2-16.85,9.75-28.46,11.37,6.44,2.74,10.54,1.04,14.67-.07,2.56-.69,5.1-2.2,7.63-2.17,10.65.14,19.18-4.8,27.42-10.64,4.09-2.91,8.34-5.56,13.07-7.25,11.06-3.96,20.64-11.59,32.73-13.08,1.72-.21,1.19-5.52,4.55-3.08,2.42,1.76,0,4.34-.75,6.3-2.83,7.46-6.01,14.79-8.97,22.21-4.47,11.2-7.37,22.6-4.07,35.4,2.19-5.1,2.93-10.04,4.67-14.66,4.92-13.06,11.1-25.57,16.23-38.47,3.61-9.08,8.11-14.26,17.7-17.53,14.57-4.96,27.11-4.35,38.79,5.96,2.49,2.2,5.02,4.37,7.57,6.52,11.33,9.57,20.34,20.66,23.68,35.59.8,3.55,1.69,7.26,3.48,10.36,2.76,4.79,3.67,10.59,8.95,14.08,9.32,6.16,12.69,15.54,8.89,25.78-2.27,6.11-1.73,11.33.11,17.34,3.7,12.09,6.83,25.01,5.61,37.23-1.36,13.72-4.13,27.6-7.23,41.22-1.52,6.7-2.04,6.88-8.83,5.88-2.62-.38-5.46-.71-7.69-1.97-10.05-5.72-19.8-12.41-28.21-19.94-5.8-5.2-10.47-6.63-17.38-6.29-12,.58-23.84,2.31-35.68,4.07-17.47,2.6-32.56-4.29-47.19-12.26-3.71-2.02-7.13-3.41-11.18-3.24-11.52.47-22.24-3.71-33.26-5.96-5.68-1.16-11.03-2.05-16.66-.78-14.88,3.35-29.93,6.15-44.58,10.32-8.65,2.46-17.72,4.36-27.15,9.36,5.41,1.76,9.35,1.3,13.23,1.23,14.05-.28,27.58-3.71,41.23-6.66,6.7-1.45,13.42-3.89,20.58-2.42,14.66,3.01,29.37,5.8,44.04,8.82,9.57,1.98,18.57,5.4,27.19,10.99-9.59,7.57-23.03,1.26-32.54,11.73,13.01-1.19,24.64,1.64,36.04-2.41,3.79-1.35,7.73-1.11,11.8-.69,10.23,1.07,20.52,1.77,30.8,2.13,6.13.22,11.85,1.33,17.34,4.03,11.64,5.73,23.3,11.42,35.89,14.88,1.87.51,3.87,1.46,5.21,2.8,7.97,8.01,16.94,15.4,23.22,24.6,4.09,5.99,1.54,14.91,2.18,22.5.09,1,.23,1.99.26,2.99.12,4.91,3.57,10.7-3.81,13.64-1.27.5-.79,2.42-.67,3.72.47,5.11-1.19,9.89-2.37,14.72-5.43,22.32-12.51,43.87-23.65,64.29-8.41,15.41-14.89,31.87-25.33,46.21-6.99,9.6-15.02,18.47-20.46,29.22-.96,1.87-2.48,4.22-5.91,4.58-3.38.37-4.99,3.22-1.59,6.23,2.38,2.11,1.71,3.94-.02,5.96-3.76,4.39-8.04,8.46-11.07,13.31-4.79,7.66-10.19,14.73-16.14,21.5-9.46,10.76-20.98,19.37-30.59,30.01-5.99,6.64-12.45,13.22-19.81,18.18-12.63,8.51-25.52,17.06-41.18,19.3-13.53,1.93-26.14,7.37-39.45,10.21-5.82,1.25-10.95,5.16-17.01,5.58-4.96.34-8.7,2.77-12.66,5.29-10.63,6.78-21.13,13.86-32.24,19.75-5.38,2.85-9.12,6.61-12.5,11.48,15.85-5.65,30.75-13.14,45.7-20.51,24.03-11.85,39.7-17.43,47.21-16.74-.77,2.4-3.01,3.45-4.58,5.11-5.92,6.3-12.16,12.33-17.56,19.05-8.7,10.81-15.51,23.13-25.8,32.65-2.31,2.13-1.93,6.8-6.53,6.71-1.92-.04-3.36,1.15-2.78,3.07.64,2.09,2.94,1.61,4.3,1.16,10.88-3.59,20.7-8.71,28.19-17.93,13.66-16.82,28.01-33,47.21-43.91,3.17-1.81,5.92-4.4,8.95-6.2,9.95-5.9,20.15-12.08,32.23-11.8,11.72.28,23.24-1.51,34.87-2.13,7.65-.4,15.12-2.14,21.96-5.92,1.95-1.08,3.88-2.76,7.04-.58-7.35,14.72-12.02,30.67-20.39,45.14-6.31,10.92-12.45,22.03-16.84,33.95-1.62,4.41-3.89,8.4-7.01,11.99-10.79,12.45-19.38,26.06-22.77,42.56-.72,3.48-2.68,6.85-4.63,9.91-14.25,22.37-23.93,46.75-30.97,72.15-3.62,13.05-9.62,24.9-16.9,35.94-8.07,12.24-16.03,24.48-22.29,37.71-2.67,5.65-6.32,10.41-11.35,13.61-8.87,5.65-13.99,14.43-15.28,23.65-1.53,10.87-6.54,20.15-9.53,30.27-3.78,12.8-11.71,23.78-17.11,35.9-.92,2.06-2.45,4.21-4.29,5.43-5.67,3.74-7.62,9.86-10.62,15.34-.79,1.44-1.35,3.16-2.51,4.22-8.88,8.16-14.99,18.65-23.26,27.33-1.43,1.5-3.3,3.24-2.25,6.77,5.27-3.91,9.9-7.52,13.52-12.28,5.98-7.85,13.89-13.26,22.39-18,2.01-1.12,4.08-2.3,5.75-3.85,11.23-10.44,21.95-21.09,27.75-35.95,2.74-7.02,7.19-13.39,9.49-20.75.61-1.97,1.35-4.6,4.15-5.11,1.1,1.08,1.13,2.44.68,3.62-4.13,10.99-5.59,22.41-6.65,34.05-1.49,16.31-2.12,32.42.59,48.72,1.85,11.09,2.21,22.46,2.64,33.73.23,5.94-.09,12.1-1.44,17.86-3.5,14.82-3.59,29.63-1.84,44.63,1.35,11.6,2.05,23.41.07,34.88-3.38,19.63-6.38,39.39-12.38,58.49-.5,1.59-1.74,3.8,1.31,5.38,5.97-6.04,13.02-11.76,15.54-20.08,2.05-6.75,4.95-13.01,7.5-19.48,1.95-4.99,3.28-10.07,3.63-15.49.28-4.29.62-8.84,2.24-12.74,2.97-7.15,2.4-14.33,1.93-21.64-.22-3.31.21-6.79-.66-9.92-3.68-13.28-2.95-26.54-1.29-40.01.65-5.28.62-10.54,2.76-15.57,1.3-3.05,2.09-6.31,3.1-9.48.62-1.94,1.33-4.22-.53-5.56-7.03-5.06-4.93-12.49-5.01-19.19-.07-5.67.86-11.48-1.86-16.68-5.21-9.94-6.38-20.15-3.33-30.92.45-1.57.53-3.28.59-4.93.63-18.16,5.15-35.31,12.69-51.82,7.49-16.4,18.92-30.44,27.12-46.41,2.56-4.97,5.87-9.84,9.84-13.74,16.82-16.54,34.5-32.14,53.85-45.69,5.76-4.03,10.96-8.62,16.14-13.31,1.47-1.33,2.69-3.52,6-3.01-4.9,8.23-7.37,16.47-8.52,25.1-.39,3-1.5,5.78-2.2,8.66-2.78,11.36-7,22.04-12,32.65-9.6,20.35-13.65,42.22-14.5,64.72,2.93-.34,3.43-2.93,4.12-4.92,2.62-7.53,5.48-15.02,7.3-22.76,3.7-15.7,10.34-30.17,17.23-44.6,2.28-4.77,3.47-9.94,5.05-14.95,3.59-11.37,3.11-23.39,7.46-34.68,8.41-21.8,21.77-39.91,37.73-56.59,9.77-10.2,21.01-18.3,32.58-26.14,5.73-3.89,10.6-9.16,18.78-6.4,6.84,2.3,14.59,2.11,19.97,8.06,4.29,4.75,9.85,7.9,14.9,11.68,12.99,9.75,27.22,18.15,35.31,33.15.77,1.41,2.23,2.46,3.37,3.66,4.45,4.68,7.64,10.08,9.21,16.36,1.85,7.34,5.82,13.37,11.11,18.63,6.87,6.83,14.36,12.62,22.98,17.36,14.91,8.22,28.93,17.8,35.95,34.53,1.14,2.71,3.28,4.99,4.83,7.55,7.57,12.47,17.35,23.66,21.4,38.17.96,3.43,3.17,6.63,5.29,9.59,8.37,11.68,17.79,22.88,28.98,31.48,8.57,6.57,13.56,14.22,17.19,23.54,7,17.95,11.79,36.67,19.37,54.46,13.16,30.91,20.84,63.04,20.94,96.9.03,11.6,2.35,23.01,5.85,34.3,3.6,11.58,3.66,23.64-1.34,35.22-2.79,6.46-3.94,13.32-5.16,20.23-1.92,10.79-2.63,21.8-5.76,32.39-.43,1.44-2.08,3.54.57,4.95,2.33-2.55,2.49-5.63,3.37-8.44,5.58-17.77,7.52-36.44,13.8-54.1,3.31-9.33,4.92-19.81,3.65-29.52-1.29-9.77-1.14-19.8-3.79-29.42-.44-1.59-1.81-3.72,1.36-5.46.88,3.64,1.44,7.16,2.6,10.48,3.36,9.67,4.09,19.98,8.52,29.49,8.84,19,27.37,29.4,39.02,45.96.34-3.54-.43-7.09-2.92-9.03-7.09-5.52-9.98-14.08-15.7-20.53-9.16-10.31-14.83-22.23-18.28-35.68-2.65-10.33-3.92-20.88-6.77-31.16-3.98-14.39-7.79-28.97-9.74-43.73-1.59-11.97-5-23.28-8.15-34.74-3.25-11.87-8.29-23.14-12.52-34.68-5.01-13.71-8.41-28.01-12.98-41.89-3.65-11.09-8.61-21.32-17.32-29.84-14.9-14.6-30.13-29.15-37.63-49.51-3.99-10.84-11.45-20.57-11.2-32.75.22-10.62,1.15-21.23,1.71-31.84.42-8.1,3.86-15.42,6-23.06,1.37-4.86-.03-10.43,3.79-15.7.73,2.12,1.29,3.31,1.55,4.56,3.55,17.47,11.07,32.54,25.15,44.14,4.55,3.75,9.43,8.03,11.6,13.6,5.19,13.33,12.75,25.67,16.41,39.63,1.36,5.16,1.74,5.47,6.43,10-4.65-16.33-5.07-32.22-11.96-47.12-5.71-12.33-11.14-24.67-18.7-35.96-2.92-4.35-7.38-7.45-9.46-12.62-7.5-18.65-12.19-38.47-23.22-55.67-1.33-2.08-3.23-4.36-1.75-7.65,3.38,2.22,6.47,4.64,9.89,6.43,11.77,6.16,23.61,12.2,35.51,18.09,4.9,2.42,9.05,5.45,12.07,10.1,4.17,6.4,7.79,13.44,13.1,18.75,9.68,9.7,15.62,21.46,21.25,33.52,6.62,14.16,17.81,24.25,30.67,35.89-1.33-5.68-2.53-9.71-5.4-11.33-6.44-3.62-8.48-9.86-11.57-15.67-2.2-4.17-4.16-8.36-4.86-13.03-1.14-7.6-6.24-13.85-7.3-21.42-.98-7.05-3.38-13.48-7.17-19.46-1.16-1.83-3.38-3.42-1.11-6.62,4.27.53,8.84,1.17,13.42,1.65,5.71.61,11.06,2.48,16.15,4.96,4.97,2.42,11.8.82,14.94,7.63.88,1.91,5.13,2.08,7.25.02,3.1-2.98,5.99-2.05,9.11-.53,2.8,1.36,5.79,1.16,8.8,1.21,14.91.22,29.51,1.4,43.19,8.63,8.05,4.25,14.57,10.52,22.27,15.01,8.71,5.08,14.49,12.51,19.98,20.53,4.98,7.28,7.02,15.75,10.23,23.75,4.15,10.36,8.31,20.72,12.81,31.91,4.03-4.61,3.08-8.42,1.68-12.19-6.8-18.33-11.02-37.64-20.73-54.87-.82-1.46-1.54-2.97-.9-4.95.77-.21,1.73-.8,2.58-.66,12.44,1.99,25,3.53,37.27,6.3,14.28,3.22,28.68,4.86,43.22,5.28,6.13.18,9.58,4.16,13.57,7.49,3.62,3.03,1.09,6.81.53,10.27-.63,3.93-1.2,7.89-2.12,11.76-5.5,23.07-8.91,46.36-7.58,70.16.37,6.65.99,13.29,1.06,19.93.18,16.78,2.52,33.1,8.04,49.05,7.26,20.94,11.31,42.34,7.84,64.71-.74,4.74-1.67,10.02,1.56,16.6,1.59-6.71,2.32-11.65,3.94-16.28,5.64-16.1,2.68-32.31.68-48.43-1.01-8.18-2.16-16.82-5.65-24.11-4.29-8.96-4.64-17.87-4.37-27.18.48-16.31,1.08-32.61,1.56-48.92.54-18.34,6.96-35.09,13.85-51.71.6-1.46,1.37-3.69,3.33-2.99,5.93,2.12,13.17,1.01,16.88,8.57,3.64,7.41,8.56,14.22,13.23,21.08,3.74,5.5,7.52,11.07,11.99,15.95,15.57,16.98,29.13,35.31,39.81,55.75,2,3.83,4.18,7.59,6.55,11.21,3.68,5.59,6.33,11.65,9.23,17.65,6.65,13.73,13.34,27.44,21.6,40.38,6.94,10.89,13.93,21.85,18.52,34.13,6.41,17.14,9.12,35.49,17.47,52.01,1.74,3.45,2.07,7.71,2.58,11.66,1.26,9.55,2.7,19.06,2.91,28.77.15,7.26.52,14.65,2.9,21.71,2.25,6.67,2.83,13.6,3.41,20.62.9,10.83,2.37,21.47,6.34,31.97,3.01,7.94,7.39,15.99,8,24.39.92,12.57,4.02,24.8,6.12,36.99,2.72,15.85,7.19,31.73,12.03,47.3,5.6,18.04,11.32,36.01,15.44,54.51,2.07,9.32,5.34,18.42,6.93,27.93.35,2.15,1.65,4.06,3.93,3.56,2.8-.61,1.63-3.22,1.34-4.96-.85-5.24-2.14-10.42-2.95-15.67-2.88-18.71-4.47-37.71-8.7-56.11-6.34-27.64-10.83-55.41-12.64-83.69-.46-7.25-1.2-14.67-3.23-21.6-5.6-19.14-5.5-39.2-10.31-58.51-2.42-9.73-4.49-20.07-2.26-30.48,3.14-14.71,4.68-29.5,1.55-44.46-.49-2.36-1.16-4.96.19-7.35,4.02,1.09,4.92,4.21,6.64,6.54,10.66,14.36,19.83,29.81,33.55,41.85,8.01,7.04,14.17,16.26,17.88,26.19,4.29,11.47,9.34,22.84,10.9,35.22.3,2.31.42,4.96,3.41,6.31,1.01-3.94.21-7.24.18-10.54-.11-12.59-6.72-23.59-8.56-35.76-1.16-7.7-4.72-14.33-9.17-20.74-7.75-11.17-15.29-22.42-25.65-31.42-2.07-1.8-3.21-4.16-4.23-6.67-4.87-11.96-13.73-21.33-22.25-30.4-5.55-5.9-11.06-11.95-14.2-18.87-8.44-18.65-19.69-35.38-31.79-51.66-5.24-7.05-6.69-15.87-11.41-23.18-14.84-22.93-26.89-47.48-40.74-70.97-6.68-11.34-13.31-23.06-23.52-32.05-12.84-11.28-22.8-25.07-32.79-38.79-2.01-2.75-4.37-5.52-5.29-10.18,17.38,10.31,33.7,19.93,52.21,25.04,8.06,2.22,15.37,6.21,22.57,10.5,14.35,8.55,29.72,14.89,45.59,20.13,11.94,3.95,23.77,8.27,35.43,12.98,9.88,3.98,18.32,11.3,28.13,14.91,21.83,8.04,37.13,22.51,48.24,42.36,2.17,3.87,3.69,7.59,4.1,12.07,1.48,16.22,2.55,32.42.35,48.66-.26,1.94-.03,3.95-.03,5.93,5.18-9.95,7.15-20.26,8.41-30.85,2.08-17.3,3.83-34.35-6.58-50-2.32-3.48-.51-6.12,3.73-6.7,2.16-.3,3.83.89,5.68,1.53,4.72,1.62,9.3,4.16,14.14,4.83,15.5,2.15,30.47,7.27,46.19,8.06,7.69.39,13.04,4.17,16.56,11.01,2.43,4.73,4.64,9.86,8.78,13.26,7.52,6.18,11.35,13.67,10.47,23.45-.06.64.2,1.31.26,1.98,3.32,33.83,11.19,66.96,15.57,100.63,1.12,8.61,3.16,17.17,7.92,24.57,8.38,13.04,11.98,28.13,18.42,41.99,1.37,2.95,2.2,6.43,2.23,9.68.19,18.63,1.92,37.25-.2,55.9-1.02,8.9-1.92,18.01-1.22,26.89,2.06,26.31,8.21,51.84,16.75,76.78,1,2.93,1.47,6.29,6.01,10-2.61-9.82-.22-17.61-1.72-25.64-3.22-17.29-5.45-34.76-6.83-52.32-.6-7.63-1.07-15.26-1.5-22.9-.2-3.7.25-7.26,2.27-10.57,3.76-6.13,5.07-12.93,5.22-20.06.19-9.64,1.19-19.32.62-28.91-.58-9.77,2.44-19.36-.83-29.39-3.56-10.91-7.4-21.76-10.68-32.78-.36-1.19-1.34-2.29-2.26-3.21-7.91-7.91-11.57-17.59-12.35-28.6-.69-9.65-2.66-19.08-4.61-28.56-2.86-13.86-5.35-27.84-6.33-44.55,4.75,5.27,8,8.89,11.26,12.49,10.94,12.11,21.22,24.9,33.03,36.09,8.97,8.5,17.97,16.82,25.11,26.91,7.6,10.72,17.28,19.37,27.11,27.84,3.35,2.89,6.05,6.03,8.55,9.6,13.2,18.87,24.56,38.8,34.29,59.64,2.93,6.29,7.03,12.13,7.68,19.38.7,7.66,2.87,15.04,4.92,22.42,3.58,12.89,6.39,25.85,5.14,39.38-.37,3.98.06,7.95.76,11.93,1.88,10.5,2.86,21.1,2.81,31.78-.1,22.63-3.03,45.18-2.01,67.85.35,7.65.96,15.43.02,22.97-1.92,15.48-.32,30.8,3.35,45.52,5.23,20.95,6.62,42,6.79,63.36.1,13.06,2.58,25.71,7.05,38.09,8.62,23.85,15.23,48.22,16.87,73.71.13,2.03-.22,4.37,1.55,5.94,2.65-1.69,2.74-3.83,3.03-5.73,1.94-12.48,2.81-24.7,1.18-37.61-1.51-11.92-3.52-23.71-6.63-35.1-2.61-9.56-5.32-19.1-7.42-28.79-2.4-11.01-3.95-22.1-.22-33.31,3.01.96,3.63,3.81,5.17,5.85,6.97,9.31,11.63,20.25,20.1,28.51,1.88,1.84,3.66,5.03,6.38,4.17,7.88-2.5,9.69,3.23,12.46,8.13,1.3,2.29,2.61,4.97,4.66,6.38,11.93,8.22,21.1,19.24,30.93,29.59.29.3,1.16.04,3.12.04-3.45-7.95-5.19-15.81-11.31-22.07-7.95-8.14-13.75-17.62-17-28.84-1.89-6.52-4.06-14.03-10.82-17.31-5.62-2.72-8.48-7.25-11.36-12.05-9.8-16.3-16.98-33.5-22.23-52-8.78-30.99-15.08-61.97-13.48-94.36.44-8.86,1.91-17.37,6.01-24.98,3.03-5.62,3.71-11.29,3.96-17.26.76-18.02-.58-35.92-3.46-53.7-2.86-17.68-7.35-35.16-5.17-53.38.46-3.82-.76-7.93-1.68-11.79-5.06-21.06-14.63-40.51-23.52-59.98-6-13.14-10.8-26.37-14.65-40.14-2.25-8-4.26-16.67-9.47-22.92-12.76-15.32-18.03-33.48-20.53-52.26-3.51-26.34-11.89-51.26-20.88-75.85-4.87-13.35-6.84-26.91-9.86-40.46-3.32-14.89-4.92-30.11-9.75-44.75-2.44-7.36-8.2-13.11-9.15-20.92-.88-7.35-3.54-14.16-5.97-21.03-1.25-3.53-2.25-7.09-1.99-10.73.65-9.01-1.31-17.75-2.15-26.6-.18-1.99-1.85-4.57,1.44-6.52,5.19,4.43,10.3,8.85,14.41,14.62,13.41,18.88,29.53,35.08,49.5,47.08,6.06,3.64,11.67,7.76,16.57,12.75,16.39,16.67,29.94,35.59,43.01,54.88,2.12,3.12,3.28,7.17,7.61,8.35.19-.5.47-.85.39-1.08-8-24.56-20.89-46.69-34.87-68.14-5.94-9.11-12.29-18.2-20.83-25.28-14.24-11.81-29.79-22.24-40.69-37.59-9.58-13.49-20.34-26.18-28.1-40.91-1.71-3.24-2.58-7.14-4.93-9.76-5.73-6.4-5.74-13.75-5.23-21.52.78-11.94.95-23.89,1.84-35.84,1.31-17.59,2.95-35.14,5.13-52.61,1.72-13.78,5.69-27.29,7.43-41.07,1.9-15.15,2.36-30.48,3.51-45.73.3-4.01-.16-7.93-.53-11.92-1.09-11.54-4.14-22.9-2.53-34.7,2.56-18.84,2.63-37.79,1.74-56.75-.07-1.49-.55-3.31,1.25-4.46,2.94.45,3.04,3.23,3.92,5.13,3.93,8.45,7.34,17.16,11.54,25.46,4.57,9.04,7.33,18.51,8.99,28.43,4.6,27.55,9.3,55.08,14.06,82.6.46,2.65.16,5.87,3.16,7.68,1.37-1.87,1.03-3.56,1.12-5.21,1.02-20.41-2.37-40.43-5.59-60.43-2.1-13.05-3.8-26.12-6.71-39.13-2.65-11.86-6.54-22.66-11.47-33.47-5.54-12.15-9.63-24.83-10.47-38.22-.88-13.97-2.57-27.83-4.34-41.68-1.72-13.54,2.22-25.65,12.58-33.76,10.09-7.89,21.39-14.75,33.72-18.97,9.21-3.15,17.88-7.27,26.09-12.32,3.37-2.07,6.43-2.62,10.3-2.24,12.37,1.2,24.02,5.1,35.89,8.37,8.71,2.41,9.33.31,10.71,12.45,1.41,12.33,5.65,23.12,13.85,32.49,3.27,3.74,6.12,7.9,8.77,12.12,15.3,24.31,32.78,46.83,53.82,66.51,7.81,7.3,14.31,15.72,19.94,24.87,3.54,5.76,4.32,12.55,7.81,18.28,9.51,15.59,18.01,31.68,25.44,48.42,7.69,17.31,16.76,34.01,25.17,51,5.48,11.1,9.24,22.78,11.67,34.91.39,1.89.42,4.07,2.9,4.84,2.23-1.95.93-4.09.46-6.26Zm-359.94-1844.93c3.62,20.96.44,41.3-5.05,61.42-2.1-20.82.14-41.24,5.05-61.42Zm14.51,1643.19c1.93,2.92,1.92,6.2,1.96,9.51.04,2.65-.24,5.47.53,7.93,4.27,13.58,1.51,27.72,3.53,41.42,3,20.33-1.83,40.4-1.25,60.65.31,10.72.98,21.3,4.47,31.47,2.02,5.88,1.81,11.8,1.28,17.78-.77,8.6-1.35,17.29-2.58,25.77-4.77,33.05-9.87,66.07-18.04,98.76-6.21-11.98-8.52-24.77-9.56-37.61-2.79-34.4-4.58-68.87-7.43-103.26-.95-11.52-5.06-22.61-9.06-33.44-5.09-13.77-7.73-28.11-11.06-42.3-.53-2.26-.42-4.73.67-6.87,4.34-8.53,8.02-17.23,14.59-24.72,10.68-12.17,21.98-24.14,27.85-39.8.76-2.01,1.2-4.65,4.1-5.29Zm-421.4-240.01c-2.95-3.7-5.18-7.68-5.08-12.62.06-3.16,1.24-4.72,4.74-4.83,16.1-.48,31.01-6.53,46.03-11.24,7.45-2.34,14.82-7.47,19.22-15.14.81-1.41,1.46-3.9,4.78-3.08-16.13,24.67-39.47,43.76-53.13,71.24-2.37-10.5-10.48-16.71-16.56-24.33Zm13.95,486.72l-.36.78c-.27-.42-.71-.82-.75-1.25-.03-.38.39-.79.62-1.19.16.55.32,1.1.49,1.66Zm-58.36-214.24c2.2,15.74,3.02,31.67,4.42,47.52.18,1.98.27,3.98.17,5.97-.06,1.44-.97,2.6-2.51,2.35-.79-.13-2.04-1.12-2.04-1.73-.06-5.37-3.72-8.24-7.35-11.21-.72-.6-1.63-1.58-1.62-2.37.13-8.3-5.34-14.89-6.79-22.69-1.51-8.14-3.23-16.24-4.6-24.4-1.69-10.1-.08-19.33,4.96-28.68,7.41-13.71,15-27.41,20.85-41.94.95-2.35,1.52-5.17,4.67-6.88.69,7.44-2.98,13.61-4.61,20.1-5.3,21.07-8.6,42.1-5.55,63.96Zm-1.19-108.15c-2.21,5.49-4.77,10.85-7.59,17.22-4.02-4.05-2.33-8.24-3.12-11.74-.89-3.88-1.58-7.81-2.25-11.74-1.52-8.83-.55-17.99-3.52-26.63-3.99-11.61-7.34-23.43-12.75-34.55-4.15-8.55-6.69-18.1-13.21-25.17-5.93-6.42-9.96-14.03-15.08-20.92-.8-1.07-1.85-2.05-2.3-3.25-5-13.45-15.55-21.28-27.01-28.98-9.72-6.52-19.16-13.85-26.84-23.03-3.32-3.97-5.23-8.71-5.87-13.4-1.18-8.67-4.8-16.57-6.96-24.9-1.3-5.02-4.69-9.8-6.78-14.97-4.6-11.35-4.12-23.33-5.07-35.02-.48-5.93-.04-12.39.83-19.15,8.05,2.97,12.95,8.06,17.12,13.61,10.87,14.49,24.76,24.92,41.25,32.02,10.74,4.62,22.24,6.63,33.54,9.32,3.53.84,7.24.85,10.5,2.89,12.67,7.9,25.63,15.31,37.97,23.79,12.4,8.54,18.13,21.02,22.15,34.53,1.97,6.63,2.93,13.58,4.78,20.32,4.65,16.87,2.52,34.32,3.79,51.49.12,1.6-.16,3.39-.8,4.86-7.38,17.04-11.27,35.37-20.19,51.91-5.32,9.89-8.36,20.99-12.59,31.49Zm-178.39-39.86c.71,9.24.14,18.59.02,27.89-.02,1.86.39,4.1-2.36,5.55-15.35-50.7-16.82-100.75,5.25-151.82,0,12.31.73,23.14-.14,33.85-2.31,28.14-4.97,56.22-2.77,84.53Zm-252.24-48.94c-.36-2-.16-3.91.88-5.77,9.39-16.82,17.68-34.17,25.1-51.95.21-.52.96-.83,2.49-2.07,2.85,14.49,4.7,28.21,6.15,42,1.13,10.88,2.23,21.63,1.27,32.71-1.5,17.3-5.37,34.06-10.1,50.58-2.08,7.26-1.99,14.92-4.61,22.51-3.37-1.35-3.83-3.94-4.73-6.28-2.28-5.89-4.45-11.88-11.16-14.38-3.59-1.34-3.23-4.75-3.53-7.62-1.04-9.93-1.04-19.9-1.01-29.88.03-9.95,1.02-19.94-.75-29.85Zm20.2-95.81c-6.01,20.64-14.06,40.6-23.74,62.23-2.41-10.71-2.02-19.52-.94-28.14,2.32-18.45,4.83-36.9,8.12-55.21,4.34-24.21,10.04-48.22,12.17-72.75,2.29-26.49,11.76-51.1,18.92-76.26,3.67-12.92,8.42-25.81,15.09-37.69-2.05,15.55-.79,30.63,1.69,45.84,1.71,10.47-.23,21.24-1.38,31.77-.64,5.95-1.75,11.97-1.3,17.84,1.45,18.5-3.54,35.66-10.28,52.37-7.87,19.51-12.5,39.92-18.35,60Zm-27.17-693.63c-.19-.81.43-1.8.68-2.72,3.81-.28,6.4,2.1,9.15,3.79,12.45,7.63,25.11,14.97,37.08,23.3,12.52,8.71,24.32,18.45,36.47,27.69,3.57,2.71,5.78,6.52,7.84,10.23,8.02,14.5,17.94,28.12,22.73,44.18,3.13,10.48,4.45,21.49,7.51,31.99,2.69,9.21,1.95,18.04,1.11,27.41-2.14,23.73-11.64,45.33-17.03,67.83-4.36.78-6.3-2.02-8.03-4.12-7.37-8.95-14.76-18.17-23.91-25.05-12.62-9.5-21.62-22.37-33.37-32.57-8.99-7.81-15.5-17.3-18.12-29.12-.75-3.38-2.99-5.89-4.56-8.79-8.14-14.99-15.7-30.15-13.88-48.07.44-4.29.02-8.6-1.31-12.82-1.21-3.84-1.32-7.85-1.06-11.87,1.35-20.47,3.42-40.95-1.3-61.29Zm52.09-189.69c12.69,2.89,22.93,10.34,33.88,16.48,3.09,1.74,6.06,4.27,5.85,8.63-.11,2.31,2.18,3.2,3.07,4.85,4.3,7.88,12.34,13.04,15.57,21.76.71,1.9,3.15,3.42,5.11,4.55,8.01,4.61,14.21,11.36,21,17.41,5.8,5.17,9.79,11.7,13.64,18.32,2.25,3.87,1.99,7.01-1.32,10.69-10.5,11.64-21.81,22.36-34.17,32.01-3.2,2.51-6.52,4.82-10.49,5.53-11.42,2.05-22.46,5.63-34.1,7.02-9.77,1.17-19.19,5.04-28.86,7.31-12.9,3.03-24.89,2.11-34.59-8.6-4.88-5.38-11.51-7.62-18.63-8.71-6.87-1.05-13.79-1.75-20.05-5.51-3.76-2.26-6.55-4.73-6.28-9.27.82-13.5-4.96-25.28-9.42-37.43-2.53-6.87-4.29-13.89-5.45-21.19-2.15-13.49,3.41-25.59,6.03-38.13,2.03-9.71,4.84-19.34,7.38-28.99,2.93-11.1,12.14-18.17,23.75-18.63,1.66-.06,3.32-.01,4.54-.01,8.49-1.76,15.5.69,22.15,5.09,12.65,8.38,26.76,13.49,41.39,16.82Zm-25.4-21.91c1.39-4.99,6.75-2.51,10.35-2,11.9,1.67,22.09,6.94,30.5,15.56.89.92,2,1.79.74,4.01-11.18-4.05-23.69-4.06-34.48-10.3-3.13-1.81-8.07-3.84-7.11-7.27Zm172.43,508.74c8,15.76,10.34,33.42,17.85,49.47-2.52,1.78-4.16,1.35-5.59.54-10.88-6.23-21.69-12.61-32.61-18.76-2.14-1.21-3.43-2.88-4.9-4.7-2.41-2.98-1.94-4.53.8-7.3,7.29-7.34,16.18-12.5,24.45-19.25Zm-10.1-21.35c.14-3.53,1.35-5.96,4.18-8.84,2.11,5.3.31,7.4-4.18,8.84Zm74.65-546.39c-3.34-9.41-7.69-18.68-8.27-29.34-.77-14.23,1.38-28.39-.06-42.55-.74-7.21,2.23-12.89,7.18-18.36,12.91,10.48,17.78,24.55,22.02,38.97,1.97,6.69,3.61,13.47,6.36,19.93,5.94,13.93,3.34,28.08.11,41.99-2.12,9.15-3.29,18.24-3.22,27.63.08,8.98-.74,17.93-3.95,26.52-.97,2.59-1.52,3.92-4.73,2.81-3.44-1.19-.9-2.55-.87-4.17.16-8.98.2-18.34-5.13-25.91-4.37-6.22-5.45-12.61-5.13-19.72.29-6.38-2.18-11.83-4.31-17.8Zm49,48.29c-1.7-9.59-.04-17.84,3.51-25.97,7.47-17.15,6.62-33.93.27-51.16-3.15-8.54-4.8-17.62-7.21-26.79,4.38.18,6.66,2.24,8.95,4.1,5.78,4.66,12.41,7.92,19.25,10.34,5.54,1.97,10.31,4.69,14.13,8.93,10.17,11.29,23.31,15.85,37.89,17.75,9.56,1.24,18.22,5.3,28.53,9.67-18.33,19.86-29.62,41.66-39.19,64.37-6.81,16.16-18.65,27.62-33.58,35.38-17.48,9.09-28.66,23.38-37.47,40.06-8.12,15.38-13.35,31.82-15.89,49.08-.13.92-.63,1.78-2.45,2.64,0-5.92-1.24-12.18.29-17.67,2.34-8.39,2.82-17.23,2.97-25.34.2-11.07,4.27-21.18,4.5-32.16.23-10.72,2.41-21.66,9.62-30.85,7.49-9.56,7.81-21.5,5.88-32.38Zm149.09-166.17c-9.07-4.2-14.59-12.42-21.62-18.82-7.71-7.01-15.95-11.46-26.28-12.16-3.75-.26-8.01,1.26-11.66-3.43,8.8-1.55,16.86-3.3,25.02-4.34,14.49-1.86,29.01-3.97,43.58-4.72,13.57-.69,26.13,2.78,36.63,12.57,14.88,13.86,27.96,29.42,42.42,43.67,13.66,13.46,28.84,24.52,46.84,31.41,9.42,3.61,19.55,3.69,31.37,5.96-11.29,6.32-20.77,11.61-30.23,16.94-6,3.37-12.68,3.43-19.27,4.37-15.14,2.16-30.25,4.49-45.47,6.13-10.27,1.1-20.61,1.62-30.83,1.29-15-.5-29.95.69-44.93.05-5.73-.24-11.12-1.2-16.38-3.73-23.92-11.47-43.97-28.41-64.1-45.19-4.34-3.61-6.97-8.9-9.51-13.96-6.31-12.52-16.36-21.77-27.24-29.88-4.88-3.63-8.88-8.34-9.99-13.02-2.15-9.07-7.77-16.13-10.96-24.45-.67-1.75-2.53-3.22-1.09-6.23,5.4,1,9.79,4.76,14.87,6.71,4.97,1.91,9.93,3.9,14.7,6.26,9.32,4.61,18.87,8.25,29.38,8.92,5.02.32,9.77,1.59,14.28,4.04,5.86,3.18,11.96,5.27,18.88,5.77,11.93.85,20.65,8.74,29.21,16.02,9.19,7.83,19.81,13.34,30.02,19.9-1.03-4.52-3.57-8.19-7.64-10.08Zm333.83,1086.24c9.69,17.68,18.97,35.89,17.43,57.33-.37,5.18,1.16,10.54,2.1,15.76,4.81,26.77,3.75,53.65,1.78,80.57-.84,11.42-1.44,22.86-2.2,35.23-5.14-3.39-5.43-8.58-8.18-12.15-11.56-15.04-19.35-32.29-28.29-48.86-5.38-9.97-12.27-19.04-18.87-28.09-9.57-13.14-16.02-27.57-21.78-42.41-6.07-15.68-16.28-27.91-28.48-39.08-8.4-7.69-17.91-13.44-27.44-19.44-11.69-7.37-18.83-17.81-20.23-32.38-1.04-10.86.07-22.24-4-32.55-6.1-15.42-7.38-31.62-9.34-47.74-1.51-12.4,1.12-24.62,3.59-36.58,3.92-18.98,10.91-37.14,17.12-56.78,7.32,5.37,10.06,12.33,13.38,18.68,2.96,5.65,6.31,10.94,10.22,15.92,7.03,8.93,12.51,18.71,16.79,29.27,6.45,15.94,16.47,29.73,28.23,41.97,15.27,15.88,26.16,33.94,33.42,54.71,5.84,16.69,16.28,31.18,24.75,46.62Zm-19.54-78.98c6.46,8.79,13.36,17.4,12.16,30.98-8.99-9.59-10.68-20.24-12.16-30.98Zm54.9,96.48c.51.24,1.26.36,1.46.76.17.33-.31.99-.5,1.5-.52-.25-1.19-.37-1.51-.78-.45-.58-.14-1.17.55-1.48Zm-248.11-457.52c5.51,7.83,10.42,15.12,15.64,22.17,11.29,15.26,16.82,33.08,22.65,50.73,2.92,8.87,6.37,17.49,10.33,25.91,4.97,10.59,7.97,21.67,9.46,33.36-1.2-.06-2.14.15-2.37-.15-5.84-8.01-14.49-12.22-22.65-17.17-8.14-4.94-14.67-12.09-18.86-20.24-3.85-7.49-5.3-16.32-7.08-24.71-3.81-17.88-6.75-35.9-6.53-54.29.05-4.81-3.04-9.45-.59-15.61Zm-176.04,292.81c18.22,28.08,31.03,58.76,44.45,89.18,3.87,8.77,4.9,18.2,6.87,27.88-6.21-.91-8.84-5.65-12.73-8.52-10.3-7.59-22.67-10.87-33.96-16.39-2.68-1.3-5.75-1.95-8.17-3.6-5.15-3.52-10.81-5.12-16.86-5.51-14.86-.96-27.72-6.15-38.14-17.06-3.71-3.88-8.38-7.27-13.28-8.66-10.26-2.91-13.77-11.52-16.43-19.5-3.71-11.17-7.51-21.68-15.67-30.59-4.76-5.21-6.84-11.84-3.29-19.36,4.39-9.27,2.88-19.6,3.44-29.41.83-14.52,5.06-27.17,14.04-38.59,4.08-5.19,7.59-11.04,10.27-17.08,8.1-18.28,20.6-33.72,34.73-46.97,13.42-12.59,29.4-22.78,46.45-30.6.85-.39,1.92-.3,2.74-.42,1.41,1.08,1.42,2.21.82,3.58-9.7,22.37-11.28,46.29-12.75,70.12-.7,11.32-1.42,22.64-4.01,33.62-5.76,24.38-2.02,47.09,11.48,67.88Zm-211,139.78c-5.08-6.93-5.48-15.75-10.58-22.32-7.73-9.96-8.57-20.99-6.99-32.85.96-7.22,1.12-14.55,1.75-21.83,1.07-12.41,8.49-22.14,14.2-32.53,1.76-3.2,3.37-6.24,4.46-9.8,3.32-10.77,7.97-21.06,12.77-31.25,1.96-4.16,4.57-7.92,9.23-10.33-2.16,4.96-4.08,10.05-6.52,14.87-7.62,15.05-11.49,31.11-12.58,47.78-1.74,26.81-5.99,53.45-5.75,80.4.05,5.95.01,11.9.01,17.86Zm-52.88-130.72c-2.58-8.63-8.28-15.88-12.57-23.76-13.38-24.56-24.25-50.14-29.83-77.72-.4-1.94-.93-3.93-1.84-5.67-5.19-9.84-4.08-19.97-1.31-30.07,2.73-9.92,6.16-19.6,8.52-29.65,3.03-12.91,21.21-24.8,31.75-25.78,5.61-.52,11.29-.5,16.93-.51,1.95,0,4.02.37,5.84,1.08,22.44,8.74,42.85,20.9,60.76,37.01,4.45,4.01,7.76,9.42,9.14,15.22,3.62,15.15,6.36,30.51,6.96,46.12.28,7.52-2.1,14.08-7.73,19.78-12.12,12.31-23.1,25.53-32.02,40.54-5.65,9.49-11.21,18.93-14.28,29.49-4.97,17.13-15.3,31.18-24.52,46.03-2.8-2.04-3.43-4.88-3.82-7.32-1.95-12.32-8.46-23.02-11.98-34.79Zm8.48,137.15c-1.03-.4-1.48-.43-1.62-.65-1.46-2.31-5.13-3.28-4.28-6.94.08-.33,1.26-.78,1.67-.6,3.48,1.56,3.92,4.56,4.23,8.19Zm-59.35,157.05c.81,2.8,2.42,5.37,2.23,8.5-3.05,1.61-4.74-.62-5.53-2.51-3.27-7.91-7.93-15.12-10.05-23.67-2.06-8.28-6.67-15.82-7.74-24.61-.56-4.58-.24-8.71,2.26-12.38,11.53-17.01,23.16-33.95,34.91-50.81,1.6-2.29,2.64-5.55,6.75-5.86-1.35,10.38-4.59,20-9.61,28.93-9.97,17.72-14.35,37.12-17.08,56.93-1.19,8.66,1.45,17.16,3.86,25.48Zm7.58-116.39c-2.51,4.83-6.97,7.97-10.45,11.95-7.17,8.17-14.97,15.8-22.39,23.53-3.32-.42-2.44-2.9-2.69-4.66-2.63-18.45-3.03-36.92-1.61-55.55.7-9.18-.6-18.56-.94-27.83-.61-16.61,3.19-32.32,7.38-47.97,2.31-8.62,3.8-17.56,8.07-26.16.93,1.52,2.03,2.8,2.55,4.27,3.95,11.09,10.1,21.01,16.75,30.54,8.39,12.02,13.68,25.93,22.89,37.35,4.09,5.07,3.57,9.8,1.08,14.74-6.73,13.33-13.75,26.53-20.64,39.79Zm-41.79-478.55c-.75-3.1-1.81-6.22-1-10.11,4.33,1.35,6.11,4.65,8.53,7.22,9.79,10.39,15.86,23.72,26.36,33.55.97.91,2.3,1.9,1.89,3.27-2.08,6.94-.16,14.32-2.86,21.28-5.86,15.13-9.81,30.83-12.65,46.82-.31,1.76-.09,4.5-2.83,4.47-2.44-.03-3-2.47-3.17-4.37-.5-5.62-.42-11.29-1.11-16.87-2.82-22.68-5.7-45.35-8.89-67.97-.82-5.85-2.87-11.52-4.27-17.29Zm52.5,379.6c-11.05-18.67-18.38-38.75-23.38-59.76-.61-2.58-1.61-5.17-1.6-7.76.03-15.22.3-30.44.52-45.66.02-1.32.19-2.65.35-3.96.16-1.42.82-2.69,2.28-2.83,1.35-.14,2.53.62,3.01,2.07.21.63.55,1.26.56,1.9.24,11.17,6.62,20.12,11.61,29.23,4.71,8.59,7.93,18.14,14.66,25.63,3.43,3.81,5.48,8.45,5.48,13.6,0,23.23,2.04,46.35,3.78,69.48.1,1.3-.16,2.61-2.61,4.44-5.06-9.15-9.63-17.9-14.66-26.38Zm12.41-279.95c.54-1.16.98-2.38,1.64-3.47q5.75-9.54,16.26-1.51c-4.99,4.39-11.68,3.23-17.9,4.98Zm104.92-52.22c-3.35-6.13-1.86-12.61-3.22-18.44-.59-2.53,3.33-3.43,7.5-3.5-1.45,7.56,2.99,15.17-4.28,21.94Zm2.69,20.22c-.8-6.62-1.42-11.1-1.83-15.6-.13-1.42.92-2.37,2.37-2.55,1.15-.15,2.14.73,1.96,1.61-.97,4.8,2.23,10.08-2.5,16.54Zm-13.81,367.75c.72-9.62.56-19.26,1.58-28.85,2.19-20.73,5.09-41.31,10-61.6,2.41-9.96,2.5-20.31,4.19-30.44,1.64-9.88,4.77-19.33,6.72-29.1.55-2.76,1.43-5.79,5.22-8.39,3.93,15.87,6.8,30.79,7.71,46.08,1.22,20.57,2.95,41.11,4.02,61.69.61,11.65-.48,23.27-3.5,34.61-6.08,22.8-11.53,45.73-15.07,69.09-.68,4.49-1.72,9.13-5.28,14.58-1.42-15.84-8.38-28.56-13.05-42.06-2.9-8.4-3.17-17.19-2.54-25.61Zm33.98-308.99c-2.69-3.52.61-8.16,5.11-7.83,2.96.21,6.13.29,8.79,1.42,15.33,6.45,31.72,5.72,48.02,7.99-11.38,6.94-20.93,15.53-27.95,26.48-5.3,8.28-9.5,17.27-14.27,25.9-.89,1.6-.82,4.09-3.94,4.37-.88-4.4-1.94-8.81-2.63-13.28-2.4-15.59-2.85-31.64-13.13-45.05Zm33.29,76.15c8.93-12.18,15.39-25.69,20.64-39.71,5.02-13.43,14.85-21.76,27.09-27.8,11.35-5.59,23.43-9.3,35.51-12.93,1.16-.35,2.53-.58,3.62.58-.08,2.79-2.57,3.73-4.27,5.1-12.74,10.28-23.27,22.59-33.37,35.39-7.6,9.64-15.85,18.76-23.82,28.11-12.91,15.16-19.92,32.76-21.73,52.51-.47,5.18-.7,10.39-2.79,15.42-2.75-1.74-2.68-4.17-2.74-6.46-.34-12.92-.6-25.84-.9-38.76-.1-4.07.3-8.09,2.76-11.45Zm81.82-115.64c-27.2,5.53-54.57,11.57-82.68,10.29-6.93-.31-13.78-2.18-20.7-3.01-4.88-.58-5.96-2.97-5.12-7.48,1.45-7.82,2.07-15.82,3.8-23.56,2.95-13.19,6.29-26.3,9.86-39.34,2.39-8.74,6.86-16.69,12.76-23.43,16.96-19.35,33.4-39.26,53.18-55.89,4.77-4.01,10.7-6.64,16.14-9.84,8.24-4.85,16.51-9.66,24.77-14.48-5.16,15.43-8.04,30.18-8.77,45.65-.53,11.43-5.64,21.76-12.06,31.3-2.71,4.03-6.74,7.37-7.76,13.83,3.83-1.35,6.27-3.03,8.09-5.67,8.15-11.77,15.83-23.8,20.59-37.43.65-1.89,1.59-3.77,1.75-5.71,1.9-24.27,14.67-43.49,28.07-62.72,8.89-12.75,20.36-22.76,31.45-33.18,7.02-6.6,16.18-10.29,24.99-14.21,3.36-1.5,5.42-.92,6.49,2.66,2.87-2.83,5.34-1.11,7.91.59,9.76,6.49,18.05,14.51,26.08,23.06,10.94,11.67,18.45,25.88,29.67,37.45,6.42,6.62,9.96,16.36,13.15,25.5,2.47,7.07,4.86,14.16,7.25,21.25.99,2.95.94,6.03-.28,8.79-8.84,20.11-17.12,40.72-34.66,55.25-22.88,18.94-47.3,35.44-75.89,44.76-2.84.92-5.8,1.76-8.75,1.96-23.7,1.66-46.25,8.91-69.33,13.61Zm-26.8-415.54c3.38-3.99,6.54-8.2,10.17-11.95,10.15-10.47,16.97-23.04,22.44-36.27,3.16-7.64,3.83-16.14,4.39-24.4.62-9.02,1.49-17.89,5.41-26.2.41-.89.75-1.91.76-2.88.22-19.57,13.63-32.59,23.54-47.3,5.02-7.44,10.68-14.38,17.28-20.58,4.14-3.9,8.19-7.68,13.37-10.27,4.73-2.37,9.22-5.18,13.21-8.85,4.94-4.55,10.58-5.65,17.51-3.92,14.78,3.68,29.56,7.21,45.22,3.4,6.18-1.5,13.23.94,19.25,3.82,11.7,5.59,23.18,11.46,33.41,19.76,10.13,8.22,22.16,13.37,34.42,17.75,2.52.9,5.01,1.72,8.04,4.02-1.49,1.93-2.31,3.39-3.49,4.46-12.33,11.11-24.56,22.35-37.18,33.12-3.7,3.15-8.78,4.62-12.84,7.42-8.22,5.69-15.52,12.42-22.16,19.99-6.35,7.25-13.54,13.75-20.38,20.56-8.72,8.68-17.5,17.26-25.76,26.44-9.53,10.58-20.52,19.86-30.89,29.69-2.41,2.29-5.13,4.3-7.26,6.83-13.94,16.59-31.73,28.1-50.12,39.04-9.39,5.58-17.46,13.16-25.62,20.46-5.42,4.85-10.7,9.85-16.22,14.58-5.39,4.63-21.39,4.78-28.59-.1-8.77-5.96-17.08-12.59-25.76-18.69-3.48-2.45-4.78-5.31-3.72-9.35,3.26-12.35,2.95-25.02,3.67-37.62.3-5.23,1.71-10.51,3.34-15.53,3.82-11.79,2.55-24.31,6.33-36.23,7.49-23.61,21.24-41.53,43.23-53.1,4.95-2.6,9.61-5.73,14.36-8.6,1.33,1.84,1.45,3.64.83,5.07-5.83,13.41-5.99,27.81-7.4,41.98-1.36,13.65-6.25,25.65-15.3,36.08-4.09,4.71-7.74,9.94-7.49,17.37Zm307.75-221.67c-6.67,11.65-10.07,24.56-15.35,36.72-2.35,5.44-4.52,10.94-7.88,16.43-11.64-9.38-25.36-11.98-38.7-15.48-12.52-3.29-24.98-6.66-35.37-14.96-3.28-2.63-7.48-3.48-11.23-3.46-6.92.02-13.32-2.89-20.3-2.57,3.29-2.65,7.03-2.85,10.86-3,13.61-.52,27.22-.96,40.81-1.81,10.25-.64,19.04-5.38,27.26-11.15,2.19-1.53,4.21-3.49,6.83-3.95,10.48-1.82,19.12-7.35,27.37-13.51,9.85-7.37,21.07-6.44,34.35-6.67-7.43,8.78-13.99,15.26-18.65,23.41Zm46.27-25.25c2.52,2.16.24,3.72-.49,5.16-10.26,20.27-24.33,38.09-36.96,56.82-2.9,4.3-6.13,9.2-11.94,10.64-.05.12-.11.24-.16.36-.09.06-.19.13-.29.19-.06.46-.12.93-.26,1.37-.26.85-.64,1.68-1.78,1.45-.16-.04-.42-.55-.35-.64.33-.49.72-.95,1.16-1.33.37-.33.81-.59,1.23-.85.02-.15.04-.31.07-.46.13-.03.26-.06.38-.09,5.46-12,9.84-24.65,16.74-35.74,8.68-13.95,17.75-28.15,32.65-36.88Zm-196.16,301.79c-2.51-20.44.91-39.79,11.38-57.57,8.28-14.05,18.8-26.47,31.49-36.66,12.72-10.21,21.19-23.78,30.57-36.59,3.2-4.36,6.57-7.93,10.74-11.26,10.61-8.48,20.85-17.43,32.41-24.66.85-.53,1.64-.95,2.72-.38,1,2.36-.28,4.46-1.04,6.57-6.63,18.53-10.24,37.76-13.9,57.04-5.47,28.77-12.16,57.23-27.48,82.79-7.55,12.62-16.72,24.1-26.85,34.53-12.28,12.65-23.38,26.21-34.54,39.78-5.58,6.78-12.17,12.68-16.96,20.4-3.21-17.74-2.18-34.5.99-51.19,1.44-7.54,1.41-15.18.47-22.8Zm94.01,147.47c1.69-18.52,5.93-36.71,7.24-55.29.56-8,.22-15.92-1.49-23.71-4.12-18.72-4.24-37.23-.89-56.27,5.16-29.29,16.73-56.64,23.89-85.27.11-.44.88-.72,1.81-1.42,2.56,10.3,2.77,20.67,2.36,30.77-.78,18.84,1.98,37.19,5.86,55.37,1.93,9,2.96,17.81,1.1,26.61-3.44,16.28-2.58,33.16-7.12,49.21-2.77,9.83-3.12,20.4-8.73,29.4-.5.82-.75,1.85-.89,2.82-2.74,18.58-14.22,33.06-22.82,49.06-1.41-7.2-.97-14.23-.32-21.28Zm-142.19-119.99c-1.6,16.18-7.44,31.66-7.82,48.03-.08,3.38-1.8,5.54-5.27,6.25-11.54,2.38-22.01,2.58-33.13-4.34-8.09-5.04-14.64-11.89-22.95-16.52-6.84-3.8-6.77-9.17-1.26-15.21,2.9-3.17,5.49-6.62,8.14-10.01,5.03-6.45,12.12-10.29,18.86-14.4,19.07-11.63,35.26-26.87,52.36-40.98,2.24-1.85,3.89-4.6,7.75-4.21,1.15,6.09-2.19,10.94-4.71,15.8-5.84,11.28-10.71,22.84-11.97,35.59Zm2.53,85.02c-1.22,5.32-4.49,5.76-7.9,9.18,1.87-4.73,3.73-6.67,7.9-9.18Zm11.57-70.38c1.46-5.83,6.07-10.26,5.61-16.5,3.73.23,3.14,2.83,3.46,4.47,1.44,7.33,3.71,14.43,5.52,21.64,3.78,15.02-1.67,28.66-8.4,42.51-6.66-2.97-7.92-7.51-8.57-13.75-1.37-13.05-.81-25.66,2.38-38.37Zm-90.74,42.84c-11.79.8-21.97,1.81-32.11,7.58-.36-7.24,3.26-8.8,7.1-10.19,9.27-3.34,15.55-2.93,25.01,2.61Zm-13.54,11.72c12.62-1.63,25.82.96,38.28,4.67,9.67,2.88,19.23,5.17,29.36,3.04,1.59-.33,3.35-.38,4.93-.07,1.88.36,2.75,1.74,1.81,3.68-.59,1.2-1.17,2.45-2.04,3.43-7.7,8.82-13.68,18.81-19.78,28.73-1.04,1.7-2.08,3.68-3.66,4.71-12.43,8.1-20.83,20.44-31.89,30-8.21,7.09-18.15,11.03-27.53,15.9-9.41,4.9-19.51,8.45-29.26,12.71-5.82,2.53-11.71,5.26-16.29,9.61-9.44,8.96-21.43,14.63-30.42,24.11-.87.91-2.12,1.46-3.19,2.18-.46-.43-.91-.85-1.36-1.27,5.88-12.96,11.88-25.87,17.6-38.89,5.26-11.99,6.96-24.78,7.66-37.71.3-5.4,1.57-10.1,4.38-14.98,5.69-9.89,12.11-19.28,20.11-27.17,11.48-11.35,25.22-20.6,41.29-22.68Zm131.32,256.96c5.89-2.4,11.83-5.1,16.48-9.14,6.92-6,12.83-13.2,18.93-20.11,1.49-1.68,2.23-4.06,4.09-5.57,13.08-10.69,24.34-23.13,35.37-38.37.71,10.39,1.02,18.89,1.93,27.32,2.48,23.14,4.34,46.26,2.67,69.57-1.02,14.23-.92,14.75-14.56,11.66-16.86-3.81-33.64-7.49-51.01-8.31-5.47-.26-10.85-2.94-16.21-4.7-7.54-2.48-15.02-5.14-24.49-8.39,9.56-5.98,17.98-10.38,26.8-13.96Zm76.3-173.47c-4.83-5.96-7.88-12.8-11.16-19.76-7.47-15.92-16.07-31.61-31.11-41.9-5.36-3.66-6.75-7.86-5.94-13.42,1.83-12.51,4.58-24.7,9.47-36.52,5.2-12.61,13.05-22.44,23.1-31.69,10.38-9.56,20.69-19.74,27.92-32.29.81-1.4,1.81-2.8,4.45-3.28,2.04,3.55.84,7.62.09,11.04-5.34,24.3-2.26,48.29,1.81,72.31,1.45,8.58,1.69,17.37-.16,25.8-5.09,23.2-5.89,46.75-6.78,70.33-.15,3.94-.33,7.85-2.76,13.62-2.41-6.78-5.81-10.4-8.93-14.24Zm61.43,283.76c.83,1.01,1.85,2.11,3.02,2.57,13.85,5.42,12.59,17.24,11.5,28.4-.67,6.78,0,13.99-3.52,20.29-2.43.21-2.87-1.43-3.26-3.07-3.26-13.7-11.5-24.5-20.36-34.92-4.72-5.56-9.75-10.87-14.41-16.48-4.92-5.93-8.5-12.51-8.54-22.33,11.51,10.61,26.17,14.18,35.57,25.54Zm9.61-128.65c-7.87-9.32-10.03-20.92-13.19-31.94-4.38-15.21-13.34-27.43-23.33-38.9-7.04-8.09-10.89-17.24-13.86-27.14-.92-3.1-.35-5.89.81-8.72,9.97-24.35,21.87-47.58,38.57-68.16,3.63-4.47,9.1-7.43,10.04-14.7,5.55,6.2,7.23,11.86,7.23,18.44,0,27.32,2.72,54.45,6.59,81.47,1.79,12.49,4.71,24.76,5.8,37.4,2.1,24.27.36,48.55,1.19,72.8.18,5.29.03,10.6.03,16.56-4.05-1.49-4.39-5.18-5.23-7.9-3.26-10.59-7.49-20.73-14.65-29.21Zm90.24,238.12c-1.48-2.9-3.9-5.34-5.97-7.93-3.35-4.16-7.06-8.34-8.34-13.49-3.1-12.43-11.1-21.77-18.66-31.4-3.96-5.05-6.17-10.8-8.83-16.41,2.77-1.92,3.96.14,5.39,1.25,13.07,10.13,26.62,19.67,38.59,31.15,1.19,1.14,2.56,2.55,4.04,2.83,8.42,1.6,10.82,8.77,12.72,15.13,4.73,15.76,8.38,31.85,12.46,47.8-12.21-8.17-24.6-15.6-31.4-28.93Zm-38.63-144.44c2.48,5.02,4.27,8.65,6.06,12.27-5.06-2.25-9.54-4.75-6.06-12.27Zm-3.27-111.63c-2.3-16.27-4.63-30.62-5.21-45.12.86-.43,1.72-.86,2.58-1.29,5.52,5.94,11.13,11.8,16.52,17.84,2.1,2.34,2.54,5.02,1.09,8.23-3.31,7.3-8.35,13.19-14.98,20.34Zm-12.07-118.61c.11-9.01-2.51-17.62-2.45-26.58.13-17.27-1.77-34.44-2.75-51.66-.52-9.1-4.21-17.37-6.96-25.86-2.55-7.86.46-14.68,2.71-23.96,3.6,7.48,5.04,13.24,6.17,19.06,4.14,21.22,9.81,42.13,13.28,63.49.92,5.61,2.87,11.04,5.86,15.86,4.9,7.9,6.16,16.71,7.38,25.61,1.76,12.82,3.03,25.67,6.24,38.33,3.26,12.83,3.91,26.19,3.86,39.72-20.32-20.67-33.69-44.42-33.34-74.01Zm-15.38-270.67c-1.62,4.09-.96,8.54-.73,12.86.44,7.98-.52,10.58-7.29,19.3-2.89-9.3-4.65-18.28-3.7-27.47.92-8.99.01-17.91.15-26.8.37-22.34-2.11-45.03,7.53-66.59,4.3-9.63,7.84-19.7,11.77-29.55,3.55-8.9,7.72-17.53,8.55-27.45.69-8.23,6.16-14.58,11.5-20.58,5.31-5.96,10.7-11.85,16.24-17.59,11.75-12.22,20.27-26.91,30.74-40.11,7.67-9.65,15.19-19.21,27.9-25.44-1.95,10.45-3.83,19.91-7.65,28.88-9.38,22.03-14.94,45.48-24.33,67.42-8.04,18.78-12.19,39.46-25.59,55.83-3.42,4.18-5.19,9.31-6.48,14.47-2.27,9.12-5.99,17.41-11.13,25.36-11.61,17.93-19.66,37.67-27.48,57.46Zm84.61-289.34c-1.79,6.12-4.46,12.07-10.64,15.06-11.06,5.36-22.08,10.96-34.71,11.69-1,.06-1.99.17-2.98.31-7.22,1-14.01,1.36-21.15-2.18-10.48-5.21-22.62-4.19-33.82-6.8-15.14-3.53-30.85-4.22-45.53-10.29-11.63-4.81-21.57-11.68-30.65-20.1-12.46-11.58-22.78-25.08-33.8-37.94-3.67-4.28-7.23-8.65-11.83-14.16,10.71-1.56,20.11-3.08,29.54-4.24,4.7-.58,9.34-1.54,13.39-3.73,10.63-5.75,22.22-8.6,33.62-12.09,6.99-2.14,13.67-5.07,20.46-7.74,20.52-8.07,41.39-13.78,63.93-9.73,9.31,1.67,15.14,5.62,16.98,15.19,1.05,5.53,2.79,10.95,4.42,16.35,1.94,6.45,4.81,12.48,9.81,17.14,4.97,4.62,8.55,10.21,11.53,16.16,4.47,8.93,10.34,16.93,15.99,25.08,2.57,3.71,6.97,6.78,5.44,12.02Zm-468,416.11c6.63-10.5,10.89-21.96,16.78-34.16,8.72,5.43,16.45,11.79,23.04,19.62,3.57,4.22,7.08,7.85,7.73,14.35.49,4.99,0,7.73-3.46,11.06-7.65,7.38-14.64,15.44-22.28,22.82-7.47,7.21-12.94,16.05-19.7,23.66-12.33,13.87-22.17,29.56-35.52,45.42,4.72-26.06,9.07-50.06,16.88-73.26,3.66-10.86,10.53-20.02,16.53-29.51Zm-14.03,147.33c.43-.42,1.21-.48,3.68-1.38-5.09,10.52-8.89,19.69-14.57,27.93-5.95,8.65-8.68,18.68-11.54,28.56-2.29,7.9-10.33,15.8-18.46,17-2.73.4-3.78-1.18-3.55-3.41.62-5.93.44-12.24,3.47-17.47,11.08-19.1,24.98-36.02,40.97-51.23Zm-81.49,31.82c-8.03,13.79-15.61,27.84-23.4,41.77-.62,1.09-1.51,2.03-3.18,4.25-1.71-9.34-.23-17.44.1-25.35.22-5.18,1.37-10.53,1.8-15.81,1.2-14.61,3.24-29.05,6.38-43.39,3.37-15.43,1.51-31.2,1.59-46.82.04-6.04.48-11.77,3.46-17.48-1.09,16.6.48,32.99,3.56,49.3,2.6,13.78,7.14,27.03,11.16,40.41,1.48,4.91,1.09,8.71-1.47,13.12Zm-1.51-377c-1.09,12.63-7.42,23.29-12.48,34.42-1.95,4.3-5.29,3.22-8.28,1.08-10.66-7.63-19.6-17.13-26.27-28.24-2.44-4.06-6.96-7.16-7.68-12.78,5.78-.82,10.76,1.48,15.95,1.93,11.26.98,22.51,1.91,33.67-.85,3.78-.92,5.47-.01,5.09,4.44Zm-225.88,196.52c.49.4,1.11,1.07,1.1,1.61-.31,15.21,10.49,26.11,15.39,39.3,3,8.08,7.36,15.7,8.94,24.26,1.51,8.19,5.75,15.38,8.54,23.73-3.56.44-5.66-1.22-7.65-2.68-9.6-7.07-18.54-15.01-27.75-22.45-14.51-11.71-19.01-29.35-30.05-42.84-3.6-4.39-.51-9.07,1.13-13.18,3.93-9.88,8.28-19.6,12.76-29.24,1.92-4.12,2.93-8.77,6.98-12.21.63,7.5,4.1,13.99,5.39,21.07.81,4.42,1.21,9.36,5.22,12.63Zm29.43,21.88c-2.4-9.59-7-18.62-10.58-27.92-.95-2.47-2.11-4.96-2.5-7.54-2.83-18.75-2.9-37.7-4.73-58.39,7.05,3.09,10.9,6.66,13.93,11,11.05,15.8,19.23,32.58,18.25,52.65-.57,11.63-.76,23.29-.67,34.93.05,6.8.99,13.58.77,20.6-5.45-8.2-11.96-15.31-14.47-25.33Zm2.11-96.59c8.99,3.87,16.84,9.87,26.56,12.26,23.15,5.68,46.13,9.41,69.21-.23,6.55-2.73,13.46-3.3,20.58-2.56,11.72,1.23,21.25-3.49,29.45-11.51,9.96-9.76,20.25-19.15,31.7-28.5-8.87,51.01-13.54,101.93-28.36,152.29-7.49-6.77-12.72-13.56-16.21-21.54-5.9-13.48-15.64-23.86-27.17-32.32-11.17-8.2-22.97-15.41-35.36-21.99-14.61-7.75-28.84-16.32-43.7-23.76-10.44-5.21-18.34-13.99-26.7-22.14Zm29.13,322.44c-1.63-13.61,4.13-25.18,10.58-37.3,17.24,35.23,17.31,73.67,26.83,111.92-14.77-8.86-27.04-17.2-34.26-31.15,1.34-7.3-4.2-13.4-3.44-20.71.79-7.55,1.21-15.14.29-22.76Zm34.51,93.12c6.61,5.85,8.55,22.66,4.25,30.37-5,8.97-10.68,17.58-14.69,27.09-1.32,3.13-3.25,4.86-6.83,4.36-3.6-.5-3.86-3.18-3.88-5.9-.03-5.18-1.49-9.69-5.04-13.63-1.78-1.96-2.57-4.59-2.69-7.35-.44-9.37-4.06-18.12-5.44-27.25-1.71-11.36-2.42-22.87-3.4-34.34-.14-1.54.68-3.17,1.55-6.86,11.78,13.38,24.33,23.04,36.17,33.51Zm4.69,485.11c.74-7.6,1.73-15.18,2.67-22.76.44-3.47.31-7.19,3.95-10.84,5.52,17.45,11.7,33.17,19.54,48.15,2.9,5.53,6.56,10.95,10.92,15.38,11.14,11.3,14.08,25.71,14.34,40.24.32,17.64.54,35.19,3.25,52.65.14.9-.33,1.9-.77,4.13-5.74-7.22-11.27-13.48-16.01-20.29-6.1-8.77-13.15-16.61-20.56-24.26-8.49-8.76-10.05-20.6-12.75-31.83-.54-2.24.01-4.94-1.04-6.82-7.87-14.09-4.98-28.98-3.54-43.75Zm6.78,165.5c3.92-10.25,10.23-20.26,5.06-33.9,7.63,5.86,10.69,12.58,14.76,18.4,8.16,11.68,16.32,22.94,28.06,31.8,10.76,8.12,19.58,18.81,29.21,28.41.71.71.69,1.79.11,2.73-7.66.61-14.67-1.24-22.13-3.39-11.44-3.3-22-8.99-33.82-11.28-4.66-.9-8.93.89-13.59-.39-4-1.1-6.71-1.51-6.7-6.45,0-2.9-.91-5.91-1.93-8.67-2.2-5.97-1.31-11.31.97-17.26Zm66.51-28.8c-2.31-6.31-4.7-12.5-4.83-19.13-.1-5.06-.5-10.09-1.79-14.82-3.85-14.09-2.45-28.35-2.39-42.6.06-11.64-1.42-23.13-5.05-34.27-.62-1.88-1.26-3.86-1.29-5.8-.26-15.44-3.86-30.31-7.89-45.04-5.78-21.15.58-40.24,9.9-58.55,7.45-14.61,14.04-29.35,16.5-45.67,1.46-9.69,5.83-18.24,10.36-28.13,14.46,12.81,25.32,26.84,33.47,42.99.15.3.42.61.41.9-.52,13.74,10.17,22.58,14.91,34.02,4.57,11.02,8.69,22.32,13.5,33.07,4.83,10.81,7.75,22.54,14.35,32.66,4.13,6.34,7.06,13.08,4.83,21.55-1.69,6.42,1.52,13.08,3.47,19.4,1.31,4.27,1.89,8.29.75,12.68-2.22,8.56-.87,16.71,4.64,23.62,3.11,3.92,3.21,7.83,2.29,12.18-2.45,11.62-2,23.04,2.08,34.26,2.16,5.92,1.43,11.86-.42,17.66-1.03,3.21-1.88,6.3-1.29,9.74,1.74,10.14,3.21,20.33,5.06,30.45.49,2.67.59,5.18.38,7.87-1.02,13.4,1.82,26.47,3.76,39.6.57,3.85,2.12,7.74,4.88,10.81,1.65,1.85,2.38,4.04,2.37,6.41,0,2.87,1.29,6.46-1.49,8.3-2.69,1.77-4.75-1.51-7.01-2.63-12.26-6.03-23.12-14.37-34.85-21.29-1.97-1.17-3.79-2.76-5.35-4.46-13.22-14.36-27.5-28.13-43.91-38.1-15.45-9.37-24.42-21.54-30.35-37.68Zm138.72-50.5c2.5,6.53,5.53,12.91,7.41,19.62,4.08,14.59,10.17,28.03,19.58,40.03,5.18,6.61,7.7,14.73,10.3,22.62,9.85,29.93,24.76,57.11,42.76,82.92,7.72,11.06,14.18,23.35,13.57,37.87-.24,5.71,1.94,11.13,3.64,16.5,3.91,12.38,6.24,25.11,8.74,37.8.52,2.65,1.16,5.15,2.27,7.59,6.06,13.36,8.74,27.86,13.96,41.51.27.71-.41,1.77-.8,3.28-7.89-4.73-11.85-12.19-14.62-19.72-6.42-17.46-17.78-31.83-28.24-46.68-4.88-6.93-10.96-13.34-16.92-19.45-10.88-11.18-15.41-25.48-21.05-39.14-7.11-17.19-11.45-35.42-15.86-53.46-5.75-23.48-14.4-46.29-16.18-70.77-.52-7.11-3.71-14.11-6.23-20.97-4.71-12.79-4.48-25.89-2.33-39.55Zm106.41,97.01c-.93,7.56-1.64,15.02-1.17,22.79.65,10.55-3.74,20.54-6.47,32.66-6.33-10.95-13.46-18.93-18.99-28.35-7.28-12.38-12.06-25.89-19.39-38.16-2.39-3.99-3.9-8.36-4.93-13-1.66-7.45-3.67-14.88-7.4-21.65-2.13-3.87-3.44-7.97-3.76-12.33-.3-4.09-1.64-7.82-3.47-11.38-3.22-6.26-5.71-12.76-6.68-19.75-.86-6.14-5.44-10.47-7.42-16.21-5-14.53-7.21-29.56-10.24-44.5-2.51-12.35-2.36-24.39-.18-36.63.87-4.91,1.05-9.94,2.05-14.82,3.04-14.83,2.04-29.68,1.26-44.63-1.08-20.85-1.28-41.75-1.68-62.62-.06-3.33.23-6.63-.52-9.93-5.22-23.13-.98-45.48,5.98-69.56,6.06,18.74,14.29,34.34,18.79,51.4,1.77,6.72,6.38,12.06,10.68,17.62,10.77,13.91,25.49,22.99,38.94,33.63,1.66,1.31,2.75,2.86,3.79,4.47,9.87,15.38,18.6,31.46,29,46.52,6.76,9.79,8.2,21.61,12.13,32.49,7.15,19.79,7.69,40.37,8.86,60.91.54,9.47-1.75,18.55-5.83,27.04-3.63,7.54-6.97,15.05-7.12,23.64-.03,1.92-.65,4.01-1.56,5.73-9.19,17.47-14.58,36.4-20.46,55.05-2.95,9.37-2.98,19.67-4.21,29.57Zm97.79-408.33c-.25-5.36-1.5-10.82-4-15.3-4.52-8.07-8.03-16.63-12.92-24.58-5.29-8.61-8.18-18.73-11.9-28.27-4.56-11.72-10.52-22.58-16.81-33.51-6.03-10.48-11.7-21.79-11.89-35.12-.2-14.01,4.07-26.7,8-40.92,7.58,8.82,13.22,17.68,19.23,26.63.42-8.89-.39-17.8-5.91-24.72-11.24-14.09-11.25-30.24-9.35-46.49,1.19-10.1,1.6-20.57,6.4-30.08,2.15-4.27,4.08-6,9.15-4,12.2,4.81,25.03,5.45,38.1,6.18,21.23,1.19,42.01,5.28,61.34,15.4,11.15,5.85,23.09,10.31,34.96,14.63,4.71,1.71,6.27,4.4,6.39,8.7.62,21.33,10.02,39.07,23.26,54.91,7.87,9.41,13.06,19.95,16.92,31.36.74,2.21.98,4.62,1.97,6.69,5.9,12.36,3.23,23.81-3.1,35.12-5.18,9.28-9.91,18.81-14.97,28.16-1.26,2.31-2.68,4.78-4.65,6.43-7.98,6.71-14.44,15.04-20.15,23.35-8.48,12.32-19.57,21.7-30.2,31.61-6.97,6.48-10.16,15.67-17.42,21.73-1.51,1.26-2.41,3.51-4.08,4.31-14.45,6.89-29.29,12.49-45.72,11.9-3.78-.13-5.8-1.6-6.59-5.8-2.39-12.72-5.45-25.31-6.06-38.32Zm164.7,186.04c4.37,9.39,6.44,19.29,7.25,30.52-7.51-2.72-10.74-9.03-15.67-13.1-7.9-6.53-16.97-10.04-26.05-14.11-14.48-6.49-30.08-10.56-43.32-19.84-2.79-1.95-5.36-3.92-6.91-6.94-4.5-8.74-11.69-15.25-18.46-22.06-2.15-2.16-3.73-4.6-5.53-6.95-2.56-3.32-2.89-6.1-.71-9.94,4.09-7.19,7.71-14.64,12.58-21.39,2.93-4.07,4.65-8.77,6.66-13.35,5.07-11.55,10.3-23.03,15.84-34.36,3.07-6.27,7.38-11.78,11.71-17.31,14.4-18.36,26.14-38.46,36.95-59.09,2.76-5.28,5.73-10.3,9.06-15.27,1.8,1.53,1.38,2.91,1.05,4.02-4.92,16.16-5.24,32.71-3.98,49.32.52,6.87-1.3,13.08-3.34,19.43-6.26,19.49-5.83,38.53,4.53,56.7,3.35,5.88,5.05,12.39,6.49,18.8,3.78,16.8,7.3,33.67,5.49,51.15-.89,8.58,2.85,16.21,6.36,23.77Zm-130.66,57.39c2.87-16.92,3.22-34.27,4.62-51.43.42-5.13.67-10.26,1.04-16.13,5.25,6.18,12.78,23.51,14.38,31.92,3.26,17.09,1.31,33.94-3.34,50.36-3.3,11.65-8.27,22.83-12.49,34.21-.74-.08-1.48-.17-2.22-.25-3.55-16.08-4.82-32.01-1.99-48.68Zm5.26,228.78c.85-16.16,1.1-32.29.89-48.5-.28-20.8-1.26-41.77,3.03-62.4,2.31-11.09.48-22.39,1.78-33.57.95-8.25,1.92-16.37,4.47-24.33,5.46-17.06,11.91-33.95,15.43-51.42,3.11-15.44,5.52-31.56,2.42-47.42-1.96-10.02-6.44-19.4-10.53-28.78-2.11-4.86-4.45-9.61-6.68-14.42,9.66,7.53,18.5,15.92,28.54,23.06,10.89,7.74,22.49,14.17,34.24,20.37,8.81,4.64,18.08,8.41,26.96,12.93,11.04,5.63,18.07,15.22,24.86,25.27,12.68,18.78,14.49,39.74,12.74,61.25-1.31,16.1,1.29,31.84,2.98,47.64.62,5.77.22,10.42-3.06,14.94-8.97,12.36-17.94,24.72-26.96,37.05-.97,1.33-2.08,2.82-3.48,3.53-13.32,6.69-22.94,18.17-33.92,27.61-14.73,12.67-27.96,27.25-36.76,45.41-10.65,21.95-19.33,44.46-24.68,68.24-.31,1.36-.82,2.55-2.66,2.85-5.62-14.39-11.32-28.93-11.64-44.6-.23-11.55,1.42-23.13,2.03-34.71Zm134.24-334.46c-.81-21.25-7.16-41.16-15.2-60.44-5.56-13.35-6.76-26.33-1.96-39.71,4.67-13.03,6.28-26.24,5.33-40.02-.44-6.37-.88-12.99,2.61-19.58,1.22,4.21,2.43,8.42,3.67,12.63,4.98,16.9,8.3,34.04,10.64,51.59,2.35,17.6,2.84,34.92,1.72,52.54-.53,8.25,2.33,16.41,4.51,24.41,4.05,14.83,5.59,29.94,7.22,45.19,2.07,19.32-1.07,38.56.78,58.05-3.77-5.82-3.03-12.67-3.86-19.17-1.07-8.33-2.31-16.78-6.21-24.05-7.01-13.1-8.71-27.11-9.25-41.44Zm26.59,210.83c-.81-8.07-3.12-16.02-5.35-23.98-2.9-10.29-3.34-20.76-2.46-31.99,3.8,1.1,4.81,4.04,6.14,6.52,6.37,11.84,12.02,24.12,18.98,35.58-6.09,4.19-11.81,8.93-17.31,13.87Zm26.3-36.69c-3.34-10.49-7.19-20.75-11.12-30.99-6.07-15.82-7.01-32.55-7.89-49.05-.85-16.16,1.33-32.46,1.14-48.69-.23-19.52.07-39.05-3.6-58.48-2.46-13.01-6.02-25.8-7.18-39.44,10.5,14.17,26.93,20.78,38.98,32.7,9.53,9.44,18.92,18.76,24.53,31.14,8.58,18.94,20.98,35.52,32.99,52.22,10.9,15.17,20.21,31.26,30.24,46.92,4.84,7.56,9.5,15.24,14.12,22.94.7,1.16,1.37,2.33,2.01,3.51-4.11,4.12-8.41,8.49-12.13,10.34-8.47,4.22-14.49,8.49-22.96,12.7-6.07,3.03-12.15,6.05-18.42,8.65-17.68,7.34-36.76,11.28-54.04,19.37-3.23-4.11-5.14-9.03-6.67-13.84Zm41.23,22.51c22.03-9.29,44.06-18.59,66.09-27.89,4.44-1.87,8.88-3.74,13.15-5.94,1.03-.53,2.06-1.05,3.09-1.55,2.07,9.11,2.73,18.56,1.91,28.39-.8,9.74,1.95,19.18,4.08,28.57,5.76,25.43,1.46,49.72-9.13,72.86-7.04,15.36-17.14,29.23-22.56,44.74-2.52,1.17-3.45-.26-3.8-1.26-3.04-8.56-8.41-15.77-13.27-23.28-5.93-9.12-8.35-19.58-10.51-29.95-1.61-7.69-4.4-14.76-8.68-21.05-7.48-10.98-15.4-21.66-24.1-31.75-6.28-7.28-11.33-15.47-16.47-23.57,6.78-2.65,13.49-5.49,20.2-8.32Zm77.3,157.1c6.55-20.31,15.26-39.57,29.48-58.84,3.76,16.77,7.44,31.48,10.29,46.36,5.51,28.77,6.47,58.01,8.31,87.16.77,12.22,2.17,24.5,5.34,36.45.81,3.05,1.3,6.18.41,9.86-3.29-5.62-6.91-11.09-9.81-16.91-4.2-8.43-9.4-15.84-16.73-21.94-16.99-14.14-25.59-32.62-27.08-54.57-.18-2.63-.81-5.23-1.25-7.84-1.1-6.65-1.03-13.29,1.04-19.73Zm87.8-320.96c-.37,2.63-.42,5.34-1.08,7.89-1.83,7,1.68,15.13-4.49,21.25-.44.44-.02,1.92.23,2.86,3.01,11.45,1.32,23.06,1.3,34.63-.02,11.32,2.2,22.43,3.63,33.61.34,2.61,1.53,5.08.3,7.76-5.16,11.23-6.82,23.57-11.19,35.1-6.1,16.06-14.85,30.36-26.16,43.19-3.01,3.41-6.06,6.78-9.88,11.06.09-7.64-1.74-13.6-3.56-19.47-3.29-10.64-3.92-21.18-2.49-32.32,4.13-31.95,14.12-61.94,28.16-90.75,3.21-6.57,6.42-13.14,9.58-19.74.86-1.79,2.14-3.64,2.2-5.5.49-13.8,8.25-25.03,13.05-38.86,1.82,3.97.77,6.65.4,9.29Zm-34.46-159.22c.94.9,2.28,1.56,2.89,2.63,12.79,22.65,26.48,45.01,20.22,73.02-1.15,5.13-1.05,10.58-1.2,15.89-.45,16.72-7.68,31.42-13.3,46.67-7.34,19.88-13.8,40.09-21.22,59.94-3.32,8.91-8.06,17.3-12.16,25.92-.73-18.4.27-36.57,1.4-54.75.73-11.85,2.16-23.65,2.54-35.52.06-1.64-.04-3.43-.64-4.91-2.6-6.41-4.3-12.78-3.65-19.92.54-5.92-1.11-11.58-3.91-17.19-2.96-5.94-2.77-13.17-1.95-19.58.88-6.89-1.55-13.12-1.5-19.66.04-4.55-4.89-5.66-5.49-10.14-.78-5.86-4.27-11.27-3.88-17.58.11-1.69-1.19-3.16-2.67-3.97-2.94-1.61-3.81-3.27-1.27-6.11,1.44-1.62,1.09-3.76.01-5.62-3.33-5.77-3.34-12.68-6.61-18.54-4.68-8.39-3.45-18.01-4.55-27.09-.98-8.07-3.42-15.37-7.77-22.07-7.41-11.4-15.01-22.68-22.51-34.01-.74-1.11-1.41-2.26-2.06-3.42-.73-1.32-.62-2.66.71-3.42.78-.45,1.96-.65,2.8-.42.88.25,1.5,1.34,2.37,1.75,7.81,3.66,13.93,10.16,22.2,13.07,1.45.51,2.94,1.85,3.71,3.2,5.98,10.5,16.44,18.29,19.58,30.33,1.94,7.44,8.6,11.06,11.49,17.7,5.84,13.42,16.03,23.76,26.42,33.8Zm-85.51-243.48c5.8,15.55,12.57,30.69,17.77,46.5,3.96,12.03,5.95,24.51,9.84,36.56,5.45,16.93,11.95,33.11,23.07,47.18,2.02,2.56,3.41,5.61,5.09,8.43-.51.55-1.02,1.11-1.53,1.67-7.69-5.04-15.6-9.78-23.03-15.18-12.67-9.2-23.61-20.41-35.15-30.94-8.79-8.02-16.58-16.9-24.82-25.33-7.07-7.25-14.74-14.08-21.87-21.45-4.34-4.49-7.24-9.43-9.04-15.07-6.93-21.84-15.36-43.18-21.51-65.28-3.21-11.52-3.14-22.11,4.51-32.09,5.7-7.44,7.29-17.02,11.94-25.06.96-1.66,1.07-3.8,3.76-5.59,3.6,11.08,10.61,19.82,18.1,28.19,3.77,4.2,8.25,7.82,11.67,12.27,12.97,16.92,23.72,35.14,31.2,55.19Zm-4.68-270.97c.85,15.74-2.27,30.34-9.19,44.34-4.43,8.95-8.62,18.01-12.97,27-3.35,6.94-5.1,7.22-9.4,1.51-14.47-19.23-23.8-40.43-25.11-64.82-.34-6.23-2.6-12.12-4.33-18.14-4.68-16.25-16.19-29.76-17.96-47.09-.57-5.54-2.75-10.85-2.52-16.65.19-5.01-1.19-10.01-3.63-14.37-8.75-15.65-10.63-32.7-10.78-50.14-.06-8.2,4.46-14.87,9.41-20.33,5.7-6.29,13.13-10.9,21.27-14.37,10.07-4.3,20.31-8.22,30.38-12.48,13.4-5.66,27.72-9.14,41.67-13.46,3.97-1.23,4.55,1.22,4.06,5.29-1.73,6.93-1.62,14.95-1.83,22.93-.38,14.04,1.96,27.81,4.44,41.56,1.07,5.88.99,11.73.72,17.78-.83,18.1-5.95,35.34-9.22,52.93-3.62,19.38-6.08,38.84-5.01,58.51Zm25.82-89.48c1.58-7.79-.55-15.93,3.43-24.8,3.85,7.05,3.15,13.41,3.27,19.57.29,14.26-.83,28.61,1.68,42.73,2.09,11.79,3.32,23.66,4.47,35.56,2.09,21.55-2.9,41.61-13.75,60.14-5.13,8.75-11.08,17.06-19.1,26.27.14-7.4,1.79-12.31,3.95-17.06,8.05-17.8,11.02-36.98,12.79-56,1.06-11.47,2.26-23.87-2.97-35.28-1.28-2.77-.76-5.88-.31-8.86,2.12-14.1,3.71-28.31,6.54-42.27Zm7.88-256.86c3.83,8.81,6.56,18.19,8.87,27.53,2.88,11.65.01,23.32-2.78,34.51-2.05,8.27-5.16,16.43-8.36,24.48-4.26,10.71-11.16,19.58-17.5,28.9-2.62,3.85-6.92,5.28-10.91,6.63-21.98,7.45-42.24,19.55-65.69,23.25-9.31,1.47-18.13,6.06-27.26,9.26-1.53-4.18-1.32-7.84-.42-11.37,4.38-17.06,9.28-33.9,19.6-48.63,5.56-7.93,10.37-16.25,9.28-26.72-.46-4.34,1.88-8.38,3.36-12.41,5.33-14.48,12.35-27.96,23.35-39.1,7.06-7.16,11.47-16.25,17.17-24.4,9.98-14.26,15.84-30.65,22.72-46.46,3.05-7.03,3.25-14.91,4.62-22.42.35-1.95.35-3.99.86-5.89.46-1.74,2.02-2.87,3.74-2.76,1.32.08,2.03,1.56,2.38,2.89,1.52,5.79,2.58,11.65,2.93,17.65,1.34,22.4,4.98,44.24,14.04,65.06Zm49.79-404.59c-.46,14.29-1.84,28.5-3.99,42.63-.41,2.66-1.23,5.09-2.75,7.39-8.69,13.11-15.06,27.38-20.47,42.07-5.95,16.15-16.36,29.21-28.59,43.43.44-11.39,1.84-20.81,4.11-29.94,2.16-8.68,4.35-17.33,6-26.14,3.51-18.71,10.69-35.93,21.11-51.89,6.5-9.96,12.29-20.35,17.12-31.27,1.16-2.63,3.52-4.73,5.32-7.07.72.07,1.44.15,2.15.22,0,3.52.1,7.05-.01,10.57Zm-77.52-105.93c1.88-15.71.98-31.51,2.12-47.23.64-8.88.84-17.81,3.25-26.52,2.15-7.74,1.79-15.87,1.95-23.78.34-15.99,3.56-31.59,5.25-47.39,1.53-14.23,2.33-28.49,2.47-42.78.06-5.67-4.73-10.85-2.05-17.35,3.21,2.06,3.63,5.51,4.31,8.52,2.63,11.68,5.13,23.39,7.39,35.15,1.59,8.21,3.73,16.14,7.4,23.72,10.93,22.59,16.33,47.14,24.73,70.64,4.48,12.53,9.16,24.99,13.38,37.6,5.61,16.78,9.5,33.74,7.57,51.81-1.24,11.51.69,23.36-3.86,34.52-1.13,2.77-2.1,5.61-3.43,8.28-14.9,29.71-29.87,59.38-44.76,89.09-4.18,8.35-7.74,16.92-9.5,26.21-.58,3.08-.84,6.67-4.06,9.3-3.27-2.08-3.34-4.84-3.45-7.46-.63-14.66-3.46-28.96-6.36-43.3-3.11-15.36-4.09-31.01-3-46.65,1.2-17.24.89-34.41-.8-51.59-1.35-13.65-.16-27.25,1.45-40.79Zm-33.14-301.3c15.02,28.17,16.93,50.08,6.64,71.21-3.89-2.46-3.08-5.65-3.09-8.54-.02-7.32-.83-14.44-2.59-21.65-3.18-12.98-1.8-26.21-.96-41.02Zm-2.6,175.73c1.36-8.18,3.94-16.15,5.89-24.23,1.25-5.17,3.21-10.37,3.32-15.58.25-12.37,5.18-22.41,13.21-31.27,1.81-.08,2.03,1.21,2.47,2.47,8.36,24.03,5.99,48.53,2.74,72.92-2.24,16.75-4.32,33.42-5.18,50.36-.5,9.7-1.56,19.68-3.3,29.43-2.1,11.83-.05,23.83-.92,35.78-1.36,18.58-2.89,37.29-2.03,55.84.79,16.9,3.27,33.76,3.4,50.75.02,2.92.64,5.86-1.47,10.03-2.51-7.1-4-13.05-3.43-19.41,1.38-15.35-.53-30.5-1.94-45.76-1.41-15.19-3.74-30.34-3.39-45.71.34-14.99-1.97-29.81-4.18-44.6-2.51-16.77-4.93-33.54-7.42-50.31-1.55-10.4.55-20.59,2.23-30.71Zm-2.67,287.44c6,5.99,10.54,12.78,13.66,20.63,3.68,9.25,7.31,18.5,10.47,27.96,6.07,18.17,3.92,35.76-4.83,52.12-7.08,13.23-10.79,27.01-11.97,41.73-3.32.14-2.55-2.46-3.09-4.11-4.31-13.26-8.37-26.59-13.64-39.56-3.75-9.23-6.82-18.82-12.21-27.17-5.79-8.98-10.48-18.44-15.06-28.02-12.83-26.86-21.31-55.17-27.55-84.15-2.24-10.4-1.22-21.16-.91-32.08,5.8,7.8,10.3,16.18,15.28,24.24,4.66,7.54,10.56,13.63,17.02,19.39,10.9,9.72,22.47,18.68,32.83,29.02Zm-70.49-173.2c3.44-8.93,3.67-19,8.1-27.66,10.57-20.65,14.95-44.17,29.38-63.02,1.21-1.57,2.06-3.41,3.2-5.03,1.32-1.86,2.79-3.62,5.27-6.82,2.6,7.16,3.01,13.05,2.55,19.04-1.28,16.67-.81,33.28,1.33,49.86.43,3.3.88,6.66.69,9.96-1.18,20.31,4.89,39.47,8.76,59.03,4.97,25.15,9.37,50.44,6.16,76.35-.72,5.87-.1,11.91-.1,18.02-4.35,1.61-6.63-1.46-8.72-3.58-6.74-6.88-13.99-13.19-21.09-19.67-4.38-4-8.38-8.68-11.55-13.69-7.25-11.48-9.29-15.49-17.27-26.51-2.81-3.88-6.71-20.97-7.59-25.54-2.92-15.23-4.89-25.73.88-40.74Zm-264.72,204.94c31.26-15.2,60.51-33.87,87.65-55.31,14.77-11.66,31.05-17.17,48.41-21.58,7.3-1.86,14.61-3.68,23.48-5.91-10.4,18.83-21.94,35.08-32.11,52.14,15.15-9,24.72-22.8,33.84-36.98,2.16-3.35,3.92-6.96,6.13-10.27,4.08-6.11,8.67-11.35,16.08-14.11,10.7-4,19.2-11.71,27.9-18.91,3.33-2.75,7.14-5.25,9.58-8.68,4.7-6.59,11.85-4.56,17.94-6,3.28-.78,3.17,2.74,3.73,4.76,3.16,11.27,5.19,22.77,5,34.48-.5,31.41,10.09,60.09,21.47,88.57,3.76,9.41,7.98,18.63,12.4,28.91-4.75-.52-7.6-2.12-10.14-4.1-7.67-5.96-16.63-9.74-24.84-14.8-1.95-1.21-4.14-2.17-6.35-2.81-6.66-1.94-13.47-3.31-18.77-8.47-1.54-1.51-4.15-2.43-6.36-2.65-11.23-1.13-22.11-4.78-33.54-4.54-7.66.16-15.28-.11-22.29-4.07-2.93-1.66-6.53-2.02-9.75-1.59-10.83,1.43-21.72,1.69-32.44,4.93-15.25,4.62-31.08,7.78-47.13,6.75-8.86-.56-17.55-2.8-26.62-2.76-15.1.07-29.81,1.8-44.08,6.85-1.16.41-2.33,1.47-4.1-.02,1.05-2.62,3.22-3.01,4.91-3.83Zm21.8,12.14c10.28.24,20.48.98,30.69,2.65,13.37,2.19,26.66,3.62,40.56,1.85,12.94-1.66,25.42-4.63,38-7.51,6.9-1.58,13.66-2.05,20.71-.51,5.14,1.12,10.61,1.63,15.85,1.26,12.71-.91,25.24.83,37.58,2.85,9.54,1.56,18.64,5.86,27.93,8.94-.17.78-.34,1.57-.51,2.35-23.65.29-44.29,10.58-65.59,18.88-16.14,6.28-33.08,9.63-50.28,11.61-5.93.69-11.86,1.41-17.75,2.36-17.88,2.91-34.89-2.71-52.17-5.4-5.12-.8-10.12-3.15-14.85-5.48-13.35-6.56-26.54-13.45-39.77-20.26-1.75-.9-3.32-2.11-4.21-3.99,5.14-2.97,27.93-9.73,33.81-9.6Zm-102.98,37.5c1.3-1,3.07-1.43,4.3-2.49,15.1-13.13,31.08-10.08,46.23-1.16,20.33,11.96,40.88,23.44,61.89,34.12.45.22.6,1.03,1.34,2.41-10.48-.97-19.43,3.38-28.82,5.91-4.88,1.32-9.85,1.64-14.81.51-4.9-1.11-9.84-1.55-14.84-1.61-1.65-.02-3.55.1-4.9-.64-9.04-4.91-19.37-6.86-28.32-11.49-10.4-5.39-20.42-10.67-33.33-10.18,1.89-7.25,6.29-11.54,11.26-15.38Zm10.15,119.46c-4.32,1.63-7.16-.83-10.08-3-14.61-10.88-28.75-22.25-41.11-35.79-3.93-4.31-4.29-7.65-.56-12.35,21.43,12.76,43.55,24.5,51.75,51.14Zm-37.9-77.78c-1.74-1.65-.61-3.82,1.14-5.05,1.92-1.35,3.08.33,3.86,1.71,1.92,3.45,3.65,7.01,5.45,10.52-5.06-.61-7.42-4.32-10.45-7.18Zm-62.54-80.87c12.08,1.73,23.51,4.55,33.74,11.46,7.58,5.13,16.55,6.65,25.46,7.96,4.17.62,8.4.98,12.84,3.13-2.13,4.2-5.57,6.18-8.79,8.28-6.73,4.39-12.55,9.78-17.93,15.71-5.05,5.58-8.95,6.29-15.69,3.59-7.86-3.16-12.44-9.64-17.17-16.06-6.38-8.66-10.41-18.43-13.5-28.64-.47-1.55-.78-3.24,1.04-5.43Zm-24.2,434.25c2.82-24.78,12.3-47.49,19.78-70.86,3.62-11.3,4.64-22.86,3.49-35-1.22-12.96-3.8-26.61,4.23-38.82,1.93-2.95,1.54-6.31,1.34-9.66-.31-4.88-1.22-9.85,1.44-16.17,3.86,5.44,5.86,10.47,6.74,15.84,3.3,20.03,9.76,39.28,14.39,58.99,2.77,11.75,4.36,23.22,2.44,35.47-1.58,10.06-1.06,20.55-.56,30.8.64,12.96.87,25.83-.95,38.71-2.27,16.18-3.69,32.36.32,48.56,1.89,7.64,0,15.55-1.89,22.69-4.5,16.92-9.34,33.86-17.48,50.04-5.31-16.83-13.58-31.8-22.64-46.44-2.24-3.63-2.93-8.15-3.14-12.49-.68-14.63-2.72-28.86-6.78-43.11-2.52-8.84-1.84-18.83-.73-28.55Zm3.99,147.24c3.16,17.86,1.64,35.87-1.26,53.6-2.95,18.04-7.87,35.68-15.1,52.57-.49,1.15-.65,2.58-3.55,3.22-2.27-10.1-4.77-20.23-6.8-30.45-3.1-15.64-.01-31.07,2.56-46.41,1.63-9.68,2.02-19.09-1.15-28.47-1.42-4.21-1.68-8.45-.17-12.71,4.24-12.02,1.92-24.29,1.18-36.45-.42-6.92.1-13.21,3.65-21.7,5.75,7.38,9.18,15.37,11.17,23.98,3.3,14.24,6.92,28.44,9.47,42.82Zm-43.76-426.26c6.91-3.12,14.05-3.42,21.28-4.17,5.45-.58,7.82,1.9,9.03,6.84,1.56,6.35.01,12.56-.27,18.82-.28,6.19-.97,12.37-1.58,19.7-2.12-1.28-2.88-1.48-3.2-1.97-6.31-9.5-14.2-17.43-23.35-24.18-1.59-1.17-2.9-2.72-4.29-4.15-6.46-6.63-6.02-7.1,2.38-10.89Zm-97.16-35.98c19.53,1.94,39.13,2.19,58.72,1.89,13.22-.2,13.22-.5,24.67,9.4-14.61,10.27-30.08,10.87-46.11,4.27-4.07-1.67-8.29-2.91-12.49-3.19-10.95-.74-20.2-6.38-30.26-9.62-.86-.27-1.87-.8-1.76-2.3,2.18-2.15,4.81-.68,7.23-.45Zm-72.86,3.08c9.52,1.37,19.19,1.76,28.8,2.48,3.33.24,6.8.04,9.8,1.55,16.42,8.26,33.49,14.81,51.68,19.47-2.27,3.55-5.15,2.57-7.6,2.49-2.97-.1-6.06-1.37-8.88-.88-16.31,2.85-32.35-1.3-48.53-1.47-1.32-.01-2.8.26-3.95-.22-18.1-7.55-37.81-6.65-56.53-10.9-8.57-1.95-16.68-5.51-25.27-7.91,20.13-4.71,40.07-7.55,60.48-4.61Zm-105.12,16.24c4,.78,8.71-.49,12.74-1.86,11.68-3.97,22.38-.69,32.83,3.93,20.05,8.88,39.58,18.92,60.13,26.67,6.99,2.64,12.98,6.56,17.07,13.15,3.07,4.95,8.1,7.82,12.99,10.7,10.33,6.08,20.51,12.34,26.89,23.25,2.39-3.03.24-4.75-.86-6.59-6.47-10.9-16.78-17.67-27.06-24.24-3.51-2.24-6.68-4.79-8.64-8-4.19-6.87-9-12.89-16.29-16.49,1.45-2.7,3.11-1.73,4.53-1.38,19.04,4.82,38.18,8.54,57.99,8.79,12.94.16,25.93,1.51,38.73,3.42,7.87,1.18,15.24.65,22.61-1.63,6.29-1.95,10.94-1.36,15.58,4.5,7.83,9.91,17.04,18.91,27.16,26.37,15.12,11.14,22.44,25.89,24.1,43.94,1.45,15.8,5.72,31.72,1.79,47.47-2.59,10.4-3.85,21.33-10.54,30.71-4.98,6.99-11.55,10.72-19.08,11.08-14.59.69-29.23,1.45-43.88.44-7.2-.49-12.63-3.66-16.93-9.17-6.87-8.8-14.9-16.03-25.3-20.56-4.51-1.96-8.53-5.42-11.99-8.6-8.97-8.28-21.06-7.82-31.08-12.85-3.52-1.77-7.34.3-10.41,2.17-7.04,4.28-14.13,4.06-21.96,2.54-7.05-1.38-14.16-2.64-21.69-2.07-7.08.54-13.32-3.61-17.47-9.82-1.66-2.5-3.01-5.16-5.77-6.72-7.41-4.22-11.16-11.07-13.78-18.88-3.1-9.21-8.2-17.48-13.42-25.58-2.28-3.53-5.1-6.71-9.39-8.61-7.45-3.31-11.75-10.58-17.71-15.82-10.67-9.37-22.31-17.81-30.44-30-3.47-5.2-10.08-7.43-15.74-10.23-4.74-2.34-9.43-4.73-14.63-10.01,17.39-2.66,31.34-13.47,48.92-10.02Zm-145.59,9.02c10.7,3.46,21.55,6.69,30.79,13.62,4.38,3.29,7.77,7.15,9.82,12.28,6.16,15.41,12.8,30.6,20.53,45.31,1.07,2.04,1.94,4.24,2.49,6.48,2.93,11.91,5.95,23.82,8.5,35.82,1.68,7.94,4.63,15.15,8.93,22.03,3.39,5.4,7.76,10.56,8.64,19.78-7.04-7.66-13.47-13.06-17.9-19.78-12.9-19.57-28.92-36.32-45.05-53.12-10.56-11.01-20.06-23.02-30.15-34.49-3.16-3.59-5.63-7.71-6.66-12.15-3.03-12.98-8.09-25.17-13.59-37.27,8.45-3.51,16.14-.93,23.65,1.49Zm100.7,326.87c-5.45-4.16-10.28-8.2-11.79-15.22-1.25-5.84-3.02-11.57-4.43-17.39-.88-3.59-1.65-7.6-4.16-10.05-7.72-7.52-9.19-17.45-11.34-27.09-3.5-15.7-10.17-30.05-16.81-44.62-7-15.34-17.95-27.91-26.12-42.24-6.72-11.78-16.49-21.82-20.4-35.24-1.14-3.92-4.64-6.41-7.36-9.34-8.69-9.36-14.12-20.46-18.61-33.47,5.11,1.05,6.76,3.99,8.62,6.57,13.87,19.19,29.33,37.03,45.49,54.32,8.66,9.26,15.36,19.86,19.82,32,6.79,18.48,15.21,36.14,29.69,50.2,3.9,3.78,5.58,8.9,6.5,14.31,2.89,17.06,6.82,33.94,8.23,51.25.43,5.28,1.13,10.56,2.7,15.73.9,2.99,2.01,6.32-.03,10.28Zm14.55-158.14c.61-5.12-.71-9.72-3.07-14.35-4.35-8.56-8.31-17.33-12.14-26.14-5.53-12.73-6.4-26.24-6.68-39.95-.34-16.75-6.2-31.75-16.53-44.97-.61-.78-1.41-1.43-1.97-2.25-1.67-2.44-4.16-5.04-2.21-8.06,1.65-2.55,4.89-1.5,7.43-1.27,8.22.74,16.32,2.02,22.63,8.15.48.46,1.02.9,1.61,1.18,12.12,5.75,20.76,15.1,27.72,26.34,1.52,2.46,4.05,4.38,6.35,6.26,12.69,10.43,23.63,22.43,31.9,36.64,5.31,9.13,5.72,19.72,6.78,29.88.84,7.97,1.82,15.82,3.8,23.59,1.87,7.3,1.08,14.33-1.93,21.41-9.63,22.65-17.83,45.69-15.22,71.01.17,1.6.44,3.28-1.02,5.37-4.31-2.14-4.97-5.86-6.08-9.28-2.55-7.92-7.4-14.11-14.38-18.5-3.2-2.01-5.88-4.27-7.48-7.73-4.85-10.48-12.69-19.41-15.19-31.15-1.85-8.68-5.42-17.01-4.32-26.18Zm25.16,194.27c-3.1-16.28-5.42-32.7-8.78-48.93-.73-3.55-1.41-7.04-.66-10.81,1.38-6.86,1.57-13.84.52-20.81-.39-2.59-1.01-5.24,1.05-8.31,7.11,3.64,12.97,8.8,16.87,15.67,10.35,18.22,19.71,36.89,23.33,57.87,2.27,13.1,1.65,25.69-4.72,37.78-3.98,7.54-5.99,16.05-11.11,24.6-9.4-15.48-13.43-30.94-16.5-47.06Zm36.33,151.66c-3.76-9.13-8.76-17.75-12.51-27.28,7.86,3.97,14.74,9.25,20.22,15.89,9.31,11.27,16.71,23.67,22.53,37.29,5.66,13.26,17.47,21.47,29.62,28.69,13.35,7.92,16.12,13.77,11.34,28.71-3.16,9.84-4.87,20.01-7.87,29.86-1.46,4.8-1.56,9.99-.86,14.88,1.13,7.84-.74,14.15-7.38,19.16-10.4-10.71-16.11-23.78-20.21-37.99-10.6-36.73-20.31-73.76-34.88-109.21Zm-4.63,382.95c4.61-5.9,6.77-12.72,8.35-19.98,2.12-9.69,5.34-19.29,10.28-27.8,11.83-20.38,24.02-40.6,31.44-63.07,3.73-11.29,5.33-23.17,1.63-35.1-2.63-8.46-2.41-11.41,1.42-19.47,4.49,14.1,11.39,27.48,11.28,42.83-.09,13.07,3,25.71,6.35,38.2,1.67,6.2,3.2,11.65-3.88,15.21,10.69,9.76,11.69,21.2,8.31,33.67-1.1,4.08-3.85,6.9-7.12,9.34-6.72,5-12.31,11.12-17.6,17.57-6.44,7.86-14.52,13.5-23.67,17.91-14.66,7.06-29.42,13.69-46.33,15.75,6.7-8.59,13.11-16.83,19.54-25.06Zm33.88,130.13c-2.77-.16-3.94-2.75-4.13-4.98-1.35-15.62-12.5-26.52-18.94-39.68-.66-1.36-2.33-2.34-3.69-3.25-7.78-5.19-14.6-11.32-19.19-19.62-2.46-4.46-6.68-4.93-11.1-5.28-7.11-.57-14.2-1.3-21.3-1.96.02-.73.03-1.45.05-2.18,8.76-2.98,17.92-4.16,27.1-4.82,18.51-1.34,35.98-6.16,52.09-15.31,7.79-4.41,14.64-10.42,22.89-14.14,1.21-.55,2.32-1.33,3.53-1.85,5.78-2.5,7.79-1.48,8.73,4.95.68,4.61.26,9.21-.74,13.86-2.89,13.39-9.46,25.62-12.13,39.03-3.62,18.17-12.97,34.11-19.44,51.16-.68,1.79-1.34,4.2-3.73,4.07Zm-41.89,430.2c2.4-13.27,9.64-24.8,12.59-37.73,4.35-19.09,11.62-37.29,16.16-56.35,3.22-13.55,9.89-26.16,18.09-37.5,6.16-8.51,10.43-17.95,13.86-27.51,3.13-8.74,8.49-16.51,10.44-25.69.31-1.46,1.87-2.66,3.62-5.01,5.24,10.19,11.31,18.08,18.07,25.46,4.14,4.52,6.77,9.7,8.12,15.74,1.95,8.74,4.79,17.2,7.84,25.66,6.87,19.09,8.95,38.76,4.1,58.88-3.43,14.21-5.84,28.67-10.53,42.57-.96,2.85-1.42,6.26-4.59,7.34-13.49,4.57-21.65,16.26-32.65,24.15-12.96,9.28-26.92,14.88-42.9,16.69-10.12,1.14-19.95,4.78-29.91,7.3-2.17.55-4.22,2.16-6.69.78-1.15-2.02-.39-4.1.78-5.47,7.27-8.54,11.65-18.54,13.6-29.31Zm-15.53-62.33c.21-.03.55.98.83,1.51-.13,1.47-.92,2.42-2.35,2.6-.24.03-.93-1.01-.87-1.49.15-1.36.93-2.44,2.39-2.62Zm-4.07,8.55c-.89,5.9-3.91,10.43-7.5,14.67.34-6.02,1.64-11.56,7.5-14.67Zm-3.29,103.64c6.65-1.65,13.3-3.33,19.95-5,.45.72.9,1.43,1.35,2.14-13.24,10.95-24.33,23.86-33.88,38.16-.78-.46-1.56-.91-2.34-1.36,3.48-10.1,6.9-20.21,10.49-30.27.68-1.91,2.35-3.15,4.43-3.67Zm-78.7,11.22c-5.94.57-11.9,1.03-17.85,1.47-1.34.1-2.67-.14-3.86-3.17,15.56-4.55,25.57-16.61,36.76-26.62,6.8-6.08,12.81-12.83,20.26-18.53,6.73-5.16,10.83-13.97,17.25-20.14,4.17-4,6.38-9.77,13.25-14.34-8.58,19.62-11.65,38.64-16.97,57.04-.89,3.1-1.78,6.94-5.16,8.18-14.58,5.32-27.72,14.59-43.68,16.11Zm-35.05,232.49c-1.51-5.5.78-6.24,3.12-9.39,3.62-4.88,6.42-9.39,7.38-15.37.55-3.38,6.93-10.78,8.78-13.57,8.72-13.16,9.84-11.59,23.55-18.75,9.49-4.96,21.23-23.36,32.12-25.62,6.16-1.28,11.11-5.6,18.42-8-25.97,36.52-63.79,58.41-93.37,90.7Zm71.91-127.34c-5.4,5.53-11.63,10.09-18.54,13.36-4.73,2.24-8.35,6.2-15,9.22,4.57-8.33,9.07-14.22,13.8-19.95,1.7-2.05,3.39-4.16,5.4-5.87,10.94-9.33,19.51-21,27.87-32.3,9.88-13.37,22.44-24.31,31.73-38.05,1.83-2.69,4.62-4.73,6.98-7.07,2.12-2.1,4.76-3.88,6.28-6.35,12.83-20.88,32.28-32.45,54.51-41.15,13.72-5.36,28.13-10.04,39.79-20.56-3.21,12.41-12.38,20.3-20.75,28.52-5.16,5.07-11.05,9.5-16.45,14.44-3.87,3.56-8.36,6.52-13.13,9.02-7.37,3.86-13.91,8.88-20.34,14.26-11.22,9.37-22.21,18.99-33.3,28.49-6.15,5.26-10.86,11.7-15.86,17.88-10.27,12.72-21.59,24.44-32.99,36.11Zm26.83,3.91c3.49-6.32,6.03-12.14,9.63-17.2,9.76-13.73,18.02-28.45,32.27-38.87,13.42-9.8,26.3-20.32,40.64-28.83,5.46-3.24,10.41-7.16,15.27-11.24,16.33-13.69,32.2-27.85,46.06-44.11,3.47-4.07,6.37-8.46,7.2-14,.82-5.51,4.32-9.29,9.36-13.61,1.64,10.27,3.24,19.23,4.48,28.23,2.2,16.01,8.08,30.7,15.74,44.75,4.78,8.74,10.06,17.21,14.69,26.02,2.14,4.08,4.18,8.58,4.68,13.07,1.37,12.33,5.33,24.01,8.06,35.99,3.27,14.37,2.51,15.03-11.93,11.57-13.34-3.2-27.09-2.99-40.63-4.59-2.64-.31-5.4.05-7.95-.57-28.95-7.04-57.21-1.23-84.38,7.38-20.64,6.55-40.93,7.17-63.19,6.01Zm221.9,105.43c-4.36,18.3-9.95,36.33-11.37,55.59-4.14-1.14-4.44-4.08-5.53-6.22-2.2-4.3-5.34-7.63-9.45-10.01-11.21-6.48-22.16-13.28-31.46-22.48-4.07-4.03-7.24-7.67-7.62-14.24-.85-14.41-9.8-24.9-20.38-33.6-3.45-2.84-6.14-5.73-8.39-9.44-3.96-6.5-8.1-12.91-12.42-19.18-4.07-5.9-9.81-9.71-16.34-12.66-8.42-3.82-17.53-6.16-24.79-12.56-2.48-2.2-6.62-2.51-10-3.68.01-.62.01-1.24.02-1.86,5.39-1.6,10.68-3.67,16.17-4.7,10.52-1.97,20.46-6.97,31.64-5.63,10.56,1.26,21.25,1.56,31.77,3.03,12.86,1.8,25.88.99,38.73,3.29,7.8,1.39,14.21,5.47,21.24,8.31,4.33,1.75,5.06,6.15,5.23,10.1.89,20.78,6.76,40.54,12.38,60.32,1.51,5.3,1.86,10.19.57,15.62Zm2.43-113.2c4.97,6.68,9.23,12.39,13.74,18.46-13.43-3.46-17.21-8.22-13.74-18.46Zm340.95,119.33c-.62,2.11-2.68,1.7-4.19,1.59-8.96-.66-18.08-.63-26.82-2.42-15.6-3.18-31.47-5.46-46.45-11.29-4.65-1.82-9.82-3.12-13.15-6.91-11.16-12.72-26.73-15.64-41.9-18.91-31.21-6.73-62.97-10.24-94.45-15.41-9.84-1.62-19.6-3.76-29.37-5.81-4.91-1.04-9.06-3.54-13.38-6.22-13.13-8.15-22.94-20.17-35.23-29.13-14.63-10.66-22.15-25.71-29.61-41.41-5.76-12.09-9.49-24.82-14.39-37.15-1.87-4.73-2.85-9.48-2.56-15.23,20.4,5.96,28.32,23.81,38.31,39.33,1.87-1.58,1.9-2.66,1.43-3.51-5.33-9.57-10.36-19.31-16.21-28.55-3.7-5.85-8.39-11.06-15.16-13.97-7.34-3.14-12.55-8.88-15.98-15.86-4.39-8.97-9.21-17.63-15.04-25.73-3.04-4.25-2.98-9.47-4.11-14.27-2.43-10.34-4.15-20.82-4.15-31.48,0-6.94.32-7.04,6.97-8.1,14.33-2.28,27.41,1.9,38.6,9.95,17.16,12.34,36.65,18.47,56.48,23.97,10.55,2.92,21.2,5.38,31.5,9.2,8.06,2.98,16.56,4.63,24.56,7.95,7.51,3.12,13.67,7.96,19.95,12.95,18.26,14.53,31.54,33.14,44.51,52.17,8.04,11.81,15.95,24.07,25.94,34.12,14.77,14.86,26.28,32.78,42.39,46.08,9.72,8.03,16.86,18.62,27.63,25.5,8.58,5.47,12.11,15.61,19.05,22.8,3.72,3.86,9.07,6.87,9.84,13.28.22,1.84,2.54,2.93,4.38,3.81,6.74,3.23,11.64,8.79,16.99,13.73,3.88,3.57,6.58,8.36,11.56,10.82,1.52.75,2.6,2.3,2.06,4.11Zm36.79-53.12c-3.4,6.75-5.73,14.05-9.51,23.53-6.63-12.32-15.44-19.72-24.36-27.06-2.56-2.1-4.09-5.18-5.4-8.31-2.35-5.6-5.59-10.67-10.55-14.29-2.66-1.95-3.59-4.72-4.68-7.47-10.86-27.53-19.86-55.71-29.17-83.78-2.12-6.38-2.64-13.07-3.29-19.67-1.37-13.88-3.93-27.39-8.16-40.75-3.81-12.03-3.23-24.46,1.57-36.37,6.05-15.02,7.7-30.34,7.76-46.7.08-19.76,2.5-39.84,9.08-58.93.29-.84,1.06-1.53,2.01-2.85,2.65,2.39,2.53,5.45,3.08,8.18,3.43,17.02,8.83,33.14,17.61,48.4,10.85,18.86,17.7,39.58,20.8,61.12,3.03,21.01,10.11,40.36,20.62,58.5,3.34,5.76,4.32,11.87,5.58,17.94,3.36,16.25,7.49,32.32,9.07,48.97,1.07,11.26.34,22.6,2.23,33.77.67,3.92,1.27,7.86,1.62,11.82,1.05,11.83-.45,23.13-5.91,33.95Zm9.79-301.34c-1.84,18.49-2.59,37.16-1.54,55.82,1.03,18.62,1.56,37.25-.55,55.85-.14,1.29.04,2.68-1.21,3.75-2.44-2.18-2.33-5.48-2.77-8.14-2.36-14.25-10.49-26.41-13.99-40.27-5.37-21.26-4.13-42.92-5.15-64.46-.6-12.6-.65-25.22-4.29-37.54-5.27-17.83-2.03-35.66,1.2-53.32,2.32-12.74,5.42-25.34,8.39-37.94.96-4.09,1-8.45,4.46-11.87,2.17-2.14,1.15-5.7,1.49-8.64,1.7-14.72,3.31-29.48,10.96-43.77,2.11,8.83.84,16.69.47,24.58-.98,20.62-5.93,40.81-6.35,61.49-.34,16.44,2.15,32.29,7.08,48.05,2.42,7.74,2.26,16.36,2.75,24.61.64,10.61.12,21.13-.95,31.8Zm108.99,403.42c-15.77-9.74-33.19-15.09-50.22-21.63-5.58-2.14-11-4.66-15.69-8.6-9.79-8.21-22.16-11.96-32.81-18.74-8.24-5.24-9.35-6.49-7.65-16.07,3.71-20.89,6.71-41.98,11.95-62.49,3-11.78,5.43-23.83,9.75-35.36,5.93,14.32,11.05,28.37,19.02,41.1,12.38,19.75,26.23,38.22,42.75,54.9,10.75,10.85,21.56,21.64,32.34,32.47,6.15,6.18,10.98,13.32,15.53,20.71,5.9,9.58,12.04,19,18.8,29.62-16.52-3.01-30.9-7.95-43.77-15.91Zm222.2,75.41c-9.02,2.81-16.97-.71-24.9-2.11-12.73-2.24-25.52-4.79-37.81-8.68-9.43-2.99-18.8-6.6-27.96-10.4-13.75-5.71-26.93-12.78-40.37-19.25-7.28-3.5-14.13-7.58-18.36-14.82-4.03-6.9-11.51-9.87-17.4-14.31-9.94-7.48-15.58-17.85-22.59-27.33-3.54-4.78-5.89-10.43-9.16-15.44-6.94-10.64-15.9-19.53-24.76-28.58-24.97-25.5-47.78-52.76-62.7-85.59-6.31-13.89-10.43-28.68-14.64-43.36-1.77-6.16,1.17-11.9,3.06-17.32,2.64-7.55,5.24-15.15,6.82-22.91,2.87-14.07,7.83-27.57,12.6-40.86,5.76-16.03,13.37-31.45,26.82-43.72,16.3-14.87,34.5-26.85,52.41-39.37,7.24-5.05,12.66-11.69,17.69-18.79,2.79-3.95,5.93-7.66,9.82-10.97-2.06,14.55-3.74,28.8-10.3,42.09-4.66,9.45-9.58,18.76-12.72,29.07-5.82,19.08-4.64,38.13-2.46,57.34.69,6.05.06,12.46,4.75,17.84.57-14.58,1.54-29.15,1.63-43.72.1-18.61,5.79-35.33,15.75-50.72,13.84-21.38,18.9-45.13,19.51-70.15.04-1.49-.32-3.09-.05-4.5,4.38-5,9.33-9.42,14.95-12.33,4.55-2.36,9.23-4.4,13.98-6.29,9.55,15.87,18.82,31.94,30.85,46.19,10.86,12.87,18.94,27.25,23.15,43.76,2.88,11.33,7.44,22.03,14.07,31.79,3.17,4.66,6,9.57,8.94,14.39,7.53,12.34,12.56,25.19,12.83,40.16.2,11.21,3.39,22.32,6.7,33.18,8.1,26.61,4.87,52.44-5.28,77.88-3.69,9.24-6.62,18.79-9.65,28.28-1.31,4.08-1.49,8.37-.67,14.11,6.05-6.64,7.29-14.33,11-20.64,3.85-6.56,6.76-13.58,9.49-20.4,3.9.25,2.86,2.89,3.15,4.51,1.38,7.88,3.45,15.55,5.73,23.22,6.95,23.45,10.13,47.46,9.26,71.92-.25,7.06,0,14.1,1.64,20.84,2.68,11.06,3.54,22.35,5.48,33.5,1.46,8.34.68,16.7-.77,24.85-2.23,12.53-3.89,24.92.47,37.64Zm27.82-49.15c-.98,3.46-1.12,8.38-6.62,8.79.2,1.89.4,3.78.59,5.67-.29.03-.59.06-.89.09.09-1.9.18-3.79.27-5.69,5.47-20.7,1.29-41.04-2.42-61.31-1.75-9.56-2.74-19.07-2.43-28.75.7-21.46-3.83-42.36-6.83-63.42-.37-2.57-1.67-5.03-2.6-7.51-2.47-6.57-4.25-13.26-4.76-20.32-1.02-13.92-2.24-27.82-3.44-41.72-.31-3.64-.96-7.25-.15-10.91,3.15-1.11,4.01,1.73,5.48,3.19,10.83,10.83,20.91,22.21,28.32,35.82,5.95,10.93,13.95,20.29,24.22,27.46,5.06,3.54,6.45,7.27,4.15,13.52-5.35,14.59-6.28,29.71-3.28,45.08,1.92,9.86.42,18.85-6.17,27.17-5.41,6.83-7.74,15.38-9.51,23.93-3.45,16.64-9.32,32.6-13.93,48.91Zm89.64,80.09c1.73,16.99,7.05,33.12,15.04,48.23,4.25,8.05,5.48,17.01,8.33,25.46,4.85,14.45,11.08,28.47,14.48,43.39.8,3.51,2.33,6.91,2.01,10.78-3.04.65-4.15-1.83-5.33-3.44-7.46-10.12-16.5-18.99-25.28-27.71-7.44-7.4-14.14-15.73-22.56-22.25-8.72-6.75-16.48-14.43-20.72-25.03-.69-1.72-2.25-3.45-3.87-4.39-4.8-2.81-7.93-7.04-10.66-11.62-4.77-8.01-10.37-15.4-16.54-22.37-1.09-1.23-2.46-2.69-2.64-4.17-1.73-13.83-10.46-24.98-14.28-38.12-3.68-12.69-2.15-24.12,2.11-35.92,7.9-21.86,15.86-43.7,20.92-66.47.57-2.55,1.52-5.13,2.79-7.41,4.93-8.85,11.91-16.49,15.11-26.58,2.14,11.67,3.22,23.08,5.4,34.37,1.84,9.5,4.28,18.61,7.86,27.65,13.48,34.05,24.09,68.9,27.83,105.6Zm121.48-691.63c-13.56-4.24-26.61-3.42-39.52,2.9-7.43,3.64-15.72,5.1-23.63,7.5-19.18,5.83-39.61,9.12-55.4,23.2-.94.84-2.21,1.29-3.64,2.1-5.18-11.51-5.69-23.42-6.31-35.31-.6-11.66,1.55-23.19,1.56-34.81,0-9.82.59-19.63-1.14-29.48-1.06-6.11-.19-12.56-.19-21.14,11.68,13.47,25.92,19.66,40.33,25.63,2.4,1,4.52,2.75,6.65,4.33,10.71,7.94,22.55,14.05,34.22,20.32,7.83,4.2,17.13,4.45,25.54,7.59,5.13,1.92,9.8,3.81,13.55,7.7,5.45,5.66,10.95,11.3,14.17,18.6-2.29,1.58-4.23,1.48-6.19.87Z" style="fill:#d0d0d0;"/><path d="m1579.77,1823.27c-3.94-.72-6.26-1.53-7.55-4.76,3.61-.69,5.55.93,7.55,4.76Z"/></g><g id="points"><circle id="scherer" cx="787.71" cy="1146.93" r="19.25" style="fill:#d0d0d0; stroke:#fff; stroke-miterlimit:10; stroke-width:3.08px;"/><circle id="dibbets" cx="1290.47" cy="511.91" r="19.25" style="fill:#d0d0d0; stroke:#fff; stroke-miterlimit:10; stroke-width:3.08px;"/><circle id="kisseleva" cx="1197.29" cy="883.78" r="19.25" style="fill:#d0d0d0; stroke:#fff; stroke-miterlimit:10; stroke-width:3.08px;"/><circle id="bo" cx="1203.05" cy="1542.78" r="19.25" style="fill:#d0d0d0; stroke:#fff; stroke-miterlimit:10; stroke-width:3.08px;"/><circle id="b-m" cx="1327.54" cy="1169.02" r="19.25" style="fill:#d0d0d0; stroke:#fff; stroke-miterlimit:10; stroke-width:3.08px;"/><circle id="brindamour" cx="678.88" cy="1862.53" r="19.25" style="fill:#d0d0d0; stroke:#fff; stroke-miterlimit:10; stroke-width:3.08px;"/><circle id="bonneval" cx="240.9" cy="1187.73" r="19.25" style="fill:#d0d0d0; stroke:#fff; stroke-miterlimit:10; stroke-width:3.08px;"/><circle id="scenocosme" cx="521.94" cy="2384.68" r="19.25" style="fill:#d0d0d0; stroke:#fff; stroke-miterlimit:10; stroke-width:3.08px;"/><circle id="crasset" cx="1026.83" cy="2951.7" r="19.25" style="fill:#d0d0d0; stroke:#fff; stroke-miterlimit:10; stroke-width:3.08px;"/><circle id="u-everything" cx="1459.26" cy="2867.75" r="19.25" style="fill:#d0d0d0; stroke:#fff; stroke-miterlimit:10; stroke-width:3.08px;"/><circle id="samakh" cx="352.1" cy="2867.94" r="19.25" style="fill:#d0d0d0; stroke:#fff; stroke-miterlimit:10; stroke-width:3.08px;"/><circle id="steyerl" cx="1546.8" cy="3238.99" r="19.25" style="fill:#d0d0d0; stroke:#fff; stroke-miterlimit:10; stroke-width:3.08px;"/><circle id="ju-lee" cx="1200.69" cy="1990.07" r="19.25" style="fill:#d0d0d0; stroke:#fff; stroke-miterlimit:10; stroke-width:3.08px;"/><circle id="licari" cx="1419.34" cy="2172.21" r="19.25" style="fill:#d0d0d0; stroke:#fff; stroke-miterlimit:10; stroke-width:3.08px;"/></g></svg>