<?xml version="1.0" encoding="UTF-8"?><svg xmlns="http://www.w3.org/2000/svg" viewBox="0 0 1409.17 3451.39"><g id="schema"><path d="m1409.09,2505.11c-.62-3.11-3.36-3-5.63-2.39-4.7,1.27-8.51.53-11.28-3.78-.75-1.17-1.98-1.81-3.4-1.71-10.94.77-19.55-6.09-29.11-9.48-19.4-6.88-38.53-14.19-59.3-15.66-1.32-.09-2.72-.21-3.9-.72-11.12-4.79-21.23-.87-30.23,4.87-12.58,8.02-25.39,15.95-35.88,26.85-3.65,3.79-8.48,6.46-13.23,6.14-10.36-.7-20.26,2.72-30.48,2.45-1.89-3.28-.77-6.69-.55-9.88,2.71-41.18-3.74-80.76-18.91-119.2-7.8-19.75-15.86-39.52-19.83-60.65-1.33-7.07-3.27-14.32-7.52-20.5-2.12-3.08-1.55-5.18,1.55-7.43,10.61-7.73,22.64-10.32,34.89-7.09,9.74,2.56,19.67,2.66,29.4,4.18,11.92,1.87,24.52,1.42,36.47-2.42,3.8-1.22,7.53-2.67,11.37-3.75,11.81-3.3,23.48-7.46,36.1-6.07,1.47.16,3.53.65,4.09-1.61.49-1.97-.98-3.68-2.37-3.85-4.13-.48-6.66-4.96-10.83-4.47-11.77,1.38-24.32,1.03-35.05,5.23-13.68,5.36-25.02,2.89-36.9-3.17-6.51-3.32-13.14-6.39-19.67-9.65-2.94-1.47-5.72-1.34-8.58.16-7.69,4.03-15.93,4.16-24.33,3.5-5.62-.45-11.09-.5-16.63,1.78-9.46,3.89-12.97,1.7-12.39-8.6.47-8.31-.61-16.75.9-24.88,1.68-9.04,1.83-18.46,6.19-27.01,1.92-3.77,2.84-8.19,3.54-12.43,1.76-10.59,6.65-20.16,9.41-30.42.88-3.25,2.98-5.97,5.66-8.07,5.28-4.15,8.61-10.48,13.59-14.39,13.03-10.21,20.19-24.09,28.03-37.95,6.87-12.15,13.31-24.48,19.45-36.98,2.5-5.09,3.52-10.62,3.52-16.44.01-8.32.79-16.62,2.72-24.77,1.28-5.38,4.02-9.83,8.37-13.23,2.74-2.14,5.88-3.39,9.31-2.31,5.06,1.6,10.41,2.84,14.95,5.44,11.62,6.65,23.76,11.93,36.49,15.94,14.53,4.58,28.49,10.86,43.88,12.79,14.01,1.76,26.66,7.4,38.14,15.89,6.75,4.99,12.82,10.55,18.64,16.52,2.37,2.43,4.63,5.79,9.25,4.17-12.04-27.4-32.88-42.95-61.41-49.12-23.49-5.08-46.25-11.88-66.15-26.44-6.76-4.94-12.56-10.82-19.06-15.81-8.11-6.22-12.88-14.09-16.6-23.1-3.29-7.95-5.12-16.15-6.73-24.65-4.64-24.43-3.88-48.89-2.58-73.44.21-3.96.51-8.07,1.74-11.78,2.96-8.9,2.59-17.6-.03-26.42-1.71-5.77-1.7-11.59-.6-17.82,10.16,1.66,19.38,4.08,27.99,8.52,11.44,5.9,23.76,8.46,36.45,9.41,2.85.21,7.05,2.1,7.67-3.36.58-5.06-2.06-7.33-6.78-7.82-3.31-.35-6.61-.76-9.91-1.18-8.35-1.06-16.18-3.45-23.12-8.47-9.98-7.22-21.06-12.58-32.52-16.75-13.04-4.73-23.64-11.74-29.97-24.41-.68-1.37-1.55-3.98-3.28-2.96-5.62,3.31-7.72-1.5-10.32-4.27-7.49-7.98-14.97-15.88-16.72-27.65-.75-5.09-3.88-9.83-6.71-14.39-2.45-3.94-5.04-7.97-6.47-12.32-4.82-14.67-13.49-27.4-20.12-41.15-4.79-9.94-3.15-20.81,6.12-26.73,10.33-6.6,19.97-14.48,31.68-18.75,2.29-.83,3.88-2.45,5.77-3.8,16.04-11.48,27.17-27.11,36.82-43.89,3.14-5.47,7.57-9.96,10.07-15.98,7.67-18.45,17.75-35.63,29.13-52.04,10.48-15.12,17.37-31.2,14.09-50.23-.85-4.9-1.1-9.92-1.29-14.9-.16-4.02-.65-8.3,2.66-11.83.85.89,1.5,1.28,1.71,1.84,12.71,33.13,29.2,64.08,52.27,91.27,3.89,4.59,7.91,9.01,12.58,12.79,1.66,1.34,3.87,1.62,5.62.43,1.96-1.34,1.66-3.72.72-5.45-4.9-9.05-8.09-18.9-13.74-27.63-4.79-7.4-12.52-12.3-16.95-19.46-6.07-9.81-11.28-20.43-15.72-31.05-4.69-11.2-9.46-22.53-13-34.29-4.33-14.37-8.65-28.59-7.69-43.87.16-2.61-.45-5.31-1.03-7.9-4.69-20.98-5-42.21-3.99-63.55.33-6.98-.02-13.9-1.09-20.88-2.08-13.65-7.74-26.11-11.82-39.1-3.1-9.89-7.35-19.52-8.73-30.48,3.84,1.43,5.24,4.26,7.18,6.45,8.56,9.61,18.65,17.27,30.69,21.64,15.7,5.7,30.84,12.23,44.27,22.35,4.46,3.36,9.28,4.42,14.91-.02-4.33-5.79-8.37-11.39-12.63-16.82-3.17-4.03-7.47-6.52-12.33-8.12-8.21-2.69-16.01-6.47-24.1-9.52-9.67-3.64-18.76-9.5-24.97-17.69-8.47-11.17-17.68-21.51-27.53-31.4-3.45-3.46-7.29-6.82-9.24-12.17,7.82-3.1,15.67-5.74,22.81-9.87,4.36-2.52,8.93-4.26,13.77-5.64,6.48-1.85,13.03-2.46,19.7-2.81,17.89-.93,33.7-7.05,47.08-19.14,1.72-1.55,4.61-4.67,3.12-5.36-6.14-2.86.6-7.8-1.99-10.76-2.91-.02-4.9,1.37-6.67,2.78-9.54,7.6-20.58,12.13-32.1,15.51-13.67,4.01-27.49,7.85-41.83,7.86-9.27,0-18.51-1.17-27.85-.87-8.97.29-9.8-1.11-10.11-10.63-.29-8.97,1.06-18.16-1.18-26.86-3.07-11.91-4.18-23.47.31-35.19.58-1.51.64-3.28.65-4.92.08-20.26,2.68-40.47.07-60.8-1.35-10.51-1.91-21.35-.94-31.87,1.43-15.55,3.19-31.14,6.82-46.41,1.72-7.21,2.69-14.32-1.21-21.37-1.2-2.17-1.43-5.27-1.1-7.81,1.64-12.63-.18-25.27.34-37.9.19-4.68,1.61-7.85,5.57-9.55,13.49-5.79,26.17-13.05,38.84-20.38,1.7-.98,3.68-1.67,5.62-2.02,15.79-2.88,30.7-8.09,44.36-16.63,9.85-6.16,19.26-12.34,25.66-22.93,6.12-10.14,13.89-19.37,21.91-28.3,5.66-6.3,9.73-13.86,10.91-23.03-5.22-.5-6.99,3.16-9.33,5.64-3.42,3.63-5.94,8.39-9.9,11.15-10.34,7.22-17.96,17.13-24.94,26.97-10.41,14.68-25.74,20.78-41.02,26.23-18.33,6.55-38.1,9.05-54.6,20.65-2.51,1.77-5.94,2.23-9.12,3.36-2-4.86-2.01-9.26-1.67-13.46,1.06-13.4-.46-26.65-2.58-39.75-3.07-18.98-2.63-37.77.17-56.68,2.05-13.84,2.76-27.73,2.59-41.8-.19-15.46-3.89-30.35-5.22-45.58-.52-5.95-.03-12.19-1.66-17.8-2.43-8.35-3.72-16.83-5.27-25.31-.99-5.37.24-9.9,3.91-13.8,7.08-7.53,14.28-15.21,23.12-20.47,18.81-11.2,34.29-25.89,48.1-42.61,2.05-2.49,3.59-5.54,1.19-7.91-1.93-1.9-5.01-.64-7.23,1.14-.52.41-.97.92-1.49,1.33-7.37,5.7-14.65,11.52-22.15,17.05-5.34,3.95-9.72,9.24-15.96,11.91-9,3.85-16.51,9.89-24.09,15.87-2.79,2.2-5.38,4.86-9.66,5.45-1.88-10.54,1.1-20.01,2.8-29.76,4.81-27.61,13.02-54.27,21.27-80.93,2.41-7.78,2.68-15.69,3.04-23.58.2-4.54-.78-9.47-6.57-11.03-4.91-1.32-12.19,1.3-14.94,5.71-1.04,1.66-1.51,3.68-2.28,5.51-.64,1.52-1.29,3.38-3.43,2.73-6.38-1.94-7.28,2.6-8.32,6.91-2.26,9.37-4.55,18.73-6.64,28.13-3.52,15.88-10.76,30.24-17.27,46.1-5.01-7.35-9.49-13.65-15.62-17.29-5.89-3.5-10.24-8.3-15.25-12.56-8.36-7.1-17.03-13.79-27.24-18.17-10.93-4.68-22.57-7.84-32.27-15.21-5.26-4-10.43-8-13.69-14.22,11.35-7.2,23.09-12.62,34.92-17.93,8.15-3.66,16.77-6.71,23.56-12.83,6.97-6.29,14.73-11.35,22.78-16.11,5.42-3.2,10.55-6.89,15.75-10.45,1.41-.97,2.5-2.4,1.65-4.23-.62-1.33-2.06-1.47-3.41-1.51-4.22-.11-7.65,1.8-11.03,4.07-11.04,7.42-22.3,14.33-34.39,20.11-10.52,5.02-21.89,7.92-32.01,13.83-10.74,6.27-22.66,9.78-34.64,12.4-8.7,1.9-18.22,2.29-25.98-3.31-6.03-4.35-12.48-7.68-19.15-10.58-6.58-2.86-11.66-7.61-17.23-11.79-2.06-1.55-2.96-3.47-2.81-5.99.58-10.07,2.01-20.08,7.52-28.67,3.32-5.18,5.87-10.27,6.41-16.4.5-5.69,2.67-10.9,4.73-16.19,2.76-7.12,6.95-13.85,7.92-21.47.84-6.64,3.53-12.04,7.61-17,6.33-7.72,14.83-14.5,18.56-23.31,5.76-13.6,20.45-20.12,24.55-34.42.32-1.13,1.68-2.04,2.71-2.88,4.95-4.05,6.2-10.11,8.76-15.66-7.25,3.05-13.4,7.41-18.24,13.26-4.34,5.25-9.46,9.28-15.45,12.36-12.08,6.2-21.34,16.2-29.3,26.39-7.37,9.43-13.22,20.73-16.02,33.02-2.91,12.75-8.6,24.45-14.19,36.19-1.65,3.46-4.11,6.05-6.98,8.31-4.18,3.29-6.3,2.79-7.89-2.49-2.68-8.89-5.18-17.87-7.14-26.94-3.1-14.34-3.39-28.86-3.58-43.58-.23-18.26,2.07-35.88,6.63-53.26,4.42-16.89,4.47-33.24-1.64-49.7-3-8.07-6.1-10.79-14.46-10.62-6.75.14-8.06,1.46-8.2,8.18-.1,4.69.36,9.31,1.42,13.88,1.3,5.59,1.76,11.34.45,16.86-2.77,11.65-5.59,23.33-9.28,34.7-4.53,13.95-8.52,27.98-10.6,42.51-.33,2.27-.39,4.68-2.58,6.21-2.64-.32-3.63-2.68-5.27-4.24-7.73-7.31-15.06-15.13-23.36-21.74-14.03-11.17-25.47-24.19-33.59-40.26-6.64-13.14-10.38-27.32-15.71-40.93-3.51-8.95-4.37-18.89-7.27-27.86-3.55-10.97-6.48-22.16-10.27-33.07-.43-1.23-.93-2.65-1.86-3.44-2.34-2-5.16-3.55-8.13-1.6-2.6,1.7-.86,4.05-.29,6.27,3.6,13.91,6.04,27.86,3.81,42.41-1.39,9.07.83,18.2,4.91,26.13,5.39,10.48,9.08,21.42,12.02,32.67,2.33,8.91,5.93,16.84,12.81,23.24,2.63,2.45,4.62,5.66,6.57,8.74,10.75,16.96,23.54,32.16,38.78,45.22,13.88,11.89,26.25,24.58,28.7,44.02.61,4.88,2.88,9.53,4.28,14.32,2.87,9.8,9.64,15.1-10.19,13.78-9.97-.67-20.1-.47-29.79,2.18-15.68,4.28-31.22,2.01-46.42-1.21-13.33-2.83-26.6-5.99-40.03-8.38-2.72-.49-5.29-1.07-7.11-3.17-9.64-11.08-23.1-16.72-35.05-24.46-4.15-2.69-6.87-5.61-8.71-10.26-3.92-9.93-6.89-20.2-9.25-30.48-6.07-26.42-7.52-53.21-3.56-80.2,2.41-16.48,2.84-33.16,2.59-49.76-.12-7.85-2.88-15.62-3.05-23.68-.07-3.34-2.35-6.7-6.5-5.9-3.58.69-4.03,3.98-3.68,7.19.39,3.62,1.37,7.2-.08,10.84-3.1,7.79-4.38,16.02-5.26,24.28-1.42,13.32-6.66,25.82-8.6,38.91-2.61,17.66-8.17,34.31-14.65,50.7-3.86,9.77-9.04,19.02-14.27,29.82-1.4-3.6-2.78-5.65-2.9-7.77-.33-6.14-3.76-10.71-7.38-14.96-14.23-16.71-28.19-33.63-43.95-49.02-11.28-11.02-20.49-23.76-22.08-40.32-.57-5.95-.21-12.03-1.18-17.91-2.35-14.32-2.18-28.48,1.08-42.6,1.21-5.26.95-10.53.83-15.68-2.94-1.14-4.76.87-6.87,1.57-8.26,2.76-8.5,3.17-8.79,11.98-.07,2-.1,4-.01,6,.25,5.64.84,11.21-2.77,16.36-1.18,1.69-.93,4.47-1.07,6.77-.35,6.02.3,11.98,1.28,17.91,3.37,20.45-5.32,37.13-17.16,52.41-15.84,20.44-38.14,32.34-60.74,44.06-.1-1.04-.42-2.02-.23-2.89,3.81-18.07-3.53-33.29-12.38-48.06-2.06-3.43-5.06-6.61-8.69-8.07-11.06-4.45-19.62-12.49-28.81-19.52-12.94-9.89-22.94-22.92-34.55-34.27-2.06-2.01-3.36-4.95-4.56-7.66-2.16-4.86-3.92-9.9-5.95-14.83-3.09-7.51-4.78-15.26-4.08-23.39,1.3-15.25,1.98-30.57,4.74-45.67,2.7-14.77-1.06-28.06-9.23-40.32-1.99-2.98-5.45-2.77-6.91.64-1.03,2.39-1.37,5.13-1.68,7.75-.91,7.63-1.95,15.33-4.97,22.37-9.56,22.26-10.55,45.78-11.39,69.46-.62,17.39,2.08,34.49,3.11,51.73.86,14.29,1.32,28.53,5.64,42.4,1.38,4.45,13.76,29.35,12.2,35.05-3.75-1.63-15.88-24.6-17.34-27.42-4.49-8.73-10.33-16.24-18.27-22.11-3.27-2.42-5.22-5.92-7.1-9.51-8.48-16.22-16.64-32.63-25.83-48.44-8.42-14.48-11.5-30.52-14.26-46.43-1.64-9.45-3.13-19-4.83-28.47-1.31-7.32-6.37-10.78-12.75-9.51-4.19.84-5.78,3.96-5.03,11.43,1.1,10.93,1.67,22.03,4.06,32.7,3.19,14.22,4.73,29.05,11.68,42.2,7.93,15.01,15.16,30.38,23.72,45.08,4.61,7.92,8.19,16.45,14.07,23.93-9.46-.81-18.29-1.18-26.65-5.16-11.67-5.55-23.44-11.03-36.23-13.72-1.52-.32-2.97-1.47-4.22-2.51-10.94-9.06-20.43-19.62-32.19-28-7.71-5.49-16.26-6.72-24.13-10.5-1.08-.52-2.63-.27-3.93-.1-1.67.21-3.35.8-3.93,2.57-.59,1.8.45,3.07,1.8,4.24,17.4,14.93,34,30.82,52.72,44.18,4.63,3.31,9.32,6.94,11.69,12.11,5.25,11.48,12.33,22.09,15.88,34.39,2.84,9.84,7.99,18.23,17.11,23.74,2.51,1.52,4.77,3.64,6.74,5.86,2.95,3.33,6.43,5.61,10.48,7.39,14.26,6.26,29.59,5.08,44.53,10.02,6.83,2.26,20.19,4.05,16.37,10.52-2.19,3.7-13.4,19.35-15.2,23.38-6.42,14.4-22.97,24.65-32.19,37.28-12.91,17.69-27.38,34.29-36.35,54.68-4.61,10.47-10.04,20.62-17.45,30.72-11.5-11.64-22.61-22.51-33.26-33.82-4.81-5.1-9.41-10.21-15.38-14.08-24.21-15.7-38.86-37.69-43.18-66.42-.59-3.93-1.9-7.75-2.89-11.62-.58-2.28-1.41-4.4-3.21-6.08-2.13-2-4.26-2.98-7.14-1.39-3.01,1.66-2.99,3.59-1.76,6.57,3.17,7.71,4.77,15.9,6.87,23.95,6.17,23.6,16.83,44.5,35.32,61.21,7.85,7.1,16.98,13.22,22.94,22.08,8.56,12.73,17.86,24.86,27.64,36.62,3.2,3.85,3.01,6.66.31,10.41-5.8,8.08-11.17,16.46-16.98,24.54-14.1,19.62-22.38,41.33-24.73,65.45-.77,7.89-1.97,16.06-4.87,23.35-5.3,13.33-4.72,26.59-2.48,40.15,1.3,7.88,2.97,15.71,3.95,23.62.59,4.77-1.99,6.32-5.99,3.8-3.92-2.48-7.69-5.31-11.14-8.41-4.53-4.06-9.52-7.33-15-9.79-21.83-9.8-43.84-19.19-65.54-29.26-11.72-5.44-24.06-9.84-34.26-18.21-7.84-6.43-17.46-6.79-25.77-1.29-2.08,1.38-2.18,3.11-1.9,5.13.4,2.94,2.63,4.39,4.76,6.06,22.23,17.31,46.66,30.56,72.86,40.84,12.37,4.86,24.26,11.07,35.22,18.62,12.05,8.3,22.76,18.36,33.95,27.8,4.6,3.88,6.21,7.86,4.14,13.94-2.99,8.78-5.71,17.71-7.01,26.98-3.2,22.74-11.33,43.52-23.22,63.23-11.92,19.77-30.56,28.7-51.12,35.29-10.46,3.35-21.74,2.66-32.16,6.33-3.71,1.31-7.16.45-10.63-1.07-5.54-2.42-11.43-4.04-17.38-4.29-11.63-.49-23.18-1.8-34.78-2.63-8.06-.57-15.88-1.57-23.17-5.15-1.85-.91-3.64-1.6-5.68-1.48-1.89.12-4.17-.5-5.09,1.95-.71,1.92.77,3.09,1.95,4.2,3.87,3.64,7.62,7.34,12.29,10.12,13.32,7.92,28.37,11.2,42.71,16.36,4.03,1.45,8.41,1.75,12.69,2.39,13.46,2.01,27.16,2.6,40.3,6.47,4.83,1.42,9.63,2.26,14.7,2.37,9.91.22,18.73,3.87,26.86,9.5,3.6,2.49,4.47,4.91,2.77,9.18-7.59,19.16-6.05,37.95.62,57.39,4.46,13,6.58,26.96,5.18,41.19-1.36,13.88-2.71,28.02.2,41.77,4.27,20.19,18.01,35.99,26.7,54.17.14.29.39.55.65.75,8.47,6.54,12.87,15.63,16.61,25.38,6.05,15.74,8.69,32.04,8.57,48.73-.07,10-1.44,10.55-11.36,10-10.43-.58-21.2.62-29.75,6.06-16.72,10.62-35.4,14.85-53.92,20.05-11.82,3.32-23.7,6.47-34.92,11.6-3.66,1.67-7.17,3.44-5.39,9,23.85-3.98,47.07-9.43,69.71-16.92,9.44-3.12,19.56-4.18,28.42-8.94,8.11-4.36,17.05-5.52,25.82-7.28,5.49-1.1,7.46,1.08,6.36,6.63-1.17,5.86-3.39,11.58-4.01,17.48-.88,8.36-4.66,14.94-9.52,21.52-9.38,12.7-13.27,28.15-19.97,42.22-.54,1.13-.27,2.63-.45,3.95-1.85,13.32-5.78,26.18-13.44,37.06-7.78,11.05-12.95,23.18-18.49,35.26-4.34,9.46-5.2,19.91-8.77,29.55-6.81,18.34-16.55,33.35-38.84,34.82-8.03.53-15.82,3.93-21.93,8.96-10.88,8.97-23.79,14.65-34.9,23.11-10.18,7.76-21.73,11.31-34.39,11.64-3.33.09-6.66.19-9.84,1.38-1.94.72-3.93,1.67-3.71,4.04.2,2.06,1.8,3.53,3.63,4.49,2.56,1.34,5.24.61,7.8.02,8.41-1.93,16.8-3.97,25.18-6.03,9.81-2.42,19.34-6.43,26.77-12.79,13.85-11.85,30.29-16.11,47.29-18.29,8.22-1.05,15.69-3.02,22.34-7.3,6.13-3.94,12.48-6.02,19.58-6.5,11.3-.77,22.49-2.13,33.28-5.89,2.17-.76,4.61-.72,6.85-1.33,3.41-.92,5.85-.01,7.41,3.2,3.72,7.66,10.1,13.03,15.82,19.08,6.59,6.95,13,14.16,17.7,22.75,3.48,6.36,7.05,12.78,12.5,17.9,10.41,9.77,21.07,19.21,32.25,28.14,9.3,7.42,10.42,18.89,12.33,29.66.3,1.71-.76,4.03-1.88,5.55-3.88,5.27-7.03,11.03-13.99,13.59-5.21,1.91-10.02,5.3-14.49,8.71-4.21,3.22-10.24,5.5-9.33,12.73.09.68-.9,1.64-1.58,2.24-5.7,5.07-11.27,10.31-17.22,15.07-20.26,16.2-40.78,32.08-60.93,48.42-6.18,5.02-12.33,8.36-20.62,8.29-5.92-.05-11.94.56-17.9.98-11.56.81-23.48.68-33.39,8.2-6.62,5.02-13.13,10.2-19.63,15.38-2.03,1.62-4.87,3.34-3.12,6.46,1.92,3.42,5.43,4.03,8.67,2.22,3.16-1.76,5.92-4.27,8.79-6.52,8.8-6.9,18.8-12.67,29.63-13.3,11.22-.65,22.47-2.38,33.74-1.9,7.73.33,15.27-.26,22.76-2.01,4.74-1.1,9.47-2.23,14.88-3.51-1.29,19.65-5.25,37.91-12.3,55.52-1.11,2.77-2.05,5.62-3.19,8.37-9.45,22.76-19.66,45.05-38.64,61.85-1.72,1.52-3.42,3.25-4.58,5.21-4.06,6.9-8.82,13.3-13.6,19.7-4.05,5.43-4.99,10.69-2.26,11.44,5.04,1.39,7.83-2.2,10.51-5.76,4.19-5.56,7.49-12.65,13.02-16.19,11.26-7.22,17.11-19.54,27.85-26.98,2.77-1.92,3.93-5.22,5.43-8.22,6.85-13.67,13.89-27.25,20.94-40.82.89-1.72,1.87-3.58,4.35-4.12.54.61,1.39,1.2,1.71,1.99,9.01,22.22,21.23,42.9,30.94,64.79,8.21,18.52,11.88,37.89,10.62,58.2-.64,10.26.24,20.49.83,30.74.47,8.15,1.61,16.82-2.11,24.55-7.35,15.26-15.27,30.24-22.86,45.39-2.36,4.71-5.99,7.48-10.78,9.74-14.7,6.93-30.78,7.97-46.24,11.57-5.61,1.31-11.19.57-16.81-.57-9.76-1.98-19.6-3.62-29.41-5.35-2-.35-4.22-.56-4.88,2.01-.61,2.41,1.22,3.59,3.08,4.44,4.84,2.22,9.67,4.49,15.02,5.19,2.63.35,5,.73,7.2,2.77,6.63,6.16,15.29,6.79,23.36,5.65,7.32-1.04,14.53.43,21.78-.85,6.03-1.07,9.39,4.57,13.09,7.8,2.63,2.29-.37,6.78-1.99,10.06-4.59,9.26-8.3,18.84-11.27,28.76-3.91,13.05-7.92,25.95-8.88,39.74-.36,5.25.39,10.71-1.1,15.82-3.51,12.05-1.31,23.72,1.92,35.34,1.63,5.84,2.67,11.74,1.79,17.76-2.34,16.08-.04,31.81,3.25,47.49.36,1.7,1.61,3.62-.66,5.33-.8-.65-1.72-1.1-2.23-1.84-6.95-10.05-16.24-17.34-26.64-23.51-6.05-3.59-13.73-4.64-18.72-8.78-8.07-6.69-17.06-9.09-26.55-9.57-11.08-.55-18.36-6.21-22.94-15.09-5.36-10.39-14.48-16.29-23.47-22.37-7.32-4.94-15.31-3.88-23.83-.55,2.41,4.59,6.25,6.05,9.47,8.23,9.62,6.49,19.3,12.52,25.15,23.53,3.46,6.52,9.31,11.62,17.36,14.02,11.93,3.56,23.64,7.07,34.05,15.38,17.49,13.96,33.89,28.48,45.44,47.88.84,1.42,1.82,2.87,3.06,3.91,7.96,6.61,12.04,15.48,16.12,24.77,3.9,8.86,6.25,18.26,10.43,26.94,3.07,6.35,1.75,11.68-2.9,16.33-5.71,5.71-10.07,12.37-14.28,19.17-8.33,13.43-19.41,24.34-30.94,35.02-14.77,13.68-31.02,24.91-48.69,34.5-15.32,8.31-30.84,15.98-48.19,18.33-16.85,2.28-32.01,8.67-46.68,16.65-4.36,2.37-8.54,5.2-12.44,8.28-2.94,2.32-5.23,5.73-3.11,9.58,1.87,3.39,5.49,4.59,9.35,4.54.64,0,1.26-.5,1.9-.55,8.47-.7,16.06-4.03,23.53-7.76,7.78-3.89,15.59-7.55,24.74-6.17,1.89.29,4.01-.2,5.9-.76,10.19-3.04,20.3-6.31,30.51-9.29,3.69-1.08,6.36-5.12,11.32-3.69-2.3,6.79-5.24,13.33-6.67,20.18-2.56,12.27-.83,25.18-5.26,37.25-.54,1.48-.32,3.32-.13,4.96.86,7.42-1.08,14.37-2.61,21.56-3.19,14.98-12.3,22.8-26.69,25.9-3.84.83-7.61,2.48-11.1,4.33-6.14,3.27-11.84,7.15-17.3,11.63-8.17,6.7-18.04,10.94-27.46,15.76-3.82,1.95-4.89,6.22-2.26,8.77,1.46,1.41,14.03,2.01,15.72.54,8.12-7.05,17.7-11.9,27.1-16.71,12.37-6.33,25.03-12.44,39.83-10.82,7.27.79,12.71,3.58,16.04,10.09,4.7,9.22,11.16,17.33,16.44,26.15,3.94,6.57,10.19,11.52,12.73,18.99,2.72,7.99,6.14,15.45,14.41,19.41,1.4.67,2.52,2.2,3.42,3.56,5.56,8.38,13.71,13.25,22.57,17.39,8.68,4.06,17.14,8.61,27.51,13.87-11.65,5.17-21.35,8.03-31.74,8.44-14.01.56-25.8,8.26-38.68,12.46-2.34.76-4.15,3.24-6.16,4.97-1.76,1.51-3.27,3.44-5.23,4.57-15.15,8.75-11.89,8.36-22.33-1.86-9.72-9.53-18.55-20.11-30.23-27.37-7.89-4.9-16.97-7.77-24.53-13.3-7.8-5.71-18.53-5.11-25.65-12.19-.2-.2-.64-.28-.95-.26-2.69.21-6.03-3.44-7.97.57-1.99,4.11,2.31,4.8,4.6,6.25,2.52,1.59,6.11,2.1,7.84,4.22,6.95,8.55,17.19,12.57,26.25,16.96,16.76,8.1,25.86,23.64,39,35.1,5.03,4.39,3.12,9.18-3.34,9.16-8.13-.03-14.86,2.57-21.37,6.88-1.89,1.25-4.29,2.44-6.45,2.44-10.25.03-19.05,5.73-28.93,7.07-3.09.42-5.53,2.22-7.6,4.48-1.69,1.84-1.47,3.59.54,5.01,4.69,3.31,9.75,3.65,15.22,2.2,4.79-1.27,9.25-3.98,14.43-3.55,5.25.44,9.93-1.31,14.14-4.07,5.49-3.59,11.28-5.35,17.86-5.06,3.97.17,7.98-.3,11.96-.55,9.88-.61,9.82-.6,14.22,8.43,1.33,2.73,2.51,5.4,2.42,8.53-.1,3.72.84,7.28,2.15,10.71,6.58,17.16,15,33.49,25.87,48.2,6.57,8.89,13.43,18.25,24.68,22.54,2.82,1.08,6.28,2.46,6.71,7.18-6.76-.99-13.26-2.28-19.81-2.83-15.23-1.28-29.14-5.7-41.8-14.61-13.46-9.46-29.73-13.08-44.46-19.94-4.07-1.89-6.2,1.22-7.74,4.25-1.59,3.12.46,5.02,2.98,6.37,7,3.75,13.49,8.3,21.42,10.45,9.27,2.52,17.74,7.2,26.18,11.88,9.5,5.27,18.1,13.54,29.68,13.23,14.65-.39,27.05,4.52,39,12.29,4.97,3.23,10.38,5.52,14.68,9.98,7.77,8.07,16.71,14.84,24.4,23.16,5.48,5.93,12.54,10.81,18.58,16.49,8.25,7.74,11.17,17.19,7,28.07-2.44,6.37-3.14,12.92-3.05,19.6.05,3.7-.33,7.17-1.46,10.77-2.39,7.6-4.59,15.31-6.17,23.11-1.34,6.64-3.78,12.63-7.29,18.36-4.71,7.7-8.03,16.02-10.54,24.71-2.21,7.66-4.25,15.4-7.78,22.62-1.52,3.12-3.24,5.45-7.21,5.94-27.88,3.47-53.59,12.38-75.51,30.64-8.42,7.01-16.91,13.94-25.33,20.96-1.55,1.29-3.1,2.97-2.58,5.09.67,2.7,3.35,2.64,5.56,3.27,5.03,1.42,8.19-1.6,11.45-4.47,8.24-7.25,15.94-15.5,26.32-19.55,16.46-6.41,32.09-14.52,48.08-21.89,4.04-1.86,8.11-2.64,13.52-1.02-7,16.49-11.9,33.27-16.51,50.17-3.79,13.89-11.85,25.99-17.98,38.9-2.53,5.32-6.27,10.47-2.22,16.77.89,1.39.17,3.23-.4,4.83-1.82,5.14-.95,10.58-1.69,15.8-2.04,14.27,1.2,28.51-.28,42.73-.33,3.23-.24,6,2.96,7.71,3.35,1.8,5.63-.81,8.21-2.09,2.3-1.14,3.18-3.34,3.73-5.63,3.29-13.55,6.59-27.11,9.75-40.69.52-2.24.54-4.64.5-6.96-.14-7.47,1.54-14.62,4.43-21.37,6.15-14.38,12.32-28.87,20.8-41.97,7.07-10.92,13.68-21.98,19.05-33.79,1.47-3.24,3.79-5.18,6.5-7.22,15.18-11.46,32.76-17.41,50.71-22.58,4.49-1.29,8.85-1.13,13.6-.59,18.78,2.14,37.36,6.61,56.49,5.41,5.75-.36,11.28.85,15.69,5.13,1.99,1.94,4.49,3.08,7.27,2.66,11.74-1.78,23.03,2.82,34.68,2.29,4-.18,5.49.79,4.97,5.82-1,9.84-1.95,20.11,1.08,29.66,4.63,14.6,5.62,29.49,3.92,44.33-3.06,26.71-8.6,53.18-8.88,80.16-.17,16.28-.29,32.81,2.21,48.82,3.23,20.68,6.11,41.42,9.37,62.1,1.24,7.87,2.52,15.74,3.83,23.6.4,2.44,1.47,4.41,4.15,5.01,1.42.31,3.07.05,3.52-1.14,1.88-4.99,6.24-9.18,3.52-15.55-6.21-14.55-6.58-30.39-9.03-45.73-3.59-22.51-2.22-45.09.23-67.71,1.54-14.21,4.15-28.31,4.9-42.56.43-8.15,1.95-15.8,4.82-23.29,4.83-12.59,6.87-25.74,6.99-39.1.2-22.2,5.81-43.4,11.41-64.56,2.73-10.33,16.64-17.5,26.09-13.37,11.51,5.04,23.52,9.16,33.64,17.22,15.89,12.66,30.19,27.06,45.42,40.41,21.79,19.09,36.42,42.98,49.92,67.93,6.55,12.1,11.07,24.84,13.94,38.32,2.36,11.1,3.9,22.29,5.52,33.49.39,2.68-.25,18.1,3.16,18.68,3.59.61,7.5-12.84,9.32-16.38,3.06-5.96-2.57-15.26-3.43-22.16-2.35-18.89,2.66-34.31-5.56-51.57-10.45-21.93-21.31-43.71-37.65-62.13-1.25-1.41-3.78-2.95-1.87-5.72,6.07,2.67,10.74,6.77,15.2,11.37,4.62,4.76,23.07,11.41,28.97,14.65,15.54,8.53,16.78,10.88,34.99,12.51,9.91.89,19.06-.67,28.45.85,7.24,1.17,14.33,2.37,21.74,1.54,6.9-.77,13.04,2.02,18.7,5.8,2.49,1.66,4.94,3.37,7.38,5.1,13.53,9.63,23.27,21.61,24.53,39.02.43,5.96-.31,12.77,2.36,17.62,4.78,8.7,6,17.83,5.54,26.96-.81,16.05,6.04,30.41,8.3,45.72.21,1.41,1.19,2.47,2.67,2.5,1.43.03,2.39-.98,2.93-2.26,1.43-3.4-.49-7.75,2.18-10.57,5.26-5.55,3.81-11.77,2.18-17.83-2.52-9.37-3.98-18.87-4.97-28.49-1.05-10.19-2.79-20.29-3.68-30.53-.68-7.78-.63-14.95,1.67-22.53,2.53-8.31,7.88-15.56,9.13-24.14,1.2-8.24,4.38-15.21,9.76-21.4,2.84-3.26,5.55-6.67,6.68-11,1.79-6.85,5.08-13,8.93-18.87,5.52-8.42,9.53-17.43,11.11-27.47.36-2.26,1.36-4.45,2.25-6.59,3.43-8.3,3.67-8.38,12.5-5.12,4.99,1.84,10.07,3.48,14.92,5.63,8.51,3.78,17.03,7.63,23.93,14.18,13.03,12.37,26.74,24.05,38.74,37.48,2.69,3.01,5.5,5.99,9.29,7.42,11.71,4.42,20.42,13.02,30.32,20.09,9.19,6.55,11.03,13.86,11.4,23.29.1,2.66.07,5.35.42,7.98,2.97,22.75,6.38,45.47,5.98,68.52,0,.33.1.66.17.98,4.23,20.35,1.65,40.7-2.43,60.47-3.95,19.17-7.51,38.52-13.17,57.36-2.19,7.3-2.95,14.98-3.21,22.68-.58,17.3.14,34.62-1.63,51.91-.84,8.22-.42,16.65.27,24.91.68,8.26,1.86,16.63,7.72,23.27,1.55,1.75,3.38,3.54,5.94,2.98,3.08-.67,4.05-3.31,4.15-6.1.26-7.29,1.58-14.52.27-21.91-1.16-6.54-2.13-13.48.7-19.72,3.54-7.8,4.89-16.14,4.98-24.25.19-17.72,2.95-34.89,5.73-52.34,3.94-24.7,10.12-48.78,15.61-73.07.43-1.9,1.29-3.8,2.36-5.43,5.5-8.37,9.82-17.36,14.24-26.31,4.41-8.93,9.33-17.58,17.07-25.24,8.09,9.39,13.92,19.88,20.9,29.51,11.5,15.87,22.09,32.32,36.48,46.03,8.78,8.36,20.14,14.45,25.28,26.43.55,1.27,2.56,2.01,4.01,2.78,2.73,1.45,5.03,3.58,6.52,6.07,8.47,14.04,20.42,25.4,29.64,38.81,5.31,7.72,11.22,14.89,17.55,21.72,4.08,4.4,8.04,8.82,11.33,13.88,7.56,11.63,18.35,19.96,29.37,28,2.34,1.71,4.93,2.29,7.45.68,3.12-1.99,2.68-5.09,1.82-8.06-.36-1.25-1.05-2.46-1.81-3.53-3.46-4.87-6.48-10.01-10.6-14.48-7.65-8.29-14.86-16.85-20.89-26.59-3.53-5.7-6.1-11.66-8.78-17.61-3.58-7.95-10.69-13.69-13.48-21.95-3.59-10.63-10.79-19-17.32-27.61-13.02-17.19-26.6-33.97-42.69-48.57-8.08-7.33-16.36-14.81-17.26-27-.16-2.16-1.79-4.26-2.9-6.31-7.63-14.07-13.88-28.76-19.36-43.76-2.39-6.55-4.99-13.21-5.98-20.04-3.33-23.04-.61-45.79,5.69-68.01,4.78-16.85,9.43-33.73,17.4-49.6,4.58-9.12,7.17-19.27,11.62-28.6,4.39-9.22,5.87-19.01,4.92-29.2-1.14-12.24,3.49-22.66,10.33-32.82,7.49,10.34,15.17,19.84,23.33,29.04,12.85,14.51,27.19,27.25,42.53,38.93,6.34,4.82,13,9.23,19.64,13.63,2.31,1.53,5.85,2.48,6.49-1.1.61-3.42,1.9-7.71-3.08-10.42-5.21-2.84-10.85-5.96-14.47-10.44-7.62-9.43-17.62-16.12-25.97-24.68-13.58-13.92-25.66-28.73-34.08-46.37-1.83-3.84-2.51-7.32-.37-11.34,9.87-18.53,17.14-38.23,25.38-57.48,11.28-26.35,26.45-50.76,38.42-76.77,2.2-4.79,5.9-8.86,11.05-11.15,1.5-.67,2.98-1.54,4.2-2.63,16.82-15.01,27.22-33.3,28.36-56.23.16-3.21.11-6.44,3.04-9.45,2.12,4.58,3.68,8.81,4.9,13.34,3.42,12.63,3.43,25.55,4.72,38.42,2.05,20.48.24,40.71-2.58,60.68-2.05,14.51-4.51,28.83-4.01,43.51.18,5.38-.65,10.6-2.1,15.78-1.53,5.47-2.81,11.16-1.54,16.76,2.74,12.12,4.28,24.22,2.19,36.62-.43,2.53-.63,5.84,2.95,6.43,4.04.66,6.16-1.72,6.57-5.67.89-8.59,2.74-17.21,1.18-25.82-1.01-5.58-.85-10.12,3.22-14.74,2.98-3.38,4.94-7.95,5.36-12.7.76-8.6,1.76-17.13,1.23-25.88-.62-10.27.27-20.73,3.36-30.6,3.31-10.56,4.48-21.51,5.6-32.26,1.47-14.11.12-28.48.6-42.72.37-10.8-3.58-21.1-3.28-31.67.3-10.26-2.99-19.51-5.11-29.16-2.34-10.62-6.74-20.63-9.64-32.28,12.15,4.61,21.14,11.62,27.87,21.23,3.47,4.95,7.09,9.71,11.44,13.78,8.15,7.63,14.21,16.76,19.62,26.32,5.93,10.49,15.49,18.14,21.53,28.5.64,1.1,1.64,2.14,3.42,1.67,2.19-1.84,1.09-4.15.4-6.21-3.35-10.04-7.74-19.64-11.94-29.35-12.45-28.8-34.11-49.47-58.23-68-4.73-3.63-9.52-7.13-13.79-11.28-11.91-11.59-24.34-22.59-38.45-31.39-8.18-5.1-17.09-9.03-21.9-18.15-.57-1.08-1.99-1.72-3.05-2.51-8.6-6.42-13.36-16.25-21.54-22.6,2.87-4.15,6.11-5.8,9.46-7.35,17.19-7.96,34.19-16.11,48.9-28.53,5.74-4.84,12.71-8.81,19.78-11.36,16.59-5.98,33.49-9.99,51.66-8.4,13.03,1.13,24.9,4.31,35.57,11.5,16.97,11.42,34.7,8.45,52.67,3.68.32-.09.63-.22.92-.38,2.01-1.05,4.77-1.74,4.17-4.74ZM376.6,257.4c-8.43-3.34-17.05-.98-25.49-1.82-10.51-1.05-19.65-5.52-24.83-15.62-3.03-5.92-6.07-11.83-8.97-17.81-1.88-3.87-3.46-7.87-3.25-14.29,16.39,7.38,32.04,13.76,47.05,21.42,9.47,4.83,14.48,14.42,19.12,23.67,1.63,3.25-.38,5.75-3.62,4.46Zm753.06,2140.09c.39,6.05,3.17,11.6,3.69,17.51,2.48,28.43,8.37,56.5,8.68,85.15.05,4.92.76,9.84,1.2,15.12-4.77-.67-7.4-3.88-10.06-6.65-14.94-15.61-29.22-31.78-42.05-49.22-4.93-6.7-11.07-12.44-18.26-16.72-4.59-2.73-9.12-5.68-12.77-9.4-11.14-11.37-22.5-22.54-32.41-35.08-10.7-13.54-21.82-26.74-32.74-40.11-1.39-1.7-3.79-2.91-2.86-6.72,5.94-.45,12.07-.15,18.23.81,8.97,1.4,17.91,2.07,26.19-2.77,8.52-4.99,18.03-6.46,27.53-7.83,8.75-1.26,16.74-4.11,23.45-9.97,3.07-2.68,6.7-4.33,10.34-5.91,3.25-1.41,5.37-6.4,9.16-4.71,3.28,1.46,3.67,6.14,4.9,9.49,7.94,21.8,16.29,43.53,17.8,67.03Zm-37.33,168.38c-2.1-5.84-3.89-11.8-5.83-17.71.6-.57,1.19-1.14,1.79-1.7,12.26,9.9,26.21,15.41,42.27,16.78-.75,6.43-3.77,11.36-7.91,15.61-4.45,4.57-8.2,9.54-11.14,15.21-1.36,2.62-3.09,5.2-5.19,7.25-6.01,5.86-10.19,12.99-15.47,19.81,1.23-5.15,1.93-10.5,3.79-15.41,5.2-13.73,2.39-26.77-2.31-39.84Zm-17.9-50.42c-5.66-15.81-13.49-30.84-20.84-47.11,3.29.02,4.57,2.03,5.88,3.45,8.11,8.85,19.8,13.27,27.5,22.68,6.28,7.68,13.2,14.84,19.66,22.38,3.68,4.29,7.5,8.36,11.86,11.99,2.93,2.45,6.58,4.45,7.86,8.44-1.73,1.38-3.8,1.76-4.93,1.03-9.57-6.18-21-5.15-31.32-8.33-7.64-2.35-12.63-6.07-15.66-14.53Zm-177.84,290.64c2.43,11.33,3.4,23,4.67,34.55,1.29,11.69,3.96,22.91,9.37,33.41,1.52,2.95,2.58,6.05,2.62,9.32-1.04,1.12-1.99.5-2.55-.15-15-17.79-26.49-15.26-40.25-34.17-2.72-3.74-12.41-24.82-15.66-28.15-12.11-12.37-21.27-27.19-33.16-39.73-2.22-2.34-3.17-4.73-2.52-8.08,1.26-6.52,2.14-13.13,3.07-19.71.67-4.7,3.06-7.92,7.48-9.73,11.37-4.65,21-12.81,32.91-16.42,3.14-.95,4.63-3.59,6.02-6.29,2.13-4.13,4.5-8.1,8.52-12.08,10.25,17.02,14.97,34.78,14.55,53.78-.33,14.75,1.83,29.07,4.92,43.45Zm-120.76-87.19c-7.16-11.84-5.7-16.05-16.74-25.62-4.6-3.98-9.82-6.34-13.09-11.71-10.19-16.73-20.16-33.48-33.55-48.2-6.91-7.6-10.16-18.55-15.08-27.97-1.23-2.36-.13-3.57,1.9-4.7,14.51-8.02,28.97-16.12,43.47-24.15,1.45-.8,2.98-1.61,4.57-1.95,15.67-3.3,27.44-13.04,38.68-23.54,5.03-4.7,10.78-7.19,17.4-9,13.42-3.66,26.59-8.29,38.88-15,4.09-2.23,8.12-4.44,13.4-3.19,0,16.65-.01,33.26,0,49.87.02,22.65.9,45.19,5.11,67.57,1.76,9.37-.05,19.14-.1,28.58-.06,13.1-5.67,22.87-11.53,33.2-1.49,2.63-3.4,4.92-5.83,6.76-15.87,12.01-31.74,24.03-47.85,36.24-3.91-3.12-2.16-7.73-2.88-9.81-1-2.9-13.95-12.71-16.79-17.4Zm-128.61-332.31c-1.53-5.79-3.13-10.82-4.1-15.96-.6-3.22-.61-6.67-.24-9.94,1.26-11.22,1.48-11.28-4.05-20.93-4.09-7.15-6-14.61-5.35-22.91.54-6.94,1.08-13.94-.26-20.91-4.26-22.12-3.02-44.43-1.67-66.67.63-10.37-.02-19.8-8.15-27.3-.72-.67-1.13-1.69-1.88-2.32-14.34-11.95-21.45-28.47-28.23-45.12-3.4-8.35-4.91-16.87-3.53-26.2,1.46-9.87,3.62-10.46-8.31-15.52-1.27-.54-2.44-1.15-2.71-2.62-2.59-14.17-10.72-26.46-13.67-40.5-.97-4.62-9.39-23.46-8.62-28.03,1.01-6.02,12.27,2.49,18.57,2.77,4.45.2,9.01,4.99,12.71,7.56,6.28,4.36,12.83,8.33,19.03,12.79,10.6,7.62,21.92,13.8,34.18,18.29,8.82,3.23,16.47,8.62,24.44,13.41,4.77,2.87,6.55,8.32,10.19,12.09,8.4,8.7,10.09,18.71,7.58,30.09-.55,2.49.04,5.29.36,7.91,1.14,9.23,3.08,18.35,3.43,27.7.55,14.58,6.67,27.66,11.62,41.02,1.88,5.08,2.86,10.23,3.15,15.57.29,5.29,1.69,10.44,2.4,15.57,1.56,11.11.94,22.53-3.3,33.27-1.82,4.62-4.27,8.91-4.83,14.06-.3,2.85-1.65,5.9-3.39,8.22-6.99,9.31-11.51,20.21-19.2,29.07-7.32,8.44-10.48,19.21-15.1,29.12-3.92,8.4-7.19,17.1-11.06,26.43Zm-368.6,379.77c-6.11-9.93-3.47-20.76-2.94-31.22.51-9.99.78-19.85-.45-29.84-.87-7.08-.17-14.35,1.08-21.82,5,12.48,10.96,24.67,14.75,37.5,4.58,15.52,13.88,27.1,26.51,36.03,7.53,5.33,14.97,10.76,23.01,16.34-18,22.96-38.19,43.14-62.47,61.94-2.7-16.64-2.12-30.67-3.06-44.61-.39-5.76,2.54-10.97,3.34-16.57.37-2.61,1.78-5.23.23-7.75Zm86.25-573.46c5.31,3.85,8.41,9.31,10.73,15.31,1.8,4.65,3.62,9.29,5.47,13.92,2.45,6.13,5.83,11.34,13.12,12.18,2.95.34,4.58,2.28,6.4,4.27,10.9,11.91,14.17,26.6,16.03,42.03,2.24,18.49-2.77,35.66-9.05,52.49-5.93,15.88-13.2,31.22-21.29,46.17-2.6,4.8-6.23,7.39-11.26,8.96-7.59,2.37-15.05,5.2-22.56,7.83-3.21,1.12-5.9,2.96-8.14,5.54-6.56,7.54-14.63,13.39-22.23,20.51-6.47-7.88-12.19-14.77-17.83-21.73-9.04-11.17-13.15-24.32-15.23-38.28-1-6.74-3.75-12.75-8.02-18.02-3.67-4.53-5.86-9.61-6.39-15.42-.61-6.73-3.53-12.45-6.7-18.41-7.83-14.67-13.16-30.21-16.6-46.72-2.55-12.25-.88-22.01,6.81-31.32,4.43-5.35,7.7-11.59,12.77-16.48,1.64-1.59,3.58-3.41,4.16-5.47,4.19-14.83,16.15-23.24,28.05-29.74,13.77-7.51,24.25-18.39,36.05-27.94,4.88-3.95,9.46-8.28,15.24-13.37.3,5.53-.58,9.66-1.83,13.96-4.61,15.85-1.76,29.55,12.27,39.73Zm-28.88-735.33c8.02,3.05,11.61,8.68,14.78,13.87,9.73,15.93,20.91,30.45,37.44,42.43-12.96,2.89-24.13,1.55-35.24.36-8.01-.86-11.42-5.13-11.7-13.29-.14-3.98-.21-7.97-.09-11.95.31-10.32-.25-20.52-5.19-31.42Zm-11.8-259.49c-1.44-8.07-5.56-16.38-2.92-24.75,2.44-.99,3.94-.18,5.33.7,16.48,10.36,34.33,17.44,53.06,22.46,3.93,1.05,7.49,2.91,10.39,5.74,6.66,6.49,14.09,12.05,20.67,18.71,8.15,8.25,18.25,14.34,28.61,19.76,3.16,1.65,7.01,2.26,9.58,6.16-16.01-3.62-29.39,1.81-43.01,8.72-13.87,7.03-24.8,17.5-36.38,27.24-9.43,7.94-19.48,15.01-29.07,22.69-5.33,4.26-12.06,2.75-18.63,7.02-.34-11.12-.82-19.75-2.37-28.28-3.34-18.47-2.07-37.17-2.75-55.77-.25-6.73,4.34-11.73,6.57-17.57,1.67-4.38,1.81-7.89.92-12.83Zm163.14-723.65c-5.67-7.02-7.95-14.29-10.94-21.1-8.96-20.38-15.62-41.51-20.28-63.28-.89-4.15-11.57-50.89-7.7-53.34,4.65-2.93,15.62,28.82,18.7,31.56,5.44,4.84,10.31,24.92,14.99,30.59,7.75,9.38,11.23,20.36,10.2,32.2-.86,9.84-1.13,19.89-4.43,29.42-1.41,4.07.32,8.4-.55,13.95Zm-19.49,95.29c.63.38,1.26.76,1.89,1.14,2.33,17.37,4.66,34.73,6.98,52.1.46,3.41-.09,6.66-1.96,9.57-3.38,5.24-3.1,10.64-1.01,16.22,2.77,7.4,5.07,14.89,8.46,22.17,3.84,8.25,2.9,18.21,2.38,27.51-.18,3.32-2.86,3.21-5.23,2.53-5.42-1.55-10.85-3.11-16.19-4.94-8.8-3.01-17.55-6.14-26.26-9.4-3.39-1.27-6.98-2.46-9.44-5.37-7.12-8.47-16.54-14.34-24.49-21.87-3.14-2.97-6.54-5.55-10.69-7.15-4.41-1.7-8.08-4.64-11.09-8.26-2.16-2.59-4.46-5.01-7.4-6.59-9.99-5.39-14.19-14.71-16.45-24.98-3.27-14.88-6.25-29.78-10.49-44.45-2.81-9.71-.45-19.86.16-29.78.23-3.75,5.42-5.17,8.4-2.43,1.4,1.28,2.44,3.21,3.06,5.05,3.28,9.69,9.45,17.44,16.22,24.82.45.49,1.23.89,1.35,1.44,2.07,9.95,9.7,8.76,16.89,8.56,2.64-.07,5.26-.15,7.72,1.31,9.5,5.63,20.02,6.86,30.75,6.5,6.62-.22,13.3,1.42,19.85-.29,7.34-1.91,13.11-6.14,16.6-13.4Zm-105.06,104.21c6.44,4.22,14.48,4.69,21.09,8.89,3.54,2.25,8.03,2.99,11.48,5.76,6.68,5.35,13.44,10.61,21.41,16.89-5.77,1.02-9.22-.54-12.64-1.56-20.08-6.01-40.88-8.79-61.2-13.7-7.39-1.79-15.15-2.04-22.73-3.03-6.73-.89-12.8-3.17-17.8-8.03-2.22-2.16-3.86-4.62-4.9-7.42-2.57-6.94-.02-10.21,7.32-9.59,8.28.7,16.55,1.38,24.82,2.13,11.67,1.06,23.05,3.04,33.14,9.67Zm-60.09,31.76c24.26,3.83,48.45,8.03,72.23,14.32,20.6,5.45,41.39,9.84,62.72,11.44,8.98.67,17.67,3.18,26.17,6.11,6.95,2.4,13.17.68,11.36,7.55-4.06,15.46-14.61,33.09-23.91,46.66-6.32,9.23-9.99,20.38-17.43,28.97-5.45,6.28-10.96,12.41-15.76,19.26-4.79,6.84-9.07,13.93-13.19,21.16-10.36,18.17-20.67,36.36-31.16,54.45-2.06,3.54-3.77,9.2-8.48,8.37-3.93-.69-2.26-6.38-3.15-9.77-1.83-7.01-4.08-14.01-3.89-21.4.85-3.78-.2-7.42-1.18-10.85-8.75-30.54-20.87-59.64-38.13-86.41-12.05-18.68-19.4-39.29-25.33-60.49-2.09-7.47-1.34-15.25-.39-22.81.82-6.53,2.82-7.62,9.51-6.56Zm61.7,332.57c4.71,8.36,7.44,16.4,6.72,25.22-1.23,15.01-.06,29.89,1.51,44.79,1.39,13.21,7.33,24.86,12.77,36.54,3.65,7.83,5.63,16,9.22,25.39-13.71-7.06-26.73-11.83-38.02-20.22-5.83-4.34-12.62-7.36-18.85-11.18-7.66-4.7-8.75-6.96-6.66-15.64,2.86-11.9,2.84-24.49,8.37-35.77.43-.88.34-2.08.89-2.83,10.3-13.87,14.82-30.78,24.03-46.3Zm170.58-173c-6.28-14.86-8.43-45.19-6.81-62.66,6.49,3.65,10.56,22.28,12.88,27.61,3.19,7.36,7.39,14.17,12.19,20.54,6.9,9.15,11.7,19.66,15.04,30.15,4.89,15.36,7.92,31.49,7.36,47.93-.5,14.58-1.64,29.19.35,43.72,1.57,11.5,3.37,22.99,5.79,34.34,3.13,14.72,2.42,29.75,4.45,44.53.94,6.84,2.52,13.58,3.85,20.64-3.76-.94-3.99-3.93-4.79-6.24-7.42-21.38-17.74-41.54-26.17-62.49-1.48-3.68-3.24-7.41-3.81-11.28-2.21-15.01-8.29-28.7-14.33-42.31-5.05-11.38-8.08-23.36-9.85-35.34-1.2-8.15,1.92-16.95,3.2-25.45.25-1.63.81-3.24,1.44-4.77,2.64-6.45,2-12.31-.8-18.92Zm-12.75-307.44c-13.57-19.15-21.54-40.49-15.33-64.66,2.89-11.28,6.04-22.48,16.48-29.7,4.35-3.01,6.78-6.66,4.25-12.68-1.86-4.43-1.95-9.6-2.91-14.92,2.58-.62,3.75.04,4.83.81,28.5,20.09,56.64,40.66,81.25,65.51,13.07,13.19,26.55,25.98,38.52,40.29,8.24,9.85,18.02,18.42,29.47,27.68-20.91,7.86-34.61,24.91-54.3,32.59-7.04,2.75-11.91,8.58-16.46,14.21-8.11,10.03-18.48,13.23-30.78,12.36-4.63-.33-9.31-.05-13.95-.31-11.4-.62-20.45-5.24-25.69-15.84-2.35-4.76-4.43-9.64-7.29-14.17-3.33-5.3-4.09-11.28-2.7-17.31,2.07-8.93.22-15.92-5.41-23.86Zm204.69,79.33c8.58,24.82,15.74,50.13,25.68,74.49,2.7,6.61,6.96,12.02,11.13,17.62,4.02,5.41,3.91,7.42-2.12,9.99-16.12,6.86-31.92,15.12-49.87,16.22-8.25.51-16.35,2.05-24.81,1.45-14.1-1-25.87-8-38.31-13.17-5.17-2.15-10.1-4.91-15.55-6.49-14.86-4.3-25.43-13.71-32.99-27.1-2.96-5.24-4.53-11.76-11.61-14.12-1.89-.63-2.91-4.26-4.09-6.63-7.66-15.45-17.99-29.29-26.88-45.04,3.75-1.67,6.96-.91,10.12.22,7.27,2.6,15.01,2.78,22.49,4.25,7.1,1.39,10.33-.86,12.7-7.86,1.24-3.66,3.21-6.52,6.08-8.89,7.39-6.09,12.96-14.58,22.63-17.64,6.65-2.1,13.16-4.59,19.72-6.93,14.32-5.12,28.49-10.71,43.18-14.81,4.28-1.19,7.21-.71,9.4,2.86,8.31,13.51,17.77,26.19,23.09,41.58Zm277.9,196.21c.49,4.11,2.63,6.71,7.18,8.31,9.2,3.23,10.03,6.93,5.54,15.98-3.83,7.71-6.98,15.74-11.85,22.94-2.86,4.22-3.44,9.33-4.01,14.27-1.32,11.41-4.04,22.63-3.65,34.59-17.02-10.74-34.16-19.29-50.96-28.44-8.07-4.4-13.97-11.07-20.18-17.5-2.3-2.38-1.97-4.69-.57-7.2,2.1-3.77,4.02-7.66,6.39-11.26,6.4-9.7,12.93-19.3,18-29.81,3.67-7.61,9.78-13.37,15.52-19.34,8.74-9.09,17.7-17.98,26.59-26.93,1.17-1.18,2.55-2.44,4.29-1.28,1.15.77,1.24,2.26,1.13,3.6-1.12,14.54,4.91,27.96,6.59,42.07Zm23.88-72.09c-.44-3.03,2.35-3.65,4.49-4.45,5.03-1.87,10.33-2.56,15.62-3.15,6.9-.78,12.19-2.58,14.86-10.49,2.82-8.37,9.7-14.63,15.95-23.39-.8,9.06-3.07,15.68-6.64,21.57-7.1,11.72-10.25,24.45-10.36,37.88-.07,8.7,2.5,16.94,6.9,24.64,5.79,10.14,13.03,19.25,19.49,28.92,2.79,4.18,5.32,8.39,7.28,13.02,1.95,4.6,5.06,8.46,7.99,12.52,9.02,12.52,15.08,26.54,17.31,41.91.9,6.22,1.57,12.45,3.28,18.67,1.97-1.77-.18-5.03,3.52-6.24,3.09,4.39,2.97,9.6,3.36,14.74.49,6.44.06,13.13-2.81,18.53-3.79,7.13-3.3,14.35-2.22,21.28,1.53,9.79,1.5,19.77,4.16,29.46,1.9,6.93-.96,13.6-3.27,20.16-5.19-.51-7.99-3.8-10.99-6.89-12.28-12.62-25.28-24.29-39.12-35.33-10.06-8.03-19.04-14.73-32.14-17.32-14.56-2.88-17.12-6.97-20-22.24-1.74-9.21-6.54-18.52-1.63-28.22.14-.27.14-.69.04-.98-6.13-18.3,2.05-34.57,7.95-50.86,3.29-9.09,2.53-16.16-2.52-24.27-8.93-14.34-12.77-29.61-5.75-46.44,3-7.19,6.48-14.64,5.27-23.03Zm98.72-17.84c.07,1.33.3,2.7.09,3.98-3.17,18.96-.28,37.7,1.93,56.47.23,1.97.29,4.03.02,5.98-2.64,18.6-.88,37.21-.29,55.82.03.86-.22,1.74-.45,3.36-9.11-9.1-13.7-20.12-18.55-30.89-2.5-5.57-5.49-10.37-10.1-14.54-9.12-8.25-11.01-20.2-14.35-31.22-2.95-9.72-2.66-19.66.73-29.33,1.35-3.85,1.82-7.75,1.7-11.77-.16-5.13,1.06-10.06,3.62-14.36,4.17-7.03,6.33-14.7,7.35-22.58.73-5.62,3.15-10.09,6.43-14.29,2.07-2.66,3.98-5.36,5.01-8.56,2.18-6.71,6.95-11.09,12.74-14.89,2.59,2.44,2.51,4.61,2.22,6.46-3.18,20.25.78,40.26,1.91,60.36Zm-25.05-93.05c-11.23,7.14-19.91,16.24-23.87,29.33-1.26,4.15-3.66,7.78-6.55,11.08-8.01,9.18-18.59,14.43-30.02,21.15,4.29-24.56,6.38-47.57,6.33-70.64-.04-15.55-.86-31.44-5.71-46.3-4.53-13.87-5.71-27.91-6.15-42.17-.31-10.26-.48-20.49-4.7-31.73,6.43,2.76,9.74,6.96,13,10.67,11.21,12.75,23.18,24.69,35.68,36.15,7.88,7.23,10.85,17.9,17.72,26.02,5.09,6.01,8.67,13.32,12.85,20.1,9.21,14.93,6.42,26.81-8.58,36.34Zm73.39,327.01c-2.95-18.82-1.09-37.14,4.45-55.06,3.48-11.24,2.63-23.05,5.91-34.25,1.61-5.48,3.55-10.72,6.54-15.55.88-1.42,2.17-2.81,3.99-2.44,1.84.37,2.41,2.15,2.5,3.83.1,1.98-.07,3.99-.16,5.98-1.19,25.89-3.44,51.74.13,77.69,1.35,9.81.56,19.92.56,29.9,0,10.23-5.13,19.11-7.98,28.58-3.69,12.25-6.4,24.29-2.48,37.06,1.46,4.76,1.08,9.91,0,14.85-2.34,10.57-2.31,20.88,2.16,31.03,1.43,3.24,2.81,6.81,1.15,11.84-10.46-19.32-20.28-37.31-31.95-54.2-2.27-3.29-2.58-6.25-1.23-10.19,5.29-15.37,9.94-30.96,15.16-46.36,2.55-7.54,2.4-15.28,1.24-22.69Zm-6.04,154.13c.78,1.44,1.52,3.05,1.7,4.64,2.37,21.57,3.19,43.04-2.18,64.42-3.4,13.53-6.39,27.13-11.44,40.2-1.82,4.71-3.9,9.16-6.77,13.28-4.2,6.01-8.21,12.12-10.81,19.05-.58,1.54-1.29,3.19-2.39,4.36-9.86,10.47-16.09,23.61-25.48,34.44-3.03,3.5-5.63,7.43-8.07,11.39-4.77,7.74-10.44,14.55-17.9,19.88-6.74,4.82-9.05,12.16-9.98,19.92-1.75,14.57-7.04,27.55-17.63,40.55-.92-5.45-1.44-9.02-.37-12.54,5.19-17.11,5.47-34.87,5.26-52.36-.29-24.67,5.55-47.39,16.93-68.89,6.78-12.82,9.12-27.01,13.43-40.59.4-1.26.11-2.8.7-3.91,6.65-12.65,6.79-26.93,10.3-40.35,5.31-20.29,12.92-39.88,21.84-58.82,3.6-7.64,4.95-15.85,8.37-23.42.96-2.12,1.69-4.36,2.78-6.41,3.33-6.28,8.43-6.74,11.96-.66,6.84,11.79,13.24,23.85,19.76,35.83Zm-119.54,85.93c.91,4.93-.66,8-5.62,10.04-12.4,5.09-23.63,4.86-36.1-1.64-19.27-10.05-32.75-24.46-41.32-44.08-3.23-7.39-7.65-12.68-17.06-12.64-6.49.03-11.72-4.34-15.47-9.72-5.13-7.35-10.11-14.71-16.63-21.03-4.52-4.38-7.24-10.07-9.27-16.28-4.42-13.56-9.41-26.9-11.38-41.17-.87-6.31-1.47-12.55-1.05-18.86.8-11.96,1.64-23.91,2.68-35.85.87-9.97,5.2-19.11,7.29-28.83,1.68-7.84,1.85-15.25-1.04-22.51-4.8-12.06-6.03-23.97-3.72-37.04,1.86-10.53,3.37-20.75,9.68-31.27,9.01,14.02,20.89,22.89,32.39,32.43,13.19,10.95,26.61,21.92,36.55,36.38,5.82,8.46,13.99,14.98,20.63,22.86,8.59,10.2,16.4,20.95,23.53,32.1,8.49,13.27,13.22,28.2,15.71,43.79,1.36,8.52,2.78,17.02,5.04,25.38,2.09,7.69,2.48,15.75,3.82,23.55,3.88,22.59.52,45.05.62,67.56.04,8.93-.94,17.93.7,26.82Zm78.01,569.83c.03.94,1.07,1.91.96,2.79-1.72,14.08,1.88,27.4,6.57,41.1-1.53-.61-2.36-.67-2.62-1.08-10.64-17.41-24.21-32.57-38.33-47.02-12.17-12.46-22.82-25.35-30.71-41.09-6.52-13-14.63-25.08-19.35-39.12-2.14-6.36-5.91-12.3-8.47-18.75-10.45-26.39-12.26-53.56-8.53-81.29,1.43-10.64.41-21.24.83-31.85.2-5.01.29-10.04,1.94-14.76,1.89-5.4,6.86-6.81,9.69-2.54,12.29,18.57,28.28,34.46,39.05,54.1,5.18,9.44,8.3,19.22,8.54,30.3.32,15.38,3.76,30.28,11.51,43.88.82,1.43,1.8,3,1.91,4.56.83,11.89,6.7,22.21,10.16,33.27.4,1.27.53,2.74,1.27,3.77,7.2,9.9,8.29,21.27,8.11,32.96-.17,10.91,7.15,19.99,7.47,30.78Zm-41.18,283.09c1.94,7.51,2.33,14.99,1.28,22.73-2.34,17.11-4.2,34.29-6.37,51.43-.4,3.14-.05,6.63-3.09,9.37-3.64-3.24-5.31-7.6-7.27-11.75-12.53-26.53-21.83-54.16-27.68-82.92-3.57-17.57-9.85-34.45-12.84-52.19-1.44-8.53-2.97-16.99-3.62-25.63-1-13.25,3.73-14.5,2.71-27.76-.43-5.6,1.63-4.82,1.37-14.82,2.3-4.24.2-10.72,2.72-7.98,3.87,4.2,7.86,8.18,13.07,10.63,8.01,3.76,12.96,10.25,16.32,18.1,3.28,7.67,7.32,14.84,11.99,21.78,4.13,6.13,5.27,13.65,5.74,20.87.75,11.54,1.67,23.07,1.31,34.72-.34,11.21,1.54,22.47,4.37,33.43Zm-180.63,114.62c-1.66-7.06,1.33-13.34,5.07-18.78,6.74-9.82,9.05-21.23,12.83-32.12,1.74-5.02,2.13-10.61,4.44-15.3,3.96-8.07,4.93-16.68,4.87-25.18-.07-9.27,2.22-17.75,5.16-26.23.99-2.86,2.42-5.8,1.74-8.7-3.34-14.15,4.82-26.11,6.13-39.14,7.74-.33,10.98,3.99,13.15,9.52,4.76,12.12,11.88,22.95,18.08,34.29,6.93,12.68,13.13,26.17,13.2,41.31.03,7.21,2.09,11.28,10.22,14.39,13.95,5.33,26.05,14.49,32.48,29.12,4.78,10.88,11.07,21.09,12.8,33.25.8,5.63,5.43,9.79,8.43,14.57,13.63,21.76,25.31,44.48,32.75,69.16,2.31,7.66,4.32,15.42,8.42,22.32,2.26,3.8.84,5.47-2.02,8.18-9.86,9.37-22.8,13.26-33.93,20.15-13.9,8.61-29.06,10.23-44.21,13.28-5.77,1.16-11.39.99-16.77-.48-17.16-4.7-33.3-11.94-45.93-24.73-12.34-12.49-24.67-25.13-31.47-42.05-2.69-6.71-7.24-12.69-11.14-18.88-2.41-3.82-3.39-7.7-2.89-12.28,1.64-15.27,2.19-30.53-1.37-45.68Zm-36.17-173.46c.03-1.59-.43-3.42-1.26-4.76-5.36-8.69-4.49-18.6-5.55-28.08-.68-6.07,1.55-11.81,4.21-17.17,3.91-7.89,2.87-15.05-1.28-22.68-6.32-11.63-8.48-24.26-6.69-37.53,1.01-7.49.46-15.25,5-21.98,1.51-2.24-.07-4.47-1.26-6.48-2.67-4.49-3.63-9.46-2.65-14.42,1.43-7.26,1.22-14.56,1.32-21.83.17-11.53,2.86-22.29,8.07-32.48,4.06-7.94,4.92-16.66,4.79-25.2-.17-10.59,3.81-20.02,6.44-30.09,4.27,4.57,5.89,9.91,7.38,15.26,1.58,5.68,4.35,10.26,9.59,13.38,2.52,1.5,5.41,3.42,6.62,5.9,6.83,13.99,14.1,28.21,13.5,44.2-1.27,33.59-.83,67.1,1.65,100.6.86,11.62-.57,23.3,1.22,34.88.05.33.16.72.04.98-6.5,13.65-1.26,28.26-3.46,42.27-2.16,13.79-3.27,27.79-6.28,41.38-5.44,24.53-11.97,48.81-18.07,73.32-3.03-1.28-2.97-3.45-3.21-5.36-2.91-22.84-8.71-44.98-16.38-66.65-.78-2.21-1.83-4.41-1.45-6.75,1.73-10.44-2.51-20.41-2.29-30.73Zm-16.55,483.93c.91,8.68,2.25,9.34-8.92,11.12-10.12,1.62-20.1,4.15-30.12,6.38-4.64,1.03-8.54,3.33-11.9,6.82-7.78,8.09-18.36,11.01-28.27,15.71-.62-3.18,1.21-4.52,2.41-5.88,14.19-15.93,24.24-34.81,36.93-51.83,9.23-12.38,15.28-27.16,22.57-40.95,2.37-4.49,1.87-9.76,3.17-14.56,2.52-9.3,6.91-17.84,11.41-26.53,1.3,13.38,1.7,26.63,1.38,39.92-.48,19.94-.75,39.88,1.34,59.79Zm-.26-220.13c-.76,3.75-.75,8.07-5.03,11.11-3.01-5.6-3.92-11.83-5.85-17.54-3.43-10.15-9.21-18.84-16.62-25.73-11.95-11.13-22.58-23.36-33.74-35.17-6.74-7.13-12.4-15.2-20.14-21.63-5.07-4.21-7.56-11.41-12.59-16.45-10.5-10.53-21.34-20.82-29.49-33.46-1.72-2.66-3.93-5.02-5.04-9.29,11.72,4.7,22.43,8.93,32.55,14.53,2.37,1.31,4.06,3.32,5.86,5.32,7.34,8.16,14.85,16.17,22.29,24.23,2.28,2.46,4.69,4.96,7.86,6.01,11.47,3.83,18.73,12.87,25.16,21.95,9.32,13.17,20.26,24.63,32.17,35.25,6.06,5.4,8.58,11,6.2,19.26-2.01,6.98-2.18,14.46-3.62,21.63Zm-186.72-330.97c4.53-10.62,9.39-20.97,14.75-31.16,2.36-4.48,6.01-7.94,8.97-11.94,2.21-3,4.41-2.48,6.41.13,4.29,5.57,9.71,10,14.66,14.91,2.62,2.6,3.83,5.49,4.77,9.31,4.11,16.78,12.6,30.66,30.3,35.94,6.33,1.89,9.47,5.05,10.4,11.51.79,5.51,3.95,10.57,3.18,16.49-.32,2.43,1.3,4.5,2.95,6.12,14,13.67,27.58,27.89,44.87,37.6,7.68,4.31,12,11.31,15.9,18.69,8.1,15.31,14.01,31.27,18.29,48.24,3.23,12.8,7.51,25.27,8.3,38.56.25,4.24,5.35,5.19,5.72,9.94.61,7.79-.14,15.15-2.38,23.45-5.93-2.71-8.23-7.4-11.37-11.11-7.44-8.79-16.15-15.64-26.76-20.23-10.62-4.6-21.07-9.61-31.63-14.34-3.14-1.4-5.46-3.62-7.76-6.08-10.74-11.49-22.7-21.24-36.81-28.59-17.54-9.14-31.81-22.83-46.17-36.14-7.55-7-9.75-17.23-12.68-26.69-1.07-3.46-1.74-6.86-3.72-10.08-3.69-5.98-5.85-12.49-6.15-19.72-.26-6.23-.51-12.77-6-17.37-1.62-1.36-2.15-3.37-2.15-5.41.04-10.82-.55-21.15,4.1-32.04Zm-38.03-.26c6.14,8.03,7.12,16.74,6.98,26.96-.21,14.43,2.73,28.96,5.48,43.33,1.54,8.05,5.08,15.68,5.47,23.46-1.22,1.56-2.3,1.31-3.13.93-13.25-6.1-27.22-10.55-40.08-17.54-8.18-4.45-16.48-8.57-25.65-10.69-4-.93-7.23-3.21-9.57-6.7-2.96-4.42-5.97-8.8-9.03-13.15-3.01-4.29-2.66-7.84,1.69-11.12,4.23-3.19,8.18-6.76,12.29-10.11,4.17-3.4,6.87-7.88,10.03-12.14,5.26-7.09,11.73-13.43,18.38-19.32,15.21-13.48,33.28-22.97,49.81-34.62.4-.28,1.24.05,3.25.2-6.63,7.56-12.81,14.46-18.8,21.52-2.57,3.03-4.94,6.27-7.02,9.66-1.79,2.93-2.49,6.2-.1,9.34Zm-138.97,428.43c.92,3.18,1.68,6.47,2,9.76,2.02,20.58,8.58,40.23,12.27,60.45,2.7,14.82,6.53,29.07,14.25,42.12.8,1.36.64,3.32,2.12,4.36,8.22,5.79,12.39,14.6,17.17,22.95,2.04,3.57,4.99,6.32,8.15,8.67,5.94,4.41,10.53,9.99,14.81,16.25-6.17-2.44-12.65-3.97-18.17-8-13.84-10.11-29.19-16.63-45.69-21.46-17.73-5.19-35.85-9.56-52.22-19-11-6.33-23.21-9.64-36.2-9.74-11.01-.09-20.92-5.35-29.76-10.61-11.27-6.71-22.85-13.62-32.13-23.36-4.94-5.18-5.57-6.51-.33-10.14,7.95-5.51,13.88-13.24,22.04-18.47,6.81-4.36,13.69-8.08,21.75-9.42,2.6-.43,5.44-1.01,7.55-2.44,13.88-9.33,29.12-16.47,40.22-30.06,9.39-11.5,20.91-21.34,32.01-31.34,4.89-4.4,10.5-8.06,16.28-14.5,2.56,7.94,1.13,14.24,1.06,20.34-.09,8.07.57,15.9,2.81,23.65Zm-78.25-400.03c-.07-.32-.13-.65-.17-.98-1.56-10.81-.96-11.79,9.89-10.04,14.72,2.37,29.37,5.08,43.65,9.68,8.95,2.88,13.07,9.92,16.92,17.24,6.34,12.07,5.71,11.57-5.52,19.2-11.76,7.99-24.1,15.34-34,25.89-7.79,8.3-18.08,13.07-28.78,20.44-.95-8.76-.1-15.34.34-21.92,1.31-19.92,1.86-39.8-2.32-59.5Zm68.42-50.53c-2.1-3.77-3.84-7.75-5.6-11.7-10.61-23.68-23.24-46.32-35.84-68.97-1.76-3.17-4.19-5.98-6.35-8.93-2.08-2.85-4.58-5.49-4.92-10.03,5.25,2.53,9.06,5.51,12.35,9.22,2.44,2.75,4.88,5.67,8.39,6.95,9.03,3.27,17.96,6.56,26.49,11.24,4.9,2.69,11.12,1.25,16.04-2.41,4.53-3.37,9.02-6.79,13.51-10.22,1.3-1,2.44-2.35,4.98-1.16-1.19,8.91-.37,18.08-.46,27.26-.03,3.7,1.32,6.14-.16,9.53-5.66,12.98.98,12.34-.81,26.22-.17,1.32-3.81,16.84-4.03,18.15-.6,3.56,1.71,18.91-2.42,20.57-2.27.92-19.54-12.82-21.15-15.72Zm80.21,554.14c-1.95-6.35-4.32-12.58-6.55-18.84-1.91-5.37-4.34-9.38-5.76-15.08-2.07-8.28-3.37-8.8-5.95-14.24s-8.7-10.16-10.48-15.31c-2.82-8.16-5.1-16.55-8.44-24.49-13.24-31.46-7.95-63.84-5.1-96.09.47-5.29,1.65-10.46.9-15.84-.76-5.43.43-10.92,2.62-15.59,4.46-9.51,6.18-19.71,7.76-29.74,1.56-9.93,2.31-20.21,1-30.36-1.33-10.27-2.18-20.5-.11-30.79,1.22-6.08-.87-11.96-2.27-17.66-2.88-11.72.82-23.14-1.28-34.92-.69-3.85.92-26.76,2.77-32,7.53,21.8,13.76,58.04,20.15,78.23,4.79,15.14,4.27,33.1,12.12,47.1,5.23,9.32,9.28,19.07,11.44,29.63,2.8,13.66,8.4,26.5,12.31,39.87,6.85,23.41,11.07,47.19,13.29,71.41.42,4.61,1.19,9.31,2.62,13.7,5.84,17.94,7.19,36.45,7.8,55.11,1.12,34.22,1.88,68.46,9.16,102.13.55,2.57.4,5.3.44,7.96.03,1.86-.18,3.72-.37,7.32-7.99-6.19-14.67-11.35-19.55-18.54-5.3-7.81-11.7-14.35-19.99-19.13-9.32-5.37-15.34-13.49-18.51-23.84Zm-30.82-1822.91c2.17-.6,2.94-.22,3.46.77,8.51,15.99,20.19,29.65,32.52,42.64,8.56,9,15.6,18.91,21.97,29.43,1.91,3.16,4.33,5.85,6.95,8.42,3.5,3.43,6.45,7.24,7.78,12.58-1.83.16-2.92.59-3.67.26-14.9-6.52-30.42-11.32-45.79-16.51-3.04-1.03-4.12-3.31-4.13-6.1-.03-14.07-5.58-25.73-15.2-35.69-1.96-2.03-2.75-4.58-2.41-7.33,1.22-9.62-4.81-19.12-1.48-28.46Zm20.04,99.88c6.47,1.06,17.17,6.62,22.61,9.11,3.02,1.39,6.13,2.65,8.99,4.33,17.18,10.05,35.97,13.39,55.54,13.56,17.51.15,34.41,2.92,50.16,11.09,4.74,2.46,9.83,4.08,15.09,5.07,6.58,1.24,12.72,3.36,18.51,7.01,7.19,4.54,15.22,4.1,23.16,1.92,10.89-2.99,21.63-3.05,32.03,1.8,9.34,4.36,18.59,8.89,27.83,13.46,5.19,2.57,6.05,4.14,3.29,9.4-7.41,14.15-15.6,27.69-27.59,38.76-15.56,14.36-34.45,22.51-53.63,30.02-8.91,3.49-15.73,8.67-20.25,16.73-2.91,5.2-7.66,9.14-9.87,17.14-6.26-1.6-9.48-13.61-17.43-14.32-6.08-.54-9.54-4.43-12.55-8.85-6.93-10.19-18.72-17.71-26.49-27.28-7.81-9.63-17.8-18.56-28.35-25.28-12.92-8.22-15.92-22.38-23.98-35.08-3.56-5.61-6.67-11.53-9.7-17.45-3.97-7.76-8.38-15.18-14.98-21.01-7.88-6.97-13.04-20.19-12.39-30.13Zm168.35,24.12c.92-4.5,3.77-4.7,6.11-5.28,15.88-3.91,30.82-9.81,44.28-19.36,6.37-4.52,6.48-4.17,10.64,2.06,5.86,8.79,10.51,18.2,15.86,28.08-4.8,1.81-8.33,1.94-11.39,1.14-21.25-5.56-43.25-4.5-65.49-6.65Zm303.03,598.21c1.29,7.28.15,14.33-2.1,21.41-4.63-7.3-8.27-14.45-6.69-23.39.93-5.25-1.69-10.32-3.9-15.18-8.66-18.97-17.71-37.61-22.42-58.32-3.71-16.32-8.57-32.83-20.05-46.2-3.67-4.27-6.07-9.77-7.15-15.22-3.03-15.39-12.23-27.05-21.81-38.6-5.97-7.2-10.3-15.45-14.94-23.49-1.48-2.56-2.82-5.31-.64-8.97,5.54,4.86,11.73,8.58,17.78,12.52,2.77,1.8,4.74,4.6,6.39,7.55,5.71,10.19,13.21,19.14,20.02,28.56,3.8,5.26,8.78,8.9,14.77,11.43,9.75,4.12,18.92,9.38,29,13.01,11.37,4.1,22.59,7.47,35.4,6.91-1.23,6.68-4.24,12.17-6.66,17.79-6.2,14.4-10.97,28.98-12.58,44.84-1.28,12.5-3.23,25.01-4.75,37.53-1.12,9.27-1.3,18.59.34,27.84Zm-128.9,284.41c-2.41-12.81,3.41-22.79,11.28-31.5,9.13-10.1,18.56-19.84,26.22-31.22,6.21-9.21,13.98-16.96,25.4-19.61,2.25-.52,3.05-2.11,4.22-3.77,5.08-7.27,12.86-11.33,19.92-16.22.7-.48,1.91-.21,3.93-.38-22.26,66.87-42.3,133.43-53.81,203.01-4.44-2.33-7.14-6.45-10.1-10.24-3.67-4.71-6.85-9.86-10.89-14.21-10.63-11.44-14.37-26.11-18.46-40.31-2.03-7.04-.02-15.18,1.46-22.68.85-4.3,1.62-8.65.83-12.86Zm59.45,209.34c-1.74-9.16.13-17.09,6.38-25.44,6.98,12.02,17.94,19.8,26.1,30.12,2.1,2.66,1.07,21.52.99,24.51-.48,16.94,1.87,17.55,2.99,34.45.85,12.87.11,25.87-.21,38.8-.29,11.4.88,22.55,4.45,33.41,2.95,8.96.67,18.51,4.06,28.42-5.02-1.55-5.67-5.3-7.3-8.15-9.04-15.88-15.88-32.79-23.42-49.39-3.97-8.75-7.51-17.66-11.24-26.49-1.43-3.39-2.25-6.91-2.46-10.62-1.02-17.9-2.61-35.77-.35-53.72.66-5.24.99-10.78,0-15.9Zm37.85-25.84c-8.3-9.76-15.05-18.57-18.75-30.04-4.32-13.37-6.12-27.2-9.23-40.75-2.37-10.34-.2-21.19,2.89-31.39,3.85-12.7,8.27-25.15,15.88-36.36,5.16-7.6,8.44-16.36,11.04-27.18,7.3,56.38,8.08,110.45-1.83,165.73Zm-23.14-311.07c-6.33,3.66-12.65,7.31-18.15,12.26-2.17,1.95-4.91,3.84-7.68,4.47-12.69,2.88-21.67,11.71-30.35,20.06-16.22,15.61-31.93,31.8-43.92,51.24-5.07,8.22-12.52,13.91-23.02,15.28-4.23.55-8.54,3.43-12.25,6.38-9.61,7.64-19.39,15.06-26.51,25.32-.5.72-1.58,1.05-2.95,1.91-4.28-9.26-8.36-18.45-8.44-28.38-.1-12.32-1.56-24.48-2.95-36.61-1.91-16.58-.85-33.27-2.81-49.81-.65-5.5,2-10.3,3.05-15.44,3.11-15.34,6.8-30.57,12.12-45.22,5.35-14.74,6.37-30.1,9.08-45.23,2.04-11.34,6.65-21.5,12.85-31.13,6.33-9.83,14.48-17.78,25.57-21.2,16.49-5.08,28.19-15.65,37.88-29.22,2.32-3.25,4.69-6.51,7.46-9.36,3.49-3.58,5.99-9.48,12.86-6.79,9.62-6.82,16.59-.27,24.13,4.52,9.57,6.07,18.27,13.22,27.09,20.28,4.56,3.65,10.63,5,14.9,9.6,13.15,14.14,21.42,31.2,28.95,48.55,2.55,5.86,1.92,13.07,3,19.62.86,5.25,1.46,10.69,3.35,15.58,3.1,8.02.85,14.9-2.67,21.91-9.11,18.16-23.22,31.37-40.59,41.41Zm-252.85,169.67c-.71-2.21-1.97-4.4-2.02-6.62-.35-13.77-5.24-25.88-12.9-37.08-.93-1.35-1.73-2.91-2.13-4.49-2.93-11.38-8.82-21.25-17.07-32.11,11.03,3.48,18.68,7.93,25.31,14.24,5.11,4.86,11.3,8.14,17.61,11.18,12.93,6.23,21.84,15.71,25.75,29.91,2.45,8.9,6.24,17.13,11.63,25.04,5.98,8.78,4.86,19.75,1.74,29.83-4.79,15.48-12.02,29.42-25.85,39.09-4.36,3.05-7.21,7.76-10.33,12.08-2.66,3.68-5.03,7.66-8.94,10.37-2.54-2.09-1.56-4.57-1.48-6.67.48-12.34-1.2-24.56-1.97-36.83-.31-5.01-.32-9.95,1.52-14.75,4.28-11.17,2.64-22.21-.87-33.19Zm-6.87-307.83c-1.39-9.18-1.64-18.5-3.68-27.61-.85-3.82.06-7.14,3.91-9.29,2.3-1.29,4.3-3.11,6.41-4.72,11.74-8.88,22.57-18.48,27.98-32.85,1.23-3.27,3.23-6.53,7.88-9.45-7.03,33.27-25.6,59.81-39.56,88.2-4.01.07-2.73-2.78-2.95-4.27Zm16.65,56.77c6.23-13.9,14.16-26.86,21.71-40.19,3.11,1.76,1.72,4.32,1.75,6.37.42,26.5.39,52.93,5.22,79.24,3.05,16.58,3.71,33.64,4.9,50.52.61,8.62-3.05,16.97-3.3,25.88-8.1-14.29-13.87-29.26-18.6-44.72-5.95-19.46-8.72-39.41-10.46-59.58-.25-2.95-1.24-5.82-1.86-8.74-.63-2.97-.67-5.86.63-8.76Zm17.46-184.29c-7.02,14.33-13.66,28.82-19.91,43.51-4.58,10.75-10.15,20.97-21.86,27.08-5.84-13.77-14.35-26.07-18.54-40.59-2.09-7.26-6.4-13.8-8.63-21.16-1.09-3.6-.09-5.06,3.21-5.46,12.59-1.56,24.38-6.38,36.73-9.06,12.22-2.65,24.32-6.97,33.73-16.18,1.18-1.16,2.54-2.14,3.85-3.15.21-.16.63-.07,2-.16-1.76,9.62-6.67,17.22-10.57,25.19Zm-48.73,234.92c2.64,4.34,2.47,8.81,2.37,12.99-.19,8.22,1.28,16.1,5.33,23.03,6.64,11.35,9.26,24.03,13.32,36.23,3.56,10.69,7.08,21.38,9.65,32.38.96,4.11,2.18,8.22,5.06,11.77,2.4,2.96,4.43,6.46,4.66,11.64-4.93-2.36-8.14-5.42-11.52-8.4-10.69-9.44-20.71-19.79-33.73-26.23-6.49-3.21-13.23-5.82-19.68-9.17-5.47-2.84-7.94-6.71-8.91-12.14-.96-5.32-1.06-10.84,1.64-15.61,8.97-15.91,13.7-33.92,24.35-48.99,1.9-2.69,3.36-5.72,7.48-7.5Zm31.54,343.52c11.04-15.34,23.61-29.46,34.13-45.28,6.63-9.97,14.72-19.55,23.24-27.97,3.79.31,3.48,3.25,4.18,5.2,5.91,16.27,9.49,33.16,13.34,50,5.49,23.97,6.86,48.78,13.88,72.35,7.15,24.02,10.72,48.63,13.68,73.3,1.85,15.43,4.01,30.84,6.15,46.24-3.6.69-6.02-.84-7.59-2.77-4.73-5.8-10.81-9.76-17-13.67-2.88-1.82-4.73-4.62-6.38-7.54-1.02-1.8-3.02-2.46-4.02-.99-3.1,4.59-4.93,1.2-6.72-.88-1.72-1.99-3.62-4.18-4.35-6.61-2.79-9.26-9.27-16.77-11.54-26.39-1.52-6.43-5.82-10.13-13.69-12.17-8.77-2.28-18.26-6.71-20.83-18.68-1.99-9.26-6.76-17.81-13.34-25.24-6.89-7.78-10.25-17.17-12.69-27.56-3.09-13.17,2.57-21.64,9.56-31.34Zm89.45-617.44c.33-1.61.1-3.34.36-4.97.82-5.14,3.9-6.89,8.43-4.2,5.46,3.24,10.32,7.36,13.23,13.25,5.45,11.05,14.2,19.03,23.68,26.55,16.4,13.01,32.84,26.02,48.56,39.83,8.69,7.64,15.96,16.9,23.84,25.46.66.72,1.11,1.66,1.54,2.55,1.89,3.97.94,5.66-3.5,5.29-7.57-.64-14.97-1.59-22.69-.07-11.99,2.37-21.6,8.03-29.4,17.3-5.14,6.11-10.67,11.9-17.36,16.38-6.08,4.08-11.99,8.33-17.23,13.52-2.8,2.78-6.91,3.77-10.17,5.66-13.58,7.89-28.15,14.97-35.8,30.06-2.38,4.69-4.34,9.64-9.9,15.2,2.42-30.67-.9-59.65,3.41-88.38.39-2.62.39-5.31.46-7.96.32-11.41,2.11-22.51,6.64-33.07,5.92-13.79,8.83-28.55,13.69-42.69,3.33-9.67.17-19.9,2.2-29.71Zm-11.69-345.14c-3.24,12.56-5.76,25.22-7.03,38.17-1,10.22-2.22,20.48-5.67,30.3-2.78,7.89-3.78,16.09-4.48,24.42-1.41,16.87-3.76,33.67-3.55,50.65.03,1.99.32,4.07-1.18,5.68-2.15,2.32-4.39,4.43-7.25.76-6.63-8.51-12.54-8.24-16.56-19.92-3.42-9.91-4.19-14.65-11.61-18.79-3.48-1.94-8.14-12.42-11.87-13.51-8.09-2.36-10.06-7.89-11.15-15.55-3.43-24.12,4.67-42.29,24.13-57.15,12.51-9.55,26.28-16.69,39.37-25.07,7.01-4.49,12.62-10.56,20.5-14.38-1.22,4.8-2.42,9.6-3.66,14.39Zm121.48,353.3c4.14,5.41,5.16,11.43,2.15,17.75-2.62,5.5-2.05,10.16,2.71,14.32,2.23,1.95,3.68,4.8,5.96,6.66,12.8,10.43,18.98,25.23,26.21,39.64-12.07-7.43-22.08-16.83-27.24-30.4-.88-2.32-2.36-4.02-4.26-5.37-7.57-5.39-14.41-11.72-22.45-16.54-11.26-6.75-20.49-15.64-26.92-27.34-4.88-8.87-10.78-16.81-21.7-18.94-1.57-.31-3.34-1.02-4.42-2.13-10.44-10.68-23.12-19.04-32.21-31.13-7.1-9.46-10.69-19.24-7.34-31.56,2.23-8.2,2.86-17.21,2.24-25.72-1.57-21.67,2.5-42.25,8.93-62.73,3.21-10.24,6.26-20.25,14.13-28.08,1.56-1.56,2.69-3.96,3.16-6.16,3.22-15.2,15.21-24.34,24.33-36.5,4.84,6.18,4.96,12.79,4.05,19.08-1.21,8.43-.58,16.54,1.51,24.66,1.73,6.72.08,13.34-1.25,19.74-2.58,12.36.03,24.39,1.23,36.51.36,3.58,1.37,7.14,1.58,10.81.41,6.97,1.85,13.6,4.28,20.3,4.28,11.76,7.02,24.18,11.25,35.89,4.93,13.64,8.88,27.89,16.72,40.4,6.04,9.63,9.6,20.44,14.36,30.67.97,2.08,1.5,4.26,2.98,6.19Zm-37.24-347.8c-8.46,9.82-11.34,21.84-13.57,33.84-3.49,18.77-12.52,34.91-21.78,51.07-6,10.46-13.45,19.78-22.12,28.13-3.17,3.05-6.07,2.23-6.81-2.1-.44-2.58-.3-5.33.01-7.95,2.43-20.44,4.51-40.93,9.18-61.04.97-4.19,1.29-8.53,1.87-12.8,1.47-10.87,2.76-21.77,6.66-32.14,2.36-6.27,3.85-12.7,3.81-19.46-.02-3.97.42-7.89,3.46-12.67,8.49,10.56,20.1,14.52,30.09,20.92,2.52,1.61,5.29,2.84,7.7,4.59,4.9,3.55,5.49,4.98,1.49,9.63Zm-58.68-115.5c-1.96-.06-2.8-1.14-3.34-2.29-5.23-11.09-10.42-22.19-15.57-33.32-.97-2.09-2.27-4.86.9-5.88,16.21-5.17,24.82-19.36,36.32-30.11.17-.16.62-.02,1.58-.02-3.16,25-13.31,47.87-19.9,71.62Zm-224.47,196.58c-2.99-13.18.11-25.85,1.48-38.61.7-6.5.32-13.07.78-20.69,5.58,2.34,8,5.56,10.72,8.41,4.82,5.07,9.63,10.29,15.73,13.74,10.28,5.81,16.87,14.96,22.91,24.49,6.06,9.55,11.72,19.28,19.65,27.52,3.95,4.1,3.49,5.83-2.01,7.62-9.89,3.22-18.52,9.91-30.06,8.83-5.87-.55-11.14,3.82-14.33,9.43-4.44,7.79-9.23,15.41-10.91,24.46-.35,1.89-1.41,3.65-2.24,5.73-1.1-.89-2.3-1.36-2.53-2.12-3.69-12.38-7.45-24.74-10.7-37.23-.8-3.06-.48-6.8.48-9.86,2.26-7.23,2.6-14.8,1.03-21.72Zm39.58,61.5c4.01-4.39,8.28-8.56,12.7-12.55,10.22-9.24,12.02-9.83,25.88-9.92,2.99,0,5.98-.05,8.97.01,3.22.08,5.99,1.34,7.35,4.31,9.23,20.25,25.84,35.34,37.51,53.88.53.84,1.35,1.57,1.65,2.48,5.9,17.84,17.42,20.83,26.27,37.18,12.72,23.5,8.88,41.03,4.07,56.01-4.36,13.59-10.65,26.55-20.6,37.12-6.82,7.24-14,14.14-21.79,20.45-17.2,13.93-37.15,19.9-58.73,21.98-5.71.55-8.48-1.56-10.2-6.8-5.68-17.33-11.6-34.58-16-52.3-1.2-4.84-2.62-9.49-5.43-13.81-3.94-6.06-4.32-13.55-3.66-20.14,1.23-12.25-1.29-23.81-3.85-35.42-1.51-6.84-2.94-13.59-2.94-20.62,0-2.32,0-4.69-.4-6.96-3.82-21.89,5.02-39.36,19.2-54.89Zm7.5,285.55c3.64,3,4.18,6.6,4.84,9.96,2.13,10.73,3.17,21.66,6.21,32.21,1.07,3.7,1.12,7.04-2.08,10.03-19.11,17.87-36.85,37.24-58.93,52.2,21.45-32.43,38.67-66.63,49.96-104.41Zm-43.21,132.68c15.9-6.7,28.85-17.43,40.45-29.92,7.16-7.71,13.19-16.48,21.78-23.61,4.46,9.12,8.82,17.51,8.8,27.57-.01,5.95.14,12.21,1.89,17.8,3.36,10.71-.25,18.87-5.98,27.7-7.29,11.22-16.12,21.12-24.32,31.53-7.78,9.87-15.92,19.32-18.63,32.89-11.52-17.44-34.67-54.36-37.66-78.44,4.49-1.81,9.11-3.59,13.67-5.51Zm10.16,108.85c.21.47-.23,1.23-.39,1.99-14.03-.46-26.82-5.77-40.08-9.58-18.73-5.39-37.07-12.28-57.03-13.39-12.81-.71-25.66-3.78-38.1-7.2-7.41-2.04-14.08-6.79-22.49-11.04,19.27-8.57,32.65-23.57,50.24-31.79,14.31-6.69,28.23-14.59,44.15-17.55,4.07-.76,7.65-3.88,11.62-5.51,3.58-1.47,6.36-1,7.05,3.82,1.7,11.78,7.43,22.75,7.27,34.9-.04,3.47,2.45,4.23,4.44,5.86,16.03,13.16,25.24,30.96,33.32,49.49Zm-141.18-6.05c20.16,7.41,41.32,9.87,62.23,13.62,6.2,1.11,12.59,1.63,18.56,3.49,13.05,4.09,26.18,7.41,39.89,8.23,3.26.19,6.61,1.04,9.64,2.27,6.33,2.56,9.71,8.7,8.91,15.31-.56,4.62-.97,9.28-2.82,13.63-6.41,15.07-9.88,31.01-13.35,46.9-2.31,10.6-7.02,20.03-12.08,29.39-6.79,12.54-14.38,24.62-18.3,38.62-1.77,6.33-6.84,11.25-12.11,17.62-1.56-5.5-1.45-9.54-.94-13.34,2.3-17.11-3.02-33.6-3.68-50.42-.34-8.67-7.19-14.33-8.24-22.39-.07-.52-.71-1.27-1.22-1.39-5.7-1.4-7.68-6.57-9.47-10.85-5.59-13.39-15.13-24.13-22.65-36.2-14.18-22.74-34.42-39.2-54.51-55.99-2.27-1.89-5.57-2.25-8.03-6.25,10.12,2.74,19.41,4.55,28.17,7.77Zm154.94,327.13c-4.23,3.82-8.4,7.44-13.59,9.9-3.28,1.56-6.69,3.28-9.29,5.73-11.52,10.83-25.63,17.77-38.6,26.41-3.04,2.03-16.72,17.29-20.06,16.95-5.62-.57,2.42-18.01,3.61-23.3,2.21-9.9,1.62-19.82,1.67-29.79.07-13.36,3.81-26.26,5.87-39.37.82-5.23,1.79-10.44,2.59-15.68,2.15-14.02,7.64-26.73,14.87-38.81,2.38-3.98,4.76-8.09,6.27-12.44,11.89-34.26,27.56-66.96,41.07-100.55,4.59-11.42,7.76-23.31,9.17-35.63,1.36-11.84,4.16-23.3,9.96-34.48,4.77,5.08,8.81,9.81,11.49,15.63,1.11,2.39,2.46,4.79,4.18,6.77,12.73,14.68,19.29,32.05,23.81,50.72,2.65,10.91,7.43,21.29,8.88,32.6.73,5.69,1.18,11.25-1.03,16.7-2.56,6.32-2.4,12.92-2.51,19.61-.37,22.63.61,45.2,1.88,67.77.15,2.7.21,5.24-1.75,7.5-6.09,7.03-11.71,14.51-20.02,19.25-2.58,1.47-5.4,2.91-7.32,5.07-9.55,10.7-20.53,19.84-31.13,29.41Zm225.75-161.26c.04,17.91,2.18,35.92-1.55,53.77-2.6,12.45-7.73,23.71-14.67,36.25-4.77-15.45-8.16-29.25-8.57-43.46-.4-13.96-3.5-26.9-10.52-38.95-4.74-8.14-4.24-15.8,2.51-22.72,3.72-3.81,7.42-7.63,11.16-11.42,7.48-7.58,15.05-15.02,20.67-24.24,2.91-4.77,7.09-8.53,12.33-11.18,2.14,4.14,1.16,7.31-.47,10.78-7.59,16.19-10.93,33.2-10.89,51.18Zm182.85-719.22c-1.25-1.6-2.32-3.25-2.51-5.32-.19-2.04-.06-4.1,1.51-5.57,2.02-1.9,3.64.11,5.26.93,15.41,7.85,29.4,17.98,43.63,27.69,3.22,2.19,5.85,5.45,8.22,8.63,3.03,4.07,6.66,7.31,10.72,10.29,8.72,6.4,10.98,14.11,7.71,24.32-6.89,21.53-16.4,41.98-25.97,62.38-1.96,4.18-2.26,9.03-5.74,13.48-4.08-5.96-3.37-11.67-1.38-17.59,2.46-7.29,3.21-14.9,3.73-22.56.72-10.5-1.95-19.67-9.51-27.26-4.61-4.62-6.72-10.67-8.51-16.7-5.74-19.31-14.74-36.89-27.15-52.73Zm-73.73-221.18c-14.13,13.26-25.84,28.52-37.44,43.9-8.02,10.62-15.17,21.79-21.93,33.25-3.18,5.39-4.57,5.38-9.32,1.71-3.7-2.86-7.1-6.22-9.25-10.34-3.42-6.53-8.52-10.91-15.09-13.85-1.51-.68-2.97-1.5-4.44-2.27-9.86-5.2-10.29-6.2-7.97-17.29.61-2.92,1.47-5.91,1.33-8.83-.4-8.65,4.11-13.52,11.63-16.42,2.48-.96,4.83-2.41,7.38-2.96,21.58-4.59,41.34-14.42,62.01-21.62,8.6-2.99,17.14-5.01,26.25-4.92,4.59.05,9.19-.53,14.58-.87-4.93,8.2-11.3,14.46-17.73,20.5Zm-127.57-96.26c-10.09,5.26-16.91,14.82-22.63,24.71-2.86,4.95-5.78,9.64-12.1,11.67-2.27-4.88-1.57-9.96-2.15-14.75-1.16-9.68-3.41-18.98-8.29-27.47-4.2-7.31-6.23-15.17-7.96-23.4-3.68-17.49-6.92-35.17-15.29-51.34-5.55-10.73-7.39-18.32-11.45-29.6-4.4-12.22-4.14-29.89-4.77-42.88-.47-9.61-1.89-19.17-2.85-28.76-.32-3.22-1.68-6.47.75-10.92,10.82,5.54,22.21,10.19,31.42,18.31,23.05,20.33,45.71,41.1,68.55,61.67,3.03,2.73,5.42,5.79,6.48,9.83,5.76,22.06,9.12,44.44,4.16,66.95-3.23,14.65-8.85,28.16-23.86,35.98Zm-265.04,480.3c7.22,7.66,11.61,16.14,15.18,25.73,4.64,12.45,10.44,24.37,18.63,35.12,5,6.57,8.19,14.4,11.28,23.64-8.27.25-15.36,3.25-23.4,3.64-5.95.29-12.2,1.43-18.24,2.47-30.78,5.33-58.64-3.74-85.6-16.95-17.02-8.34-33.82-17.1-47.55-30.76-4.78-4.75-9.28-9.63-12.66-15.33-12.47-21.02-20.85-43.72-27.12-67.3-3.15-11.86-5.71-23.89-10.63-35.3-4.71-10.93-3.74-22.57-2.51-35.85,3.45,5.05,5.65,9.05,8.58,12.42,11.5,13.29,26.14,22.72,41.78,29.87,9.12,4.17,19.83,5.3,29.98,6.67,11.9,1.6,23.5,4.54,35.04,7.44,8.23,2.07,16.19,5.99,21.62,13.45,1.72,2.36,4.14,4.5,6.69,5.93,15.67,8.78,26.87,22.3,38.94,35.11Zm-243.4,193.39c-2.86-14.96,6.67-23.3,17.13-30.4,12.14-8.25,22.95-17.88,33.68-27.79,8.25-7.63,16.72-15.79,28-18.56,11.22-2.75,22.76-4.45,34.26-5.69,5.3-.57,10.42-1.64,15.62-2.57,15.41-2.75,30.53.31,45.25,4.12,14.68,3.8,29.34,5.07,44.33,4.37,2.99-.14,5.99-.4,8.96-.2,20.68,1.42,41.13-.31,61.46-4.09,1.58-.29,3.23-.19,5.02-.29,4.04,13.37.12,25.03-4.55,35.81-5.3,12.21-7.76,25.35-13.6,37.28-6.41,13.1-9.84,27.27-14.65,40.95-2.06,5.86-6.24,10.17-10.23,14.6-8.07,8.98-12.63,20.19-19.3,30.07-5.88,8.71-13.82,14.24-23.31,17.84-7.41,2.81-15.14,5.46-21.84,9.25-18.83,10.64-39.24,18-57.79,29.16-8.22,4.94-17.26,8.52-25.92,12.74-3.88,1.89-7.11,2.05-10.87-1.16-10.51-8.96-22.7-15.83-30.83-27.73-3.93-5.75-5.8-11.31-4.26-17.63,1.02-4.19-.43-6.13-3.57-7.9-1.15-.65-2.13-1.63-3.32-2.18-20.64-9.62-28.84-28.98-37.13-48.05-3.17-7.28-5.89-14.77-9.49-21.86-2.93-5.77-5.11-11.54-3.18-18.11.18-.62.25-1.35.13-1.98Zm20.62,198.46c-.22-8.17.51-9.25,8.71-9.49,4.88-.14,9.41-1.79,15.22-2.96-7.2,8.07-17.8,10.14-22,20.76-2.63-3.77-1.88-6.12-1.93-8.31Zm18.35,32.68c.42-6.43,5.8-11.85,9.94-17.04,4.56-5.71,9.2-11.33,13.41-17.34,7.47-10.68,18.35-11.73,26.52-1.88,11.38,13.72,26.37,21.94,41.58,30.17,9.15,4.96,15.12,13.69,22.78,20.44,2.94,2.59,5.03,5.96,8.92,7.7,2.24,1,4.23,3.36,5.49,5.59,8.84,15.6,18.86,30.72,25.07,47.54,5.01,13.57,9.06,27.69,5.95,42.86-1.59,7.73-1.09,15.9-1.46,23.87-.77,16.68-4.76,32.89-7.26,49.32-1.02,6.68-4.79,12.38-8.15,18.09-5.06,8.59-10.47,17.07-17.87,23.83-7,6.39-14.28,8.75-24.46,4.64-10.94-4.41-18.35-12.12-25.03-20.54-10.52-13.25-19.97-27.4-27.72-42.55-1.53-2.99-3.29-5.73-5.47-8.29-10.64-12.49-16.17-27.12-19.02-43.19-1.62-9.11-4.44-18.12-7.66-26.82-5.06-13.7-10.89-27.13-16.45-40.65-2.95-7.16-4.49-14.55-3.91-21.93-.43-11.8,4.05-22.5,4.8-33.84Zm11.97,234.45c2.75,5.49,4.94,9.82,7.1,14.17,10.48,21.13,20.35,42.57,32.49,62.84.34.57.87,1.09,1.03,1.7,5.32,19.79,19.6,32.56,35.94,45.08-3.35,1.7-5.78,1.26-7.85.49-9.63-3.54-20.35-3.25-29.47-8.5-.57-.33-1.27-.78-1.84-.7-10.36,1.53-12.47-6.15-16.04-13.3-10.75-21.57-18.25-44.14-22.74-67.75-2.07-10.88-1.44-21.73,1.38-34.03Zm43.31,262.76c1.16-1.11,2.72-2.23,4.23-2.46,10.79-1.62,16.9-8.92,23.12-17.07,7.63-10,18.59-15.82,30.55-19.58,3.14-.99,17.56-14.2,17.42-10.39-.74,20-4.96,52.26-2.08,71.63,2.02,13.56,2.45,27.24,1.52,40.73-1.18,17.07-1.41,33.86,2.78,50.52.92,3.65,1.35,7.45.16,10.86-4.46,12.82-4.01,26.24-5.31,39.44-.53,5.37-1.67,10.46-3.99,15.35-4.56,9.6-7.64,19.8-12.26,29.45-4.23,8.83-9.77,16.55-15.51,24.26-1.58,2.12-3.19,4.59-5.4,5.79-10.66,5.81-17.66,16.05-27.92,22.43-5.91,3.67-9.73,9.94-13.58,15.8-1.96,2.98-3.4,6.39-8.29,8.62,2.35-5.44,3.63-10.27,6.27-14.19,8.07-11.99,8.51-26.11,11.81-39.43,4.1-16.57,4.3-33.43,3.83-50.39-.15-5.56.82-11.32,2.27-16.73,1.81-6.74-1.56-10.89-6-14.57-4.09-3.39-8.63-6.23-13.53-8.4-14-6.19-24.39-16.05-29.84-30.48-3.29-8.69-4.14-18.03-6.14-27.07-3.42-15.47,2.57-30.22,2.71-45.38.02-2.05.87-3.59,2.57-5.06,13.32-11.49,27.83-21.54,40.6-33.7Zm-168.74,276.77c1.78,4.63,3.81,9.35,6.68,13.34,8.01,11.13,13.53,23.65,20.23,35.49,5.09,9,10.35,17.79,16.86,25.84,5.5,6.8,5.51,6.99-1.23,12.42-15.14,12.21-23.34,29.31-33.38,45.72-3.71-5.17-3.71-11.66-4.32-17.98-1.58-16.15-2.68-32.44-4.87-48.41-3.41-24.93-7.17-49.95-13.92-74.36-2.88-10.43-4.05-21.27-2.72-32.28,2.73.36,2.71,2.27,3.25,3.72,4.46,12.17,8.76,24.4,13.42,36.5Zm65.35,365.31c-4.74-5.57-8.96-11.58-14.48-16.49-4.98-4.43-6.37-10.95-8.38-16.73-4.26-12.3-10.59-23.64-15.62-35.56-3.84-9.08-5.76-17.74-3.59-27.03,2.71-11.6,1.65-23.23,1.05-34.8-.92-17.7.03-34.83,4.87-52.23,5.27-18.94,11.52-37.46,17.92-55.98,3.91-11.33,9.48-18.93,18.44-25.27,6.41,5.3,9.49,13.23,15.16,19.26,6.98,7.42,14.45,13.59,24.04,17.02,4.19,1.5,7.67,3.82,10.46,7.33,4.84,6.1,11.62,9.98,17.8,14.37,6.07,4.31,9.85,9.9,12.41,16.44,3.75,9.59,7.2,19.32,10.43,29.1,3.45,10.45,5.81,21.19,6.12,32.25.18,6.48,4.66,11.53,5.37,17.92.6,5.36,1.49,10.5-1.47,16.45-2.61-5.13,1.4-10-2.83-16.42-.25,7.28-.57,12.58-.6,17.88-.04,8.78-1.5,17.19-5.57,25.08-3.38,6.55-5.28,13.67-7.12,20.74-3.46,13.3-12.99,23.06-19.63,34.49-3.5,6.03-7.86,11.53-10.77,17.95-1.07,2.37-2.62,4.8-4.59,6.43-5.17,4.29-9.84,8.97-13.55,14.56-2.14,3.23-4.27,3.19-7.44,1.09-11.28-7.47-19.79-17.69-28.41-27.83Zm95.13-22.94c3.35-3.95,5.15-8.47,6.89-13.13,5.7-15.26,13.9-29.47,19.61-44.66,5.12-13.6,9.17-27.8,4.08-42.67-1.39-4.06-2.6-8.35-2.91-12.6-1.19-16.19-8.18-30.72-12.47-46.02-3.42-12.19-12.37-21.86-14.53-35,9.89-.71,18.57,2.96,27.14,6.88,5.44,2.49,10.83,5.13,16.02,8.09,12.88,7.35,26.64,12,41.33,13.71,5.76.67,11.18,2.26,15.85,5.49,21.31,14.73,44.55,24.89,69.87,30.29,6.32,1.35,11.62,4.48,16.78,8.29,6.39,4.73,13.37,8.67,19.82,13.33,6.15,4.44,6.27,6.32-.46,9.39-19.01,8.66-36.21,21.08-56.43,27.2-4.82,1.46-9.25,3.69-13.47,6.39-3.1,1.98-6.26,3.92-9.97,4.37-5.15.62-9.43,3.02-13.55,5.91-3.84,2.7-7.91,4.78-12.66,5.57-2.23.37-4.52,1.29-6.44,2.5-18.47,11.71-38.05,21.57-56.01,34.15-6.77,4.74-14.36,8.37-21.75,12.16-7.67,3.94-15.68,7.26-22.49,16.28,1.07-7.4,2.56-12.18,5.75-15.93Zm20.83,33.98c7.59-4.86,14.74-10.26,21.87-15.72,3.99-3.06,8.09-5.95,12.86-7.54,27.38-9.15,51.34-24.97,76.12-39.15,16.74-9.58,34.11-17.64,52.36-23.91,6.88-2.36,13.5-5.38,19.08-10.5,5.39-4.94,11.84-8.54,19.51-12.89,4.01,10.27,3.78,20.3,5.14,30.02.17,1.2-.46,2.62-1.02,3.8-8.59,18.37-17.05,36.83-28.54,53.63-6.92,10.12-16.56,15.88-28.97,17.3-12.56,1.43-24.69,4.91-36.68,8.92-8.51,2.84-16.61,7.24-25.12,9.35-15.44,3.83-30.83,7.97-46.36,11.41-3.73.82-8.26.55-11.81-.82-12.43-4.8-25.91-6.08-38.07-11.64-.87-.4-1.65-.98-3.45-2.06,3.6-4.75,8.64-7.36,13.08-10.21Zm228.72-274.44c3.92-11.73,6.44-23.52,7.39-35.97,1.36-17.86,3.66-35.73,7.07-53.31,2.78-14.32,7.95-27.95,18.13-39.35,6.37-7.13,11.33-15.54,16.79-23.47,1.53-2.22,3.07-4.36,5.24-5.95,3.49-2.56,5.16-6.26,5.43-10.29.93-14.28,1.53-28.72-1.44-42.71-2.79-13.11-5.23-26.2-3.89-39.46,1.2-11.88-.98-23.13-3.52-34.44-.88-3.93-.94-7.65-.09-12.49,5.09,3.49,9.93,5.84,13.07,10.17,10.06,13.83,23.51,24.33,35.12,36.6,15.7,16.6,31.75,33.15,42.7,53.67,2.17,4.07,5,7.88,7.99,11.42,13.5,15.97,17.7,34.56,15.75,54.89-1.24,12.9-2.8,25.76-4.21,38.65-3.27,29.92-13.21,57.16-30.16,82.3-6.91,10.25-16.96,17.83-22.38,29.04-.72,1.48-2.13,2.67-2.68,4.19-6.93,18.97-21.78,32.26-33.89,47.5-1.03,1.3-2.07,2.79-3.46,3.57-17.13,9.6-30.55,24.52-48.04,33.58-6.87,3.56-7.08,3.59-9.09-3.63-2.75-9.87-5.75-19.71-5.79-30.12-.02-3.8-1.86-6.99-3.35-10.34-9.37-20.98-9.9-42.44-2.67-64.06Zm223.55-4.54c1.49-25.63.3-51.12-2.62-76.66-1.93-16.85-.3-33.82,4.17-50.37,2.51-9.29,4.75-18.66,7.18-27.98.73-2.82,1.24-5.77,4.01-9.02,14.89,22.9,35.4,39.83,51.59,60.45,8.64,11,18.82,20.54,27.73,31.26,8.03,9.66,12.67,21.05,17.25,32.39,2.61,6.47,5.17,12.93,8.19,19.23,12.34,25.73,24.64,51.47,36.94,77.22.69,1.45,1.83,2.85,1.1,4.81-2.64,1.99-5.72,1.09-8.44.4-11.84-3.03-22.97-8.17-34.77-11.57-9.33-2.69-18.53-7.23-28.05-9.92-19.52-5.51-39.22-10.71-59.85-6.56-4.56.92-9.07,2.07-13.62,3.03-7.65,1.62-8.4,1.21-9.54-6.82-1.4-9.9-1.84-19.87-1.25-29.88Zm327.78-452.58c-7.77,8.52-10.94,18.75-11.92,30.01-1.26,14.63-4.76,28.81-9.4,42.72-1.82,5.46-4.37,10.46-8.46,14.51-8.97,8.89-18.14,17.58-27.05,26.53-4.22,4.23-8.78,8.39-11.91,13.38-11.39,18.19-24.48,35.53-30.29,56.74-1.21,4.42-3.01,8.68-5.28,15.12-4.41-31.26-8.23-60.3-7.51-89.73.06-2.65.28-5.34.88-7.91,5.41-23.15,5.61-46.64,4.88-70.21-.05-1.66-.04-3.35.19-4.99,2.31-16.43-2.68-31.5-8.25-46.55-1.46-3.95-4.16-7.68-3.38-12.54,9.37-3.35,18.96-1.53,28.35-.66,21.19,1.97,42.2,5.06,62.22,12.99,10.72,4.25,22.51,5.75,32.96,12.8-2.38,3.09-4.03,5.58-6.03,7.77Zm-31.11-220.77c10.22,12.3,19.67,25.21,27.72,38.88,5.86,9.96,8.18,21.25,4.33,33.55-6.08,19.41-9.25,39.37-5.8,59.9.75,4.49.26,9.25.32,13.85.16,13.11,8.89,22.67,13.4,33.9,3.25,8.09,5.97,16.64,10.85,24.21-10.01-7.16-18.19-15.89-24.96-26.01-7.56-11.31-15.47-22.38-22.87-33.79-5.61-8.64-9.65-18.17-13.01-27.87-3.89-11.22-10.54-21.48-11.37-33.81-1.57-23.42-8.38-46.27-7.22-70.04.42-8.57-.84-17.24-1.48-25.85-.48-6.42-2.35-12.34-6.89-17.19-.87-.93-2.13-2.3-1.97-3.27.92-5.76-2.32-10.8-2.14-16.47,11.51,18.77,27.39,33.52,41.11,50.01Zm-29.8,126.25c6.98,13.5,13.39,27.53,24.19,38.71,4.47,4.63,6.43,10.74,11.32,17.85-13.95-5.66-26.7-6.64-39.01-10.56-20.13-6.41-40.74-11.97-61.94-14.24-6.99-.75-12.33-3.71-17.23-8.82-7.09-7.4-16.38-12.35-23.43-19.92-1.58-1.69-4.57-2.44-5.19-4.67-4.17-15.01-5.88-9.44-5.88-17.15,0-8.73.64-28.4,2.11-37.26.62-3.75-.06-7.54-1.4-10.79-4.07-9.87-2.84-19.59.11-29.22,1.95-6.35,1.99-12.42-.18-18.57-3.84-10.9-5.21-21.84-2.35-33.32,1.28-5.11.48-10.59-.24-15.9-.39-2.91-1.42-5.82-.21-10.56,5.18,5.65,8.42,10.71,10.71,16.12,10.24,24.09,26.62,43.1,46.45,59.87,13.34,11.29,26.32,23.2,33.7,39.98,2.73,6.19,6.66,12.21,11.41,17.42,2.26,2.48,4.02,5.39,4.34,8.82,1.11,11.97,7.43,22,12.71,32.21Zm-15.83-184.12c-4.31-9.37-14.04-16.1-13.48-29.09,6.84,9.39,11.38,18.65,13.48,29.09Zm111.14-333.45c3.27,18.78-2.02,35.59-3,52.69-.42,7.36-5.24,14.17-5.95,21.89-.89,9.7-5.89,18.4-7.57,27.76-2.32,12.9-6.2,25.09-11.95,36.69-6.47,13.06-13.93,25.55-22.89,37.15-4.65,6.01-8.54,12.64-12.45,19.19-7.82,13.09-20.95,18.52-34.41,21.68-14.67,3.44-25.93,11.14-36.05,21.46-.92.94-1.47,2.22-2.39,3.65-5.99-5.62-6.64-12.61-9.01-18.54-5.6-13.98-13.4-26.49-21.24-39.27-10.04-16.38-20.95-32.28-29.94-49.32-3.62-6.86-3.94-12.47,1.59-18.95,5.09-5.97,9.68-11.76,17.92-13.06,2.26-.36,4.33-1,6.77-.08,10.99,4.15,22.12,3.16,33.24.39,2.58-.64,5.2-2.13,7.69-1.92,13.91,1.18,26.68-4.51,40.08-6.3,8.98-1.19,17.5-4.44,24.7-9.96,11.25-8.63,22.15-17.72,30.43-29.49,1.93-2.75,3.46-5.6,4.92-8.61,7.95-16.42,17.69-31.71,29.5-47.04Zm-22.34-167.05c5.89,20.23,7.85,40.94,9.12,61.97.97,15.99.56,31.88.84,47.82.37,20.42-4.63,39.29-14.67,57.18-4.26,7.59-11.1,12.24-16.5,18.45-10.45,12.02-21.62,23.26-29.22,37.67-5.97,11.32-15.84,18.1-29.28,19.87-13.75,1.81-27.37,4.89-40.93,7.9-7,1.55-13.73,2.19-20.6-.18-6.35-2.19-12.86-2.87-20.99-.24,5.75-11.6,11.95-20.88,18.28-30,5.7-8.21,10.78-16.72,15.59-25.48,9.94-18.09,18.99-36.65,26.79-55.67,5.53-13.49,12.32-26.19,18.92-39.07.75-1.47,1.45-3.09,2.6-4.21,14.74-14.49,22.81-33.23,32.6-50.89,2.13-3.83,2.88-8.08,4.11-12.22,6.7-22.6,15.97-44.3,23.95-66.45.42-1.17,1.4-2.13,2.3-3.46,10.33,10.51,13.29,23.98,17.08,37.01Zm-47.43-591.88c.62-9.47,6.38-16.47,11.56-23.77,19.88,20.16,26.21,86.59,15.19,125.44-6.89-20.49-17.15-37.83-21.66-57.36-3.37-14.57-6.08-29.24-5.09-44.31Zm2.09,148.87c1.09,2.67.98,5.86,1.28,8.82,1.32,12.87,2.23,25.83,6.86,38.07,1.93,5.09.81,8.26-3.45,11.9-8.64,7.38-18.22,14.07-23.1,25.28-4.95-13.6-4.84-26.93-5.5-40.16-.88-17.56-5.51-34.67-5.21-52.44.28-17.2,3.28-33.95,4.6-52.07,4.45,2.72,5.1,6.08,6.57,8.94,8.4,16.38,11.07,34.75,17.95,51.66Zm-168.4-353.42c11.86,6.03,24.57,9.84,37.04,14.27,6.57,2.33,13.52,2.97,20.2,5.06,21.68,6.78,39.61,19.43,57.38,33.12,20.35,15.68,30.21,37.2,38.39,60.2,1.49,4.18,2.16,8.46.46,12.68-6.18,15.39-12.34,30.8-23.71,44.32-14.36-10.38-24.79-23.55-33.82-37.84-2.73-4.32-6-7.89-9.64-11.28-9.98-9.29-19.59-18.83-26.9-30.56-2.58-4.14-6.4-7.73-10.26-10.81-9.48-7.57-16.6-17.12-23.63-26.78-2.73-3.75-4.79-7.85-6.39-12.31-3.39-9.43-8.07-18.12-15.75-25.04-4.37-3.93-7.51-8.94-8.67-14.61,2.26-1.77,3.78-1.19,5.29-.42Zm-65.66,57.77c2.25-9,4.39-18.03,6.66-27.03.49-1.92,1.26-3.79,2.06-5.6,4.42-9.94,8.72-10.62,15.7-2.39,4.3,5.07,7.88,10.51,9.69,17.11,3.08,11.22,7.52,21.95,12.9,32.28,6.2,11.9,7.79,25.3,12.26,37.77.53,1.48.59,3.4.15,4.9-1.85,6.42-2.06,13.01-1.9,20.24-18.66-1.02-26.58-13.03-30.16-27.29-3.61-14.39-11.9-25.03-22.09-34.41-5.17-4.76-6.89-9.21-5.29-15.58Zm-11.28,52.99c.55-5.29,1.4-10.47,5.95-15.91,9.13,12.43,19.98,22.46,26.78,34.61,5.65,10.1,12.46,12.68,22.34,14.33,15.06,2.52,24.7,14.83,24.86,30.58.09,8.69,1.08,17.18,2.52,25.74,1.62,9.6.5,19.26-2.11,28.66-3.64,13.13-7.61,26.12-7.8,39.99-.08,5.89-1.64,11.89-4.2,17.38-3.67,7.85-7.38,13.85-18.03,15.86-14.19,2.68-28.35,7.89-42.5,9.96-20.4,2.98-38.15,13.77-58.35,16.48-5.65.76-10.46,4.18-15.64,6.4-2.66,1.14-5.48,3.81-8.27,1.97-3.22-2.11-.87-5.51-.24-8.25,1.49-6.48,3.2-12.91,4.89-19.34,1.19-4.51,2.66-8.94,1.36-13.71-.74-2.71.07-5.22,1.45-7.63,4.78-8.37,9.1-16.99,13.78-25.43,7.4-13.34,13.78-27.27,20.1-41.18,3.16-6.96,5.91-14.12,9.72-20.77,10.03-17.48,16.86-36.13,19.84-56.05,1.67-11.17,2.4-22.48,3.57-33.72Zm-75.05-153.84c14.57.74,29.21.96,43.27,5.67,2.2.73,4.47,1.29,6.75,1.71,13.95,2.57,36.91-4.94,21.99,25.99-4.1,8.49-.78,18.43-4.39,27.26-3.26,7.95-4.84,16.46-6.59,27.16-7.54-25.37-17.23-47.18-36.99-62.99-1.55-1.24-3.26-2.54-4.23-4.2-4.76-8.19-11.95-13.18-20.63-16.38-.9-.33-1.64-1.09-2.04-1.37.31-2.43,1.43-2.92,2.86-2.85Zm-67.49-8.81c7.68,1.96,11.95,9.18,18.42,13.19,13.89,8.6,27.59,17.34,44.77,17.5,7.72.07,13.37,3.59,16.03,11.09,4.13,11.68,10.73,21.82,17.75,32.01,9.68,14.05,16.15,29.74,14.32,47.59-.51,5.01-.08,10.03.98,14.87,2.62,11.99,1.77,23.93-1.11,35.56-5.6,22.58-11.95,44.97-18.04,67.43-.33,1.22-1.05,2.34-2.12,4.66-3.48-7.17-4.98-13.82-5.07-20.49-.16-11.66-4.8-21.16-12.15-29.72-1.51-1.76-3.08-3.54-4.23-5.53-8.28-14.3-20.03-25.14-33.41-34.58-7.72-5.45-12.4-13.8-17.7-21.39-2.16-3.1-4.25-5.77-7.66-7.47-13.36-6.63-25.29-15.65-38.91-22.05-13.29-6.25-20.75-18.43-22.5-33.08-1.98-16.57-5.55-32.78-9.33-48.96-1.89-8.09-4.25-16.11-10.21-22.45-1.07-1.14-2.13-2.59-1.1-5.94,8.07,1.79,15.7-1.24,23.57-1.57,16.62-.68,31.99,5.33,47.71,9.33Zm-72.14-112.66c.12-.17.57-.1,2.06-.3-1.01,13.94-.25,27.66,4.38,40.8,4.48,12.72,10.41,24.79,18.22,38-13.72-1.71-25.89-3.24-38.18-3.15-3.72.03-6.17-1.52-6.34-5.93-.95-25.33,4.59-48.76,19.85-69.43Zm-26.87,126.29c2.99,14.22,10.14,26.53,16.58,39.22,8.05,15.88,8.36,32.94,8.03,52.4-8.3-8.71-14.09-16.66-15.14-26.49-1.62-15.15-7.34-28.9-12.86-42.71-5.33-13.33-7.35-27.35-9.83-41.55,6.39,5.14,11.56,11.23,13.22,19.13Zm-182.36-114.23c.46-3.15,2.45-5.38,4.19-7.8,8.59-11.93,21.16-19.27,32.97-27.08,18.64-12.33,34.21-27.29,46.1-46.16.53-.84,1.11-1.67,1.78-2.4.42-.46,1.06-.72,1.67-1.12,7.34,8.56,14.86,16.95,21.93,25.72,4.15,5.15,8.31,10.38,10.66,16.78,4.46,12.13,13,21.48,21.22,31.13,8.89,10.45,16.39,21.69,17.13,36.22.25,4.86-.28,9.21-2.5,13.47-1.23,2.36-2.83,4.76-3.18,7.29-1.5,11.03-8.88,12.56-18.34,13.61-21.76,2.41-43.06-.16-64.37-3.68-5.62-.93-10.77-2.82-15.31-6.68-2.96-2.52-6.75-4.87-10.48-5.55-8.72-1.58-15.91-6.65-24.08-9.43-11.65-3.97-21.18-21.97-19.39-34.31Zm-34.16,44.05c22.35,7,69.59,34.18,92.01,41.05,7.7,2.36,15.98,1.28,23.83.32,9.04-1.11,17.77-.56,26.65.86,8.18,1.31,16.36,2.45,24.78,2.04,7.51-.37,8.26.88,9.49,8.33,3.21,19.31,4.72,38.97,12.1,57.41,1.36,3.39,2.21,7,3.79,10.26,4.64,9.54,9.39,18.83,11.86,29.45,2.39,10.29,8.65,19.4,14.12,28.52,5.68,9.48,10,19.52,13.94,29.78,1.11,2.88,8.15,19.63,6.98,22.68-2.75,7.13-12.16-6.09-17.39-11.56-10.8-11.3-21.43-22.76-32.26-34.04-2.52-2.62-5.24-5.25-8.35-7.06-24.63-14.36-44.3-34.68-64.88-53.89-2.85-2.66-8.06-6.23-11.49-8.1-8.07-4.38-13.43-11.5-18.24-19.24-3.05-4.91-6.83-9.01-12-11.69-6.36-3.29-10.75-8.86-15.81-13.63-11.1-10.48-22.02-21.15-32.98-31.78-2.61-2.53-5.15-5.16-5.71-9.56,1.62-.34-20.99-30.31-20.45-30.14Zm19.38,620.36c1.07,6.61-.77,12.61-3.53,18.3-2.83,5.82-1.82,10.35,1.86,15.6,5.84,8.34,10,17.78,17.01,25.45,2.32,2.54,3.49,6.46,4.32,9.96,3.28,13.94,8.71,27.21,12.05,41.15,2.97,12.39,9.88,23.22,15.96,34.28,3.58,6.51,5.19,13.48,7.93,22.57-8.5-3.4-15.41-5.22-21.51-9.51-11.89-8.37-24.81-14.13-39.83-13.35-2.79.15-5.15-1.14-7.6-2.14-6.15-2.51-12.79-3.86-18.82-6.35-12.46-5.16-24.42-11.57-36.4-17.82-2.52-1.31-4.51-3.96-6.28-6.33-6.79-9.07-14.26-17.49-22.44-25.36-6.12-5.89-8.48-14.14-12.22-21.53-5.35-10.57-5.04-20.01.84-30.76,6.51-11.88,10.17-25.3,13.45-38.5,2.68-10.76,6.71-20.88,11.4-30.79,1.83-3.87,3.97-7.86,6.89-10.91,11.16-11.61,17.96-26.31,27.92-38.81,5.9-7.4,10.3-16.47,13.45-25.47,4.15-11.86,12.13-21.33,17.54-32.32.72-1.47,3.67-9.36,6.07-9.31,1.64,4.26-.42,15.44-.08,19.97,2,26.54,2.67,53.26,6.24,79.58,2.36,17.45,2.97,35.04,5.78,52.4Zm-80.47-796.91c3.94,2.98,7.73,5.11,10.57,8.13,11.68,12.42,26.32,21.32,38.59,33.01,1.65,1.57,3.88,2.53,5.89,3.71,3.5,2.05,6.9,4.6,8.75,8.02,6.96,12.82,14.14,25.62,12.79,41.16-.66,7.61-.2,15.31-.88,22.91-.66,7.34-1.91,8.05-9.06,9.21-7.65,1.24,3.22,23.67-4.4,23.52-2.03-.04-26.57-8.99-28.06-10.52-5.33-5.48-6.55-26.01-11.82-31.54-2.24-2.35-2.17-5.45-2.45-8.44-.91-9.62-3.28-18.8-6.52-28-5.75-16.35-7.69-33.68-10.38-50.73-1.01-6.38-4.99-12.36-3.03-20.44Zm-43.26,272.55c.14-12.58,7.63-38.79,16.67-46.9,4.63-4.15,16.35-37.02,21.04-40.92,4.03,3.56.04,38.36,1.17,42.09,5.31,17.48,7.17,49.51,11.78,67.09,7.07,26.95,19.49,51.54,30.11,76.93,5.73,13.7,6.18,26.84-.02,40.39-1.95,4.27-4.51,7.01-9.02,8.43-8.4,2.64-16.97,2.98-25.63,2.68-3.05-.11-5.93-1.06-8.26-3.09-6.07-5.3-12.75-9.43-20.53-11.81-2.86-.88-5.76-2.6-7.18-5.17-5.13-9.32-13.89-16.14-17.79-26.3-1.68-4.38-4.42-8.25-7.86-11.43-3.61-3.34-4.2-6.77-2.84-11.59,5.67-20.12,11.1-40.32,16.12-60.62,1.58-6.39,2.17-13.16,2.25-19.77Zm-44.44,31.99c4.68-16.88,6.5-34.59,14.79-50.42,4.42-8.43,8.9-16.8,15.24-24.03-.37,7.32-2.31,13.9-5.49,20.1-2.62,5.1-3.76,10.43-3.97,16.25-.51,14.27-2.94,28.28-7.09,41.99-1.73,5.71-3.14,11.52-4.67,17.29-.82,3.12-1.06,6.5-4.45,9.19-3.14-3.8-4.93-7.79-5.18-12.51-.32-5.98-.78-12.07.82-17.86Zm4.95,182.71c-7.64,1.43-14.51.62-21.32.89-3.98.16-5.28-2.01-4.53-5.65.8-3.88,1.46-7.81,2.65-11.57,2.85-9.02,5.98-17.96,9.75-26.94,2.93,14.83,8.31,28.73,13.45,43.28Zm-68.48-93.85c5.76-12.25,9.75-25.46,18.47-36.27,5.82-7.21,11.25-14.74,16.89-22.18,7.98,7.93,15.06,25.97,15.91,36.1,1.28,15.3-3.93,28.46-11.09,41.39-6.44,11.63-9.86,24.59-15.62,36.58-6.16,12.82-13.28,25.3-16.72,39.34-.59,2.39-1.87,5.02-5.85,6.08-5.11-11.73-7.93-23.68-11.04-35.4-6.07-22.88-.73-44.84,9.04-65.63Zm-6.03,355.06c.23,8.36.77,16.56,3.55,24.55,1,2.86,2.53,6.04-.53,11-10.17-25.27-30.31-40.94-47.11-60.17,3.88-4.05,6.92-9.14,9.6-14.47,1.36-2.71,3.24-5.17,5.78-6.77,10.25-6.46,20.62-12.75,32.37-19.97.75,9.55.88,17.34-.48,25.14-2.35,13.46-3.54,26.99-3.17,40.69Zm-81.49-45.89c-9.19-2.34-17.23-7.83-26.86-9.38,13.59-1.4,24.5-8.97,36.5-13.54,5.03-1.92,7.9-6.57,10.35-10.43,3.67-5.77,8.41-11.16,10.28-18.05.71-2.62,2.05-4.92,4.1-6.74,6.58-5.85,11.1-13.2,14.96-20.96,6.77-13.61,16.61-25.8,19.18-41.37.11-.64.36-1.3.67-1.87,1.95-3.58,4.72-8,8.44-7.56,4.39.52,2.82,5.86,3.23,9.28.9,7.59,1.29,15.27,2.63,22.77,2.48,13.9.21,27.8.64,41.69.23,7.43-3.1,14.12-9.4,17.76-8.46,4.89-15.62,11.38-22.82,17.62-9.08,7.86-20.91,11.71-28.86,21.02-2.64,3.09-6.6,2.82-10.29,2.21-4.26-.7-8.54-1.39-12.72-2.46Zm43.37,204.73c-7.51-11.06-13.55-22.85-18.78-35.1-1.46-3.41-1.36-7.22-2.42-10.64-5.7-18.32-5.4-37.3-7.01-56.11-1.14-13.31-.36-26.53-.2-39.78.13-10.69,4.98-19.74,12.17-29.8,6.06,9.62,11.47,17.94,16.58,26.43,1.9,3.15,3.58,6.42,6.38,8.84,8.79,7.6,14.33,17.43,18.91,27.82,4.29,9.73,8.01,19.7,12.12,29.51,5.14,12.27,4.66,25.41,5.95,38.24,1.11,10.93,2.13,21.8,6.48,32.03,1.45,3.41,2.35,6.86,2.28,10.62-.15,8.15,1.83,15.82,6,22.83,1.23,2.07,2.18,4.15,2.14,6.52-.2,10.88,2.08,21.96-2.56,32.51-.53,1.21-1.03,2.52-1.11,3.81-.34,5.32-.32,10.6-5.04,14.51-6.63,5.48-13.38,10.61-22.84,12.96,0-6.1-.37-11.36.07-16.56,1.49-17.51-4.3-33.66-10.61-49.21-4.29-10.58-11.99-19.83-18.51-29.43Zm40.51,115.07c-6.7,4.8-12.91,9.25-19.54,14,5.54-18.22,7.89-16.78,19.54-14Zm-82.59,208.31c-3.95.13-7.66,1.51-11.25,1.56-1.95-2.3-.82-4.25-.33-6.07,3.39-12.52,7.47-24.76,12.84-36.62,4.61-10.2,7.25-21.41,14.55-30.19,4.55-5.47,7.71-11.52,10.81-17.8,7.07-14.32,11.71-29.41,15.08-44.94,3.4-15.66,12.33-26.78,26.78-33.73,5.6-2.7,11.42-5.24,14.9-11.14,1.05-1.79,3.65-2.86,5.74-3.79,5.31-2.37,10.74-4.47,16.05-6.64,1.87,2.31,1.3,4.73,1.21,6.93-.86,19.62,2.11,39.17.77,58.84-.63,9.19,1.37,18.51,1.92,27.8.99,16.56-3.17,32.37-5.81,48.42-1.16,7.04-7.01,10.18-12.32,13.57-7.26,4.63-15.11,8.1-23.03,11.46-3.04,1.29-6.04,2.86-8.71,4.8-17.68,12.85-38.04,16.84-59.21,17.57Zm115.52,86.12c-2.25.86-3.75-1-4.99-2.4-6.59-7.44-13.12-14.93-19.53-22.52-5.2-6.17-9.22-12.9-9.58-21.33-.11-2.62-.83-5.25-1.53-7.81-3.19-11.62-8.07-21.9-21.63-26.6,12.58-3.93,21.94-12.49,32.35-19.33.54-.36,1.17-.62,1.79-.83,10.63-3.61,15.31-1.45,18.1,9.47,1.8,7.04,2.64,14.35,3.54,21.58,2.67,21.44,1.13,43.1,3.19,64.59.17,1.82.69,4.26-1.71,5.17Zm-1.63-460.56c-5.33-10.94-6.7-22.32-4.04-33.91,5.04-21.89,4.02-43.45-1.63-65.03-1.86-7.13-1.35-14.51-.91-21.85,1.25-20.56,2.34-41.13,3.45-61.69.14-2.64.02-5.29.02-7.87,2.33-1.04,3.13.71,4.03,1.95,4.66,6.37,8.99,12.78,15.04,18.27,5.26,4.77,6.73,12.97,8.36,19.99,4.76,20.51,12.32,39.92,21.33,58.84,1.92,4.03,2.71,8.21,2.96,12.53,1.17,20.32,0,40.57-1.93,60.79-.36,3.7-2.21,6.94-3.77,10.26-6.24,13.26-11.54,26.86-15.89,40.88-2.53,8.14-6.08,15.95-11.13,23.34-2.35-8.21-4.93-16.06-5.31-24.49-.52-11.55-5.64-21.84-10.58-31.99Zm-47.92,715.53c-7.99-13.94-13.86-28.76-18.01-44.23-3.18-11.88-3.5-23.62,3.26-34.74,3.84-6.31,6.16-13.25,6.61-20.71.21-3.45,1.53-6.48,3.67-9.12,14.51-17.87,29.93-34.8,50.81-45.42,7.88-4.01,16.29-6.95,24.85-10.53,3.66,10.43,3.12,20.55,5.04,30.26,3.16,16,3.5,32.36,5.11,48.56.91,9.21-4.33,16.69-8.42,24.07-8.87,16.02-20.1,30.53-31.37,44.93-2.48,3.16-5.46,6.18-6.63,9.88-4.02,12.72-13.24,23.16-15.76,36.51-.17.9-.97,1.68-1.49,2.52-3.27-1.02-3.23-4.21-4.09-6.49-3.43-9.11-8.81-17.13-13.6-25.48Zm.26,219.85c2.06-5.94,4.47-11.77,6.89-17.59,5.15-12.35,7-25.58,10.34-38.41,1.18-4.53,2.71-8.78,4.72-13.02,4.49-9.5,4.98-19.88,5.34-30.21.77-21.93,2.05-43.85,2.22-65.78.14-19.15,8.3-35.25,17-51.39,9.68-17.97,24.06-32.52,35.47-49.22.31-.46,1.14-.57,1.73-.84,1.31,1.22,1.95,2.87,1.91,4.48-.3,11.21,5.32,20.45,10.03,29.92,3.26,6.55,6.31,13.13,9.05,19.92,2.81,6.96,3.91,13.85,4.12,21.3.37,12.59,1.63,25.16,2.67,37.73.47,5.66-.08,11.21-.45,16.85-1.28,19.52-1.61,38.9,1.8,58.53,2.42,13.97,8.52,26.38,12.01,39.77.67,2.56,1.26,5.48,4.63,7.14,2.96,1.46,3.45,5.53,4.17,8.73,1.5,6.74,2.57,13.58,4.07,20.31,1,4.49-.8,6.09-5.06,6.23-4.63.15-9.25.78-13.88.88-9.75.21-19.15,2.27-28.18,5.69-11.56,4.36-23.38,7.84-35.59,9.12-11.13,1.16-22.44,1.89-33.46-1.88-4.04-1.38-8.43-1.75-12.65-2.64-9.64-2.05-12.13-6.24-8.88-15.61Zm-43.2,142.06c-1.12-6.88-1.94-13.79-3.73-20.55-2.48-9.39.46-18.49,1.89-27.62.61-3.92,1.52-7.71,1.61-11.75.14-6.48,3.21-11.98,6.63-17.44,4.95-7.89,11.32-14.63,16.82-22.07.59-.8,1.66-1.41,1.9-2.28,3.18-11.45,10.66-12.04,20.05-8.17,1.21.5,2.63.48,3.87.91,26.76,9.18,53.4,6.5,78.97-3.36,19.73-7.6,39.48-7.53,60.84-6.28,0,5.87-.13,11.69.03,17.5.18,6.62.28,13.2,1.75,19.8,1.37,6.13,1.31,12.45-2.17,18.37-1.64,2.8-2.39,6.2-3.19,9.41-3.25,13-8.31,25.62-15.73,36.36-7.26,10.51-12.29,21.82-18.29,32.82-4.31,7.9-10.45,15.59-19.38,19.46-6.11,2.65-10.37,6.94-13.73,12.49-2.58,4.27-5.71,8.22-8.1,12.58-2.16,3.94-4.99,7.17-8.67,9.44-6.82,4.2-12.9,9.32-18.87,14.57-6.37,5.6-13.17,9.94-21.91,10.73-6.75.61-10.38,5.4-12.94,11.03-1.36,3.01-2.66,6.22-3.06,9.45-1.01,8.03-6.24,12.84-11.85,17.61-7.51-8.1-18.64-38.33-17.92-48.86.91-13.31-.64-26.55-.97-39.82-.15-6.18-2.06-12.14-5.27-17.9-4.51-8.11-7.09-17.21-8.59-26.43Zm-39.48,489.9c-2.12-2.19-3.68-4.62-5.02-7.36-5.83-11.91-10.15-24.69-19.61-34.54-1.43-1.49-1.52-3.62-2.2-5.48-2.56-6.92-6.64-12.77-11.49-18.46-7.42-8.7-15.09-17.34-17.09-29.62-1.35-8.27.44-15.88,1.84-23.65,1.23-6.86,2.89-13.61,3.45-20.62.67-8.35,3.56-16.33,7.14-23.77,8.37-17.37,17.67-34.2,31.73-47.91,7.61-7.43,14.6-15.5,21.93-23.21,4.34-4.56,8.33-9.42,13.97-12.68,4.34-2.51,7.54-6.54,10.18-10.83,2.65-4.3,6.1-7.65,11.12-11,.44,1.76.6,2.08.6,2.4-.7,23.72,2.33,46.97,6.86,70.27,3.29,16.91,6.2,33.9,9.53,50.84,4.15,21.13,5.55,42.81,8.09,64.25,2.26,19.15,5.33,38.09,10.58,56.75,3.97,14.12,3.67,28.98,4.02,43.61.18,7.64.03,15.29.03,22.87-1.55.09-2.49.37-2.67.12-10.1-14.54-25.58-18.49-41.63-20.27-16.85-1.86-29.93-9.93-41.35-21.71Zm78.16,43.29c-5.29-.49-7.86-3.06-9.33-7,3.19,1.79,7.51,2.16,9.33,7Zm-4.3,194.48c-16.87-17.89-33.71-35.8-50.57-53.69-2.95-3.13-5.97-6.05-8.18-9.93-3.63-6.39-10.12-9.62-16.78-11.78-5.78-1.88-9.7-5.4-12.87-10.29-9.63-14.9-15.86-31.32-21.72-47.92-.69-1.96-.91-4.02.19-5.8,4.48-7.25,7.59-15.74,16.69-18.92.92-.32,2.53-.76,2.57-1.23.6-9.05,7.89-5.53,12.66-7.17,10.02-3.45,20.06-7.08,29.53-11.77,14.87-7.37,29-4.39,43.29,1.19,4.47,1.74,5.69,5.99,8.1,9.51,6.88,10.03,9.32,20.63,8.71,32.88-.74,14.89-1.56,29.88-.19,44.85.45,4.9-.5,9.93-.86,14.9-.32,4.3-1.26,8.64-.98,12.89,1.45,22.26-4.42,44.22-1.54,67.04-4.96-.41-6.3-2.9-8.06-4.77Zm-23.13,239.91c-.53.79-1.17.61-1.3-.35-.18-1.27,0-2.47,1.3-3.16.38.33,1.12.74,1.07.96-.21.89-.56,1.79-1.07,2.55Zm120.03-62.59c-12.64-3.76-25.29-4.06-38.39-3.4-11.97.6-23.59,3.25-35.52,3.98-9.49.58-17.5,5.8-24.72,11.86-4.01,3.37-7.8,7.09-14.83,6.68,6.97-18,11.68-36.03,20.61-51.66,9.83-17.2,16.09-36.07,26.16-54.35,4.76,5.03,8.47,8.68,11.87,12.61,15.02,17.32,32.6,32.09,48.65,48.4,7,7.11,16.5,12.05,25.45,16.88,10.48,5.65,21.6,10.11,32.44,15.09.94.43,1.69,1.04,1.73,2.94-18.15-1.41-36.05-3.86-53.45-9.03Zm129.08-26.33c-.58.24-1.19.68-1.51,1.2-8.06,13.37-22.39,13.6-35.26,16.57-5.89,1.36-11.12-1.91-15.67-5.27-5.68-4.19-11.96-6.87-18.28-9.86-12.6-5.95-24.38-13.61-37.19-19.23-1.16-.51-2.88-1.62-2.92-2.51-.33-8.17-7.53-9.06-12.59-12-3.49-2.02-6.08-4.51-8.82-7.52-5.5-6.05-12.44-10.79-18.72-16.13-7.25-6.16-13.15-13.66-18.84-21.13-3.54-4.64.66-10.21,4.14-13.15,8.85-7.47,17.35-15.5,27.31-21.6,5.1-3.12,10.42-5.92,15.31-9.33,4.03-2.81,6.91-6.56,9.6-11.02,9.16-15.17,15.42-32.53,30.92-43.28,2.62-1.81,4.16-5.14,6.3-7.69,2.42-2.89,4.25-7.45,9.32-3.35,1.16.94,2.37-.23,3.47-1.03,6.9-5.04,14.37-3.84,21.76-1.6,11.08,3.36,21.68,8.22,33.51,9.21,4.35.36,8.48.41,12.8-.03,16.85-1.74,33.4-4.8,49.48-10.18,13.83-4.62,28.21-5.74,42.59-6.83,4.31-.32,8.65.07,12.85,1.33,10.08,3.03,18.22-.58,25.21-7.61,5.38-5.41,11.47-9.87,18.72-15.42,5.45,35.74-2.2,65.74-24.28,92.81-12.5,15.32-26.61,29.84-34.45,48.62-1.61,3.86-4.67,6.42-8.44,8.12-14.01,6.32-27.05,14.13-38.57,24.43-2.19,1.95-5.04,3.22-7.69,4.58-6.4,3.28-11.09,8.13-15.07,14.14-6.57,9.92-13.34,19.87-25,24.75Zm49.61,22.25c-7.52-.86-15.01-1.92-22.87-2.94-.41-4.09,2.72-6.18,4.19-8.89,4.59-8.47,9.38-16.82,14.33-25.08,4.65-7.75,11.03-12.82,20.53-13.91,6.87-.79,13.88-1.11,20.54-3.68,5.69-2.19,10.5-5.33,14.94-9.49,15.36-14.4,27.53-31.48,40.69-47.74,4.8-5.94,9.84-11.68,14.71-17.57,8.2-9.92,13.35-21.31,16.22-33.81.38-1.64.93-3.2,3.66-4.69,2.98,13.96,13.95,22.32,22.22,32.62,2.48,3.1,5.05,6.36,8.24,8.62,16.39,11.63,25.08,27.38,28.48,47.17,3.45,20.11,5.77,40.86,21.01,59.35-27.05-1.83-51.35-1.77-75.34,1.64-29.22,4.15-58.26,9.66-87.02,16.42-14.71,3.45-29.58,3.7-44.52,1.99Zm301.78,56.1c-1.87,7.48-4.72,14.53-7.5,21.65-2.77,7.11-4.65,14.34-5.95,21.97-1.4,8.27-4.06,16.7-9.04,23.98-3.95,5.77-7.85,11.66-7.81,19.42-11.65-17.54-28.8-26.16-47.74-32.22-5.82-1.86-11.9-1.02-17.78-2.18-10.44-2.05-20.63-5.15-30.83-7.95-17.6-4.82-35.4-8.93-52.78-14.64-11.79-3.87-22.76-9.29-33.55-15.17-3.45-1.88-6.09-5.06-8.01-8.71-3.1-5.89-16.52-12.63-19.28-18.66-4.85-10.58-19.29-13.57-30.38-21.31,11.17-1.27,38.19-7.54,47.64-8.31,12-.97,23.77-3.04,35.18-6.78,5.44-1.78,10.91-2.83,16.58-3.24,30.75-2.24,61.09,1.53,91.36,6.27,2.26.36,4.55,1.17,6.6,2.21,16.9,8.59,35.14,11.82,53.72,14,14.58,1.71,23.18,15.31,19.58,29.66Zm-7.47-55.74c-.67-1.16-3.01-2.21-4.35-1.99-11.39,1.91-18.22-7.11-27.07-11.15-5.11-2.33-10.56-3.6-15.58-6.34-7.71-4.2-13.8-10.35-20.81-15.36-2.58-1.84-3.56-4.73-4.7-7.51-8.35-20.38-12.5-41.89-17.66-63.18-2.89-11.91-9.67-22.64-19.61-30.54-12.93-10.28-20.66-23.64-26.51-38.97-6.12-16.05-7.12-32.97-11.12-49.33-.87-3.55-1.21-7.27-2.4-10.7-5.25-15.2-3.37-30.27.88-45.17,2.11-7.42,5.6-14.14,13.51-17.54,7.39-3.18,9.76-2.72,14.03,3.85,14.84,22.85,29.18,46.06,45.95,67.58,5.45,7,10.07,14.59,17.19,20.5,6.6,5.48,7.6,14.56,8.62,22.83,1.66,13.53,3.88,26.89,7.83,40.01,1.99,6.61,1.91,13.81,3.31,20.64,2.27,11.06,6.43,21.94,7.1,33.06.64,10.55,4.6,18.65,10.49,26.69,2.71,3.7,4.25,8.19,5.91,12.59,1.8,4.77,3.01,10.26,8.6,12.75,1.89.84,2.27,3.09,2.87,5.03,3.89,12.72,9.47,24.73,16.62,38.46-5.58-2.87-10.42-1.6-13.07-6.2Zm156.16,83.05c-5.95-4.61-11.69-9.35-17.73-13.68-23.73-16.99-47.05-34.57-73.5-47.44-13.53-6.59-24.45-17-34.9-27.72-7.84-8.04-10.4-18.5-11.61-29.03-1.14-9.93-5.71-17.33-12.48-24.17-12.54-12.67-22.23-27.16-26.09-44.92-1.56-7.18-1.74-14.54-1.35-21.81.5-9.29,1.74-18.53,2.73-27.79.21-1.96.76-3.86,3.03-5.46,7.29,4.97,13.34,11.37,18.95,18.36,9.34,11.64,14.83,25,18.75,39.23,3.42,12.4,10.77,21.63,22.49,27.54,6.82,3.43,12.75,8.22,16.1,15.59,2.63,5.79,20.99,6.79,25.17,11.21,24.18,25.52,28.79,58.99,48.47,87.76,8.22,12.03,14.53,25.37,21.65,38.14.6,1.07,1.41,2.3.31,4.19Zm38.75-272.86c-6.45,20.2-7.17,41.16-8.15,62.08-.16,3.32.31,6.82-.58,9.93-4.06,14.21-4.1,28.97-6.42,43.41-1.6,9.95-1.57,19.87,1.52,29.61.4,1.25.92,2.61.77,3.85-1.73,14.38,1.7,28.52,1.97,42.81.2,10.35-.03,20.61-2.93,30.75-5.23-23.18-14.92-44.95-17.76-68.53-1.23-10.25-9.48-14.03-11.62-24.14-7.27-34.49-11.92-74.45-22.61-108.06-1.51-4.75-3.11-9.47-4.9-14.12-8.57-22.25-12.23-45.34-14.11-69.09-1.43-18.05-3.59-36.36-10.92-53.42-2.96-6.88-2.04-14.45-3.33-21.62-2.6-14.39-6.68-28.44-10.65-42.49-2.84-10.04-4.25-20.16-3.57-30.56.15-2.23.02-4.62,2.47-6.76,3.35,3.48,4.45,8.05,5.92,12.25,5.18,14.78,13.96,27.53,24.91,38.08,11.57,11.15,19.2,24.58,26.82,38.12,4.68,8.33,9.37,16.79,12.44,26.02,1.55,4.67,4.97,8.48,7.71,12.59,3.63,5.44,7.96,10.74,9.09,17.81,1.68,10.51,5.42,20.34,10.56,29.83,5.21,9.62,8.96,20.03,13.51,30.02,1.82,4,1.12,7.71-.13,11.62Zm13.68-47.38c-4.02-10.07-9.33-19.89-11.82-30.39-3.73-15.7-11.84-29.6-16.35-44.9-2.06-6.97-8.68-10.72-13.26-15.8-8.52-9.45-16.21-19.24-21.85-30.71-6.52-13.26-16.34-24.18-26.14-35.03-5.63-6.23-10.75-12.7-13.07-20.93-1.6-5.68-6.22-9.31-9.34-13.93-4.93-7.3-8.45-15.01-9.57-23.78-.83-6.49-.02-7.6,6.06-8.99,12.59-2.88,25.07-5.95,38.27-4.01,4.57.67,9.15.78,13.61,2.34,4.06,1.41,8.29,2.8,12.52,3.14,10.82.85,20.62,4.66,30.37,9,10.37,4.61,21.04,8.17,32.67,7.47,1.98-.12,3.99.03,5.98.12,13.8.63,13.04.81,16.11,13.94,3.72,15.89,4.78,32.22,8.74,48.02,3.88,15.48.69,29.28-7.79,42.73-11,17.46-17.76,36.43-15.79,57.64.31,3.29.4,6.61-1.44,9.69-5.63,9.44-10.44,19.25-13.79,29.76-.58,1.81-1.32,3.78-4.13,4.62Zm23.91,446.77c-5.39,7.83-10.77,15.66-16.15,23.49-2.16-17.53,1.3-34.39-1.61-51.44,5.99,7.2,10.64,15.13,17.08,21.66,1.83,1.85,2.26,3.99.68,6.29Zm11.12-44.15c-12.63-43.87-41.25-74.73-23.82-118.51,12.68,15.25,19.99,33.45,21.44,54.24.74,10.57,5.49,20.48,6.37,31.18.91,11.01.61,21.74-3.99,33.09Zm62.86-220.25c-4.1,7.22-7.65,14.76-11.15,22.31-4.4,9.5-6.94,19.35-5.34,30.02,1.01,6.73-.22,13.39-3.16,19.47-9.28,19.17-16.66,39.14-24.96,58.72-1.13,2.66-1.53,5.85-5.31,8.56-1.84-7.28-3.36-13.71-5.09-20.08-2.88-10.61-6.84-20.8-12.39-30.33-1-1.71-2.13-3.47-2.6-5.35-4.47-17.65-12.67-34.48-14.38-52.6-1.89-19.98-4.77-40.02-1.23-60.4,1.67-9.62.89-19.77,3.4-29.46.17-.64.16-1.33.32-1.97,2.08-8.03,2.77-8.02,9.23-3.1,13,9.91,26.83,18.6,41.35,26.13,9.19,4.76,18.13,9.8,25.53,17.22,2.15,2.15,3.74,4.61,5.47,7.05,3.28,4.65,3.14,8.86.32,13.81Zm78.69-332.02c8.89,5.78,14.7,14.49,20.84,22.6,7.98,10.55,15.23,21.71,21.11,33.74,3.63,7.43,4.07,14.72,1.88,22.19-3.73,12.71-7.78,25.26-9.07,38.61-.93,9.63-7.21,17.02-13.04,24.28-6.65,8.3-13.69,16.26-19.72,25.09-8.3,12.15-15.8,24.58-18.96,39.2-2.45,11.33-10,20.17-14.94,30.29-10.47,21.42-21.74,42.49-29.7,65.06-.65,1.85-1.39,3.66-2.31,6.07-14.81-13.84-29.07-26.54-45.39-36.6-15.03-9.26-26.02-22.48-36.78-36.04-3.19-4.01-4.02-8.29-2.92-13.08.97-4.2,1.85-8.45,3.2-12.53,2.71-8.19,4.92-16.26,5.36-25.11.55-10.98,5.97-20.95,10.12-31.04,5.81-14.12,12.69-27.81,17.55-42.32,1.44-4.31,4.94-7.03,7.29-10.62,13.66-20.8,27.44-41.53,41.19-62.28.37-.55.65-1.23,1.15-1.62,12.08-9.32,14.94-23.79,20.85-36.64,2.87-6.24,7.36-11.77,11.35-17.46,1.81-2.57,4.31-1.59,5.95.27,6.98,7.89,16.38,12.35,24.98,17.94Z"/></g><g id="points"><circle id="scherer" cx="1159.51" cy="2539.56" r="19.25" style="fill:#d0d0d0; stroke:#fff; stroke-miterlimit:10; stroke-width:3.08px;"/><circle id="dibbets" cx="1041.33" cy="1441.13" r="19.25" style="fill:#d0d0d0; stroke:#fff; stroke-miterlimit:10; stroke-width:3.08px;"/><circle id="kslv-cries-and-whispers" cx="1201.83" cy="1155.13" r="19.25" style="fill:#d0d0d0; stroke:#fff; stroke-miterlimit:10; stroke-width:3.08px;"/><circle id="kslv-biopresence" cx="1148.77" cy="644.69" r="19.25" style="fill:#d0d0d0; stroke:#fff; stroke-miterlimit:10; stroke-width:3.08px;"/><circle id="kslv-armille" cx="964.44" cy="393.12" r="19.25" style="fill:#d0d0d0; stroke:#fff; stroke-miterlimit:10; stroke-width:3.08px;"/><circle id="bo" cx="831.63" cy="814.28" r="19.25" style="fill:#d0d0d0; stroke:#fff; stroke-miterlimit:10; stroke-width:3.08px;"/><circle id="boursier-mougenot" cx="1012.06" cy="1905" r="19.25" style="fill:#d0d0d0; stroke:#fff; stroke-miterlimit:10; stroke-width:3.08px;"/><circle id="brindamour" cx="521.87" cy="1988.06" r="19.25" style="fill:#d0d0d0; stroke:#fff; stroke-miterlimit:10; stroke-width:3.08px;"/><circle id="bonneval" cx="789.07" cy="1715.22" r="19.25" style="fill:#d0d0d0; stroke:#fff; stroke-miterlimit:10; stroke-width:3.08px;"/><circle id="scenocosme" cx="876.39" cy="2207.77" r="19.25" style="fill:#d0d0d0; stroke:#fff; stroke-miterlimit:10; stroke-width:3.08px;"/><circle id="crasset" cx="429.13" cy="301.5" r="19.25" style="fill:#d0d0d0; stroke:#fff; stroke-miterlimit:10; stroke-width:3.08px;"/><circle id="u-everything" cx="323.09" cy="1525.75" r="19.25" style="fill:#d0d0d0; stroke:#fff; stroke-miterlimit:10; stroke-width:3.08px;"/><circle id="samakh" cx="263.54" cy="676.28" r="19.25" style="fill:#d0d0d0; stroke:#fff; stroke-miterlimit:10; stroke-width:3.08px;"/><circle id="c-atger-c-edelin" cx="660.41" cy="2601.01" r="19.25" style="fill:#d0d0d0; stroke:#fff; stroke-miterlimit:10; stroke-width:3.08px;"/><circle id="devienne" cx="993.7" cy="3047.69" r="19.25" style="fill:#d0d0d0; stroke:#fff; stroke-miterlimit:10; stroke-width:3.08px;"/><circle id="lull" cx="225.53" cy="2273.12" r="19.25" style="fill:#d0d0d0; stroke:#fff; stroke-miterlimit:10; stroke-width:3.08px;"/><circle id="Pr-L-Pr-K" cx="267.42" cy="2865.1" r="19.25" style="fill:#d0d0d0; stroke:#fff; stroke-miterlimit:10; stroke-width:3.08px;"/><circle id="steyerl" cx="301.63" cy="1150" r="19.25" style="fill:#d0d0d0; stroke:#fff; stroke-miterlimit:10; stroke-width:3.08px;"/><circle id="ju-lee" cx="512.61" cy="741.13" r="19.25" style="fill:#d0d0d0; stroke:#fff; stroke-miterlimit:10; stroke-width:3.08px;"/><circle id="licari" cx="783.41" cy="1204.08" r="19.25" style="fill:#d0d0d0; stroke:#fff; stroke-miterlimit:10; stroke-width:3.08px;"/></g></svg>